<svg width="14" height="19" viewBox="0 0 14 19" fill="none" xmlns="http://www.w3.org/2000/svg">
<g clip-path="url(#clip0_43_76)">
<path d="M7.0058 18.9993C5.192 18.9993 3.37819 19.0009 1.56387 18.9988C0.80366 18.9978 0.159247 18.5899 0.0912233 17.9048C-0.0199002 16.7888 -0.127389 15.6442 0.394995 14.5818C1.12561 13.0947 2.34589 12.3192 4.0278 12.2574C4.31236 12.2472 4.59796 12.2513 4.88303 12.2579C4.99572 12.2605 5.02739 12.2217 5.02479 12.115C5.01856 11.8602 5.0196 11.6055 5.02479 11.3507C5.02635 11.2645 4.99831 11.2144 4.92146 11.168C3.99301 10.6054 3.37871 9.80795 3.0874 8.77313C3.06352 8.68838 3.04015 8.66592 2.94305 8.68481C2.49388 8.77262 2.18751 8.61895 1.99382 8.21717C1.95955 8.14621 1.91593 8.11354 1.8422 8.08954C1.19207 7.87768 0.829623 7.38656 0.827027 6.71165C0.824431 5.90299 0.819238 5.09381 0.829623 4.28515C0.855067 2.18028 2.50219 0.349558 4.62184 0.0611143C4.75633 0.0427356 4.89186 0.0238464 5.02739 0.0223149C6.42007 0.00699927 7.81379 -0.0241424 9.20491 0.0304832C11.1761 0.107572 12.9436 1.68048 13.2661 3.59391C13.317 3.89614 13.3435 4.19938 13.3424 4.50621C13.3398 5.23216 13.3409 5.95812 13.3424 6.68459C13.343 7.11394 13.2007 7.48355 12.8761 7.77608C12.8117 7.83377 12.7884 7.89299 12.7894 7.97467C12.7925 8.22279 12.7936 8.47141 12.7894 8.72003C12.7775 9.49143 12.2343 10.0254 11.4502 10.0346C11.1262 10.0387 10.8022 10.0387 10.4787 10.0336C10.3779 10.0321 10.3151 10.0622 10.2538 10.1439C9.9459 10.5523 9.57359 10.8943 9.12754 11.1542C9.04186 11.2042 8.99668 11.2578 9.00032 11.3645C9.00914 11.6126 9.00862 11.8613 9.00032 12.1094C8.99668 12.2299 9.0429 12.2569 9.15765 12.2584C9.60423 12.2641 10.0503 12.237 10.4968 12.2896C12.2089 12.4902 13.6852 13.8906 13.9266 15.5676C14.032 16.3023 14.004 17.0435 13.9599 17.7797C13.9235 18.3877 13.3549 18.9187 12.738 18.983C12.616 18.9958 12.4924 18.9983 12.3693 18.9983C10.5815 18.9993 8.79313 18.9988 7.00529 18.9988L7.0058 18.9993ZM9.57618 10.0362C9.27553 10.0362 9.01226 10.0387 8.74951 10.0346C8.66539 10.0336 8.6441 10.0954 8.60671 10.1444C8.31592 10.5247 7.79925 10.5426 7.48821 10.176C7.42641 10.103 7.38591 10.0729 7.28517 10.1143C6.88482 10.2786 6.53846 10.151 6.22586 9.89627C6.09397 9.78855 6.07528 9.6262 6.16511 9.50419C6.26065 9.37401 6.44084 9.3347 6.57689 9.44548C6.94765 9.74771 7.14237 9.61957 7.48042 9.30611C7.84546 8.96763 8.31488 8.96304 8.61658 9.36278C8.66902 9.43272 8.71835 9.46284 8.80559 9.46182C9.16804 9.45773 9.53101 9.45671 9.89398 9.46233C9.99471 9.46386 10.043 9.42302 10.0871 9.34082C10.2933 8.95283 10.4366 8.54492 10.4683 8.10843C10.5316 7.23085 10.4776 6.35122 10.5005 5.47313C10.5052 5.29189 10.4584 5.23676 10.2679 5.23778C8.87517 5.24595 7.48249 5.23931 6.08981 5.24493C5.89405 5.24595 5.74242 5.19745 5.61053 5.04991C5.45631 4.87786 5.28235 4.72267 5.07932 4.52305C5.07932 4.67315 5.07984 4.76096 5.07932 4.84876C5.07672 5.16222 4.99675 5.24033 4.67273 5.24186C4.34871 5.24289 4.02468 5.24697 3.70118 5.23982C3.57604 5.23727 3.53242 5.27403 3.53346 5.40166C3.53917 6.21696 3.52307 7.03226 3.5428 7.84704C3.56877 8.9176 4.03299 9.78651 4.88303 10.4476C6.28869 11.5407 8.42445 11.364 9.5767 10.0367L9.57618 10.0362ZM12.7546 5.61199C12.7546 5.14231 12.7666 4.69918 12.7526 4.25707C12.6882 2.26656 11.0468 0.641064 9.02524 0.59716C7.7307 0.569081 6.43513 0.578781 5.14007 0.596139C4.15242 0.609412 3.30602 0.988217 2.59098 1.65393C1.42419 2.73981 1.3115 4.12689 1.43405 5.59463C1.58776 5.50529 1.74354 5.43076 1.91334 5.39247C1.97305 5.37868 1.98915 5.33223 2.01356 5.28679C2.18128 4.97435 2.44247 4.81711 2.80388 4.8457C2.91656 4.85438 2.95187 4.82426 2.95032 4.7145C2.9472 4.49191 2.94616 4.2683 2.96174 4.04674C3.04171 2.91083 4.05272 1.95565 5.21121 1.94289C6.40916 1.92961 7.60712 1.93064 8.80507 1.94289C9.93552 1.95412 10.9284 2.85978 11.0587 3.96301C11.095 4.27239 11.0587 4.5838 11.0935 4.8988C11.5795 4.75636 11.9451 4.88093 12.1705 5.33121C12.186 5.36286 12.2073 5.38226 12.2406 5.38991C12.4161 5.43127 12.575 5.51397 12.7546 5.61301V5.61199ZM8.41718 12.1196C8.41718 11.9138 8.41146 11.7734 8.41873 11.6341C8.42549 11.5167 8.37667 11.5105 8.28113 11.5412C7.43109 11.8138 6.57949 11.8122 5.731 11.5361C5.61261 11.4978 5.60378 11.5463 5.60534 11.6397C5.60897 11.9128 5.60845 12.1865 5.60534 12.4596C5.6043 12.5346 5.6287 12.5913 5.677 12.648C6.06749 13.1054 6.45434 13.5659 6.84483 14.0238C6.9788 14.1811 7.04683 14.18 7.18339 14.0208C7.48717 13.6659 7.77432 13.2963 8.09419 12.9558C8.34136 12.6929 8.50389 12.4218 8.41718 12.1196ZM2.50842 6.76321C2.50842 7.12568 2.50842 7.48815 2.50842 7.85062C2.50842 7.99765 2.54321 8.12119 2.72132 8.13447C2.86879 8.14519 2.9472 8.04768 2.94772 7.84806C2.9498 7.13589 2.94824 6.42372 2.94824 5.71205C2.94824 5.56043 2.92124 5.41697 2.72807 5.41901C2.53906 5.42106 2.50738 5.56145 2.5079 5.71461C2.50894 6.06431 2.5079 6.41402 2.5079 6.76372L2.50842 6.76321ZM11.6501 6.78618C11.6501 6.42372 11.6496 6.06176 11.6501 5.69929C11.6501 5.55226 11.6164 5.4282 11.4372 5.41646C11.2918 5.40727 11.2129 5.50938 11.2129 5.70797C11.2114 6.42014 11.2114 7.13181 11.2129 7.84398C11.2129 8.04308 11.2898 8.14212 11.4367 8.13447C11.6325 8.12375 11.6507 7.98539 11.6501 7.8353C11.6491 7.4856 11.6501 7.13589 11.6501 6.78618ZM12.2026 8.26056C12.1814 8.26618 12.1585 8.26465 12.1507 8.27486C11.7919 8.73126 11.6247 8.78793 11.0603 8.62252C10.9813 8.59955 10.9777 8.63069 10.9637 8.68481C10.9045 8.9125 10.8307 9.1356 10.731 9.3495C10.6926 9.43272 10.7087 9.46335 10.8037 9.46182C11.0493 9.45773 11.2955 9.47152 11.5395 9.45467C11.9212 9.42812 12.1772 9.16367 12.2011 8.78334C12.212 8.61282 12.2026 8.44078 12.2026 8.26108V8.26056Z" fill="#0097BB"/>
<path d="M4.63239 6.96552C4.63291 6.59999 4.92941 6.31308 5.30121 6.31818C5.66469 6.32329 5.95497 6.60765 5.95756 6.96195C5.96016 7.32084 5.65898 7.62205 5.29497 7.62409C4.93045 7.62613 4.63135 7.32901 4.63239 6.96552Z" fill="#0097BB"/>
<path d="M9.39355 6.97005C9.392 7.3315 9.08874 7.62862 8.72526 7.62403C8.36281 7.61943 8.05903 7.3121 8.06578 6.9578C8.07253 6.60401 8.36644 6.31965 8.72785 6.31812C9.09913 6.31659 9.39511 6.60605 9.39355 6.97005Z" fill="#0097BB"/>
<path d="M7.36582 7.97377C7.36582 8.0626 7.37465 8.15246 7.36374 8.23975C7.34557 8.38372 7.2547 8.46745 7.10671 8.47817C6.95093 8.48991 6.83669 8.41895 6.80605 8.26834C6.76659 8.07486 6.77074 7.87575 6.80293 7.68176C6.82838 7.52962 6.94366 7.45049 7.09528 7.45815C7.24535 7.46581 7.3492 7.55106 7.3653 7.70728C7.37413 7.79509 7.36686 7.88494 7.36686 7.97377H7.36582Z" fill="#0097BB"/>
</g>
<defs>
<clipPath id="clip0_43_76">
<rect width="14" height="19" fill="white"/>
</clipPath>
</defs>
</svg>
