<svg width="18" height="22" viewBox="0 0 18 22" fill="none" xmlns="http://www.w3.org/2000/svg">
<path d="M1.18941 3.28086C0.469765 3.6007 0 4.32034 0 5.10995V9.8076C0 15.3548 3.83808 20.5422 8.9955 21.8016C14.1529 20.5422 17.991 15.3548 17.991 9.8076V5.10995C17.991 4.32034 17.5212 3.6007 16.8016 3.28086L9.8051 0.172414C9.28536 -0.0574713 8.69565 -0.0574713 8.18591 0.172414L1.18941 3.28086ZM8.9955 5.8096C9.54523 5.8096 9.995 6.25937 9.995 6.8091C9.995 7.35882 9.54523 7.8086 8.9955 7.8086C8.44578 7.8086 7.996 7.35882 7.996 6.8091C7.996 6.25937 8.44578 5.8096 8.9955 5.8096ZM8.9955 9.8076C9.54523 9.8076 9.995 10.2574 9.995 10.8071V14.8051C9.995 15.3548 9.54523 15.8046 8.9955 15.8046C8.44578 15.8046 7.996 15.3548 7.996 14.8051V10.8071C7.996 10.2574 8.44578 9.8076 8.9955 9.8076Z" fill="#FFC000"/>
</svg>
