<svg width="20" height="17" viewBox="0 0 20 17" fill="none" xmlns="http://www.w3.org/2000/svg">
<path d="M7.49294 5.46924C6.7437 5.47009 6.13647 6.07715 6.13562 6.82655C6.13562 7.07638 6.33824 7.27888 6.58812 7.27888C6.83795 7.27888 7.04061 7.07638 7.04061 6.82655C7.04061 6.57672 7.24306 6.37406 7.49294 6.37406C7.74281 6.37406 7.94543 6.57668 7.94543 6.82655C7.94543 7.07643 8.14805 7.27888 8.39793 7.27888C8.6478 7.27888 8.85025 7.07638 8.85025 6.82655C8.8494 6.07715 8.24234 5.47009 7.49294 5.46924ZM12.0174 5.46924C11.2681 5.47009 10.6609 6.07715 10.6601 6.82655C10.6601 7.07638 10.8627 7.27888 11.1126 7.27888C11.3624 7.27888 11.5649 7.07638 11.5649 6.82655C11.5649 6.57672 11.7675 6.37406 12.0174 6.37406C12.2672 6.37406 12.4699 6.57668 12.4699 6.82655C12.4699 7.07643 12.6723 7.27888 12.9222 7.27888C13.1721 7.27888 13.3747 7.07638 13.3747 6.82655C13.3738 6.07715 12.7666 5.47009 12.0174 5.46924Z" fill="#FFA915"/>
<path d="M17.9322 3.67624C16.8448 1.3375 14.0266 1.30009 13.2 1.34001C12.3834 0.544367 11.2851 0.0400391 9.75523 0.0400391C8.22532 0.0400391 7.12692 0.544367 6.31019 1.34001C5.48376 1.30009 2.66593 1.33886 1.57817 3.67624C0.199137 6.64003 -0.103587 8.69292 0.678142 9.77801C0.850368 10.0137 1.0778 10.2035 1.34049 10.3307C1.60318 10.458 1.89308 10.5188 2.18476 10.5079C2.28117 10.5079 2.37742 10.5024 2.47319 10.4911C2.78321 10.4534 3.08524 10.3666 3.36792 10.2338C3.01302 12.0905 3.22557 13.4904 4.03113 14.4941C5.02079 15.7277 6.89337 16.3278 9.75519 16.3278C12.6167 16.3278 14.4894 15.7277 15.479 14.4941C16.2846 13.4904 16.4972 12.0905 16.1423 10.2338C16.425 10.3666 16.7271 10.4535 17.0371 10.4911C17.1329 10.5024 17.2292 10.5079 17.3256 10.5079C17.6173 10.5187 17.9072 10.4578 18.1698 10.3306C18.4325 10.2033 18.6599 10.0136 18.8322 9.77801C19.6137 8.69292 19.3111 6.64007 17.9322 3.6762L17.9322 3.67624ZM2.37114 9.59244C2.19518 9.62767 2.01295 9.61427 1.84404 9.55369C1.67512 9.49311 1.52591 9.38764 1.41245 9.24862C1.15134 8.88626 0.724884 7.65538 2.39811 4.05795C3.04314 2.67115 4.57775 2.32932 5.55994 2.25743C4.5168 3.86576 4.1233 6.09243 3.77965 8.05834C3.73045 8.33998 3.68188 8.61484 3.63234 8.88562C3.49563 9.17074 2.95864 9.525 2.37114 9.59244ZM9.75519 12.7082C9.25561 12.7077 8.85066 12.3029 8.8502 11.8034H10.66C10.6595 12.3029 10.2547 12.7077 9.75519 12.7082ZM14.7735 13.9277C14.0158 14.8724 12.5125 15.3551 10.2075 15.4115V13.5489C11.0045 13.3438 11.5623 12.6263 11.5648 11.8034C11.5643 11.3038 11.1595 10.8991 10.66 10.8986H8.8502C8.35062 10.899 7.94589 11.3038 7.94538 11.8034C7.94784 12.6263 8.50569 13.3438 9.30269 13.5489V15.4115C6.99763 15.3551 5.49436 14.8724 4.73681 13.9277C4.06562 13.0909 3.92726 11.836 4.31532 10.0916C4.44422 9.50943 4.55557 8.87319 4.67085 8.21388C5.2665 4.80638 5.94168 0.944859 9.75519 0.944859C13.5687 0.944859 14.2437 4.80638 14.8393 8.21392C14.9546 8.87319 15.066 9.50943 15.1951 10.0917C15.5829 11.836 15.4445 13.0909 14.7735 13.9277ZM18.0979 9.24862C17.9839 9.38704 17.8346 9.49208 17.6658 9.55264C17.4971 9.61319 17.3151 9.627 17.1391 9.59261C16.5517 9.52517 16.0145 9.17074 15.8778 8.88579C15.8276 8.61023 15.7785 8.33446 15.7306 8.05851C15.3869 6.09243 14.9934 3.86559 13.9501 2.25726C14.9322 2.32915 16.4672 2.67149 17.112 4.05812C18.7854 7.65538 18.359 8.88643 18.0979 9.24862Z" fill="#FFA915"/>
</svg>
