<svg width="24" height="24" viewBox="0 0 24 24" fill="none" xmlns="http://www.w3.org/2000/svg">
<rect width="24" height="24" rx="12" fill="#EAEAEA"/>
<path d="M10.1205 16.3609C9.88656 16.5655 9.53124 16.5416 9.32669 16.3077C9.12234 16.0738 9.14623 15.7184 9.38005 15.5139L13.396 12.0001L9.37984 8.48607C9.14581 8.28152 9.12213 7.9262 9.32648 7.69243C9.53103 7.4584 9.88635 7.43451 10.1204 7.63906L14.6203 11.5766C14.6806 11.6294 14.729 11.6945 14.7622 11.7676C14.7953 11.8406 14.8125 11.9199 14.8125 12.0001C14.8125 12.0803 14.7953 12.1596 14.7622 12.2327C14.729 12.3057 14.6806 12.3708 14.6203 12.4236L10.1205 16.3609Z" fill="#727272"/>
</svg>
