<svg width="67" height="67" viewBox="0 0 67 67" fill="none" xmlns="http://www.w3.org/2000/svg">
<circle cx="30.2816" cy="29.2178" r="26.9867" fill="#BEE4FF"/>
<path d="M14.344 17.0435C11.9319 17.0562 10.7113 15.5925 11.1815 13.2008C11.5345 11.4042 12.3895 9.83402 13.6218 8.51879C15.822 6.1707 18.4417 4.47616 21.696 4.03247C22.5476 3.9164 23.4808 4.00877 24.3131 4.2369C25.45 4.5484 25.7462 5.31272 25.4109 6.44037C25.3762 6.55701 25.3846 6.69705 25.4093 6.81897C25.6356 7.93719 25.3676 8.9759 24.7802 9.90312C22.5713 13.389 19.3955 15.6156 15.505 16.8702C15.1374 16.9886 14.7319 16.9885 14.344 17.0435ZM48.7062 17.0435C51.1182 17.0562 52.3388 15.5925 51.8687 13.2008C51.5157 11.4042 50.6607 9.83402 49.4284 8.51879C47.2282 6.1707 44.6085 4.47616 41.3541 4.03247C40.5026 3.9164 39.5694 4.00877 38.7371 4.2369C37.6002 4.5484 37.3039 5.31272 37.6393 6.44037C37.674 6.55701 37.6655 6.69705 37.6409 6.81897C37.4146 7.93719 37.6825 8.9759 38.27 9.90312C40.4789 13.389 43.6547 15.6156 47.5451 16.8702C47.9126 16.9886 48.3183 16.9885 48.7062 17.0435ZM60.7017 39.3911C62.2414 36.0629 61.5626 35.1239 61.1993 34.8748C60.9854 34.7281 60.7443 34.7205 60.581 34.792C60.9035 33.5346 61.1923 32.0892 61.2078 30.9013C61.2234 29.7223 61.019 28.992 60.6007 28.7312C60.3751 28.5903 60.1538 28.6287 60.0401 28.6644C59.8406 26.8999 59.3714 25.4418 58.8971 24.3481C57.9327 22.1241 56.7386 20.8835 56.7248 20.8694C56.4965 20.6535 54.4749 18.7743 53.8162 19.2231C53.4786 19.4528 53.5727 20.2081 54.1036 21.5321C56.2839 26.9682 57.4628 34.6184 47.1397 45.6167L47.1533 45.6251L44.2244 49.0507C44.2424 49.0539 46.0467 49.3678 48.349 49.3317C50.477 49.2983 53.4787 48.9504 55.6953 47.4835C57.7908 46.0968 58.1763 45.2641 58.1308 44.8097C58.1057 44.5584 57.9434 44.3601 57.6738 44.2509C57.5011 44.181 57.3011 44.1588 57.1261 44.1784C58.235 43.2262 59.6395 41.6874 60.7017 39.3911Z" fill="#2973A8"/>
<path d="M30.6579 52.5957C26.141 52.7092 21.7107 52.1623 17.3906 50.83C13.8608 49.7413 11.6835 47.3711 10.8747 43.7561C10.0335 39.9962 10.3952 36.2595 11.0285 32.5148C11.9969 26.7893 13.362 21.1711 15.6127 15.8071C17.3882 11.5757 20.0398 7.98604 23.7512 5.21082C28.5721 1.60603 33.8819 1.60417 38.7032 5.20839C43.0779 8.47884 45.8681 12.8501 47.686 17.9189C49.9164 24.138 51.3697 30.5347 52.0245 37.1076C52.2654 39.5256 52.0561 41.9301 51.4511 44.2829C50.6316 47.47 48.5788 49.5487 45.53 50.7009C41.6721 52.1589 37.6582 52.615 33.5673 52.5964C32.5977 52.592 31.6278 52.5957 30.6579 52.5957Z" fill="#90CAF4"/>
<path d="M31.1663 53.2316C29.7461 54.4366 28.9461 54.4327 27.5754 53.1957C25.9839 51.7596 25.1365 49.8848 24.5151 47.8839C23.151 43.4908 22.732 38.9607 22.5614 34.3949C22.5577 34.2938 22.5824 34.1916 22.6057 33.9855H39.9043C39.9043 35.0559 39.9788 36.0221 39.8916 36.9734C39.4783 41.482 38.5976 45.8842 36.7691 50.0589C36.5916 50.4645 36.5323 50.9243 36.3376 51.3192C36.0389 51.9249 35.7476 52.5615 35.3173 53.0701C33.9508 54.6854 32.7024 54.7188 31.1663 53.2316Z" fill="#90CAF4"/>
<path d="M28.5987 11.3723C27.5405 11.0367 26.7827 10.2026 25.5135 10.2742C24.1668 10.3502 23.2583 11.7251 21.9124 11.6658C21.2675 11.6374 20.8454 11.434 20.3687 11.9841C20.1193 12.2719 20.183 12.5941 20.0529 12.9274C19.822 13.5194 19.3549 13.917 18.9821 14.4104C17.6109 16.2254 18.2982 18.5852 20.6852 18.9181C21.5129 19.0336 22.487 18.8409 23.2353 19.2102C23.6273 19.4038 23.8466 19.8672 24.3343 19.7958C24.7361 19.737 25.0226 18.9879 25.295 18.7442C26.0949 18.0286 27.144 17.7187 27.976 16.9973C28.6817 16.3853 29.3845 15.8988 30.1558 15.3988C30.7824 14.9927 31.4973 14.3838 31.3263 13.514C31.0588 12.1542 28.8865 11.241 28.5987 11.3723Z" fill="#7FADD0"/>
<path d="M24.706 13.2924C23.8912 13.2924 23.2305 14.0884 23.2305 15.0703C23.2305 16.0522 23.8912 16.8482 24.706 16.8482C25.5209 16.8482 26.1816 16.0522 26.1816 15.0703C26.1816 14.0884 25.521 13.2924 24.706 13.2924ZM37.7922 13.2924C36.9774 13.2924 36.3167 14.0884 36.3167 15.0703C36.3167 16.0522 36.9774 16.8482 37.7922 16.8482C38.6071 16.8482 39.2678 16.0522 39.2678 15.0703C39.2678 14.0884 38.6071 13.2924 37.7922 13.2924Z" fill="#353538"/>
<path d="M24.6338 4.89839C24.8942 4.66235 25.1883 4.46638 25.5064 4.31693C25.2438 4.06197 24.8898 3.8701 24.4435 3.74776C23.4985 3.48894 22.4984 3.41156 21.627 3.53034C18.5226 3.95347 15.7842 5.47114 13.2555 8.16998C11.9142 9.60156 11.0509 11.2594 10.6895 13.0974C10.4292 14.4217 10.6389 15.5417 11.2962 16.3363C11.9456 17.1216 12.9877 17.5362 14.3111 17.5362C14.3449 17.5362 14.3789 17.5358 14.4125 17.5312C14.525 17.5152 14.639 17.5045 14.7531 17.4937C14.7473 17.1447 14.8063 16.7977 14.9272 16.4704C14.8407 16.4806 14.7541 16.4898 14.6673 16.4979C14.5469 16.5094 14.4265 16.5209 14.3074 16.5369C13.2935 16.5362 12.5189 16.247 12.0661 15.6995C11.6064 15.1436 11.4694 14.3106 11.6701 13.2902C11.9946 11.6389 12.7735 10.1462 13.9846 8.85337C16.3501 6.32868 18.8941 4.91152 21.7619 4.52051C21.9939 4.48958 22.2276 4.47437 22.4616 4.47497C23.0178 4.47497 23.6084 4.5552 24.1793 4.7118C24.3599 4.7612 24.5109 4.82387 24.6338 4.89839ZM52.3576 13.0974C51.9963 11.2594 51.133 9.60171 49.7915 8.16998C47.2627 5.47114 44.5243 3.95347 41.4201 3.53034C40.5489 3.41156 39.5488 3.48879 38.6036 3.74776C38.2954 3.83227 38.0314 3.95033 37.8103 4.09866C38.1032 4.29404 38.363 4.53507 38.5797 4.81259C38.6731 4.77201 38.7694 4.73827 38.8677 4.71166C39.4387 4.55506 40.0292 4.47483 40.5855 4.47483C40.8265 4.47483 41.0613 4.48982 41.2851 4.52037C44.1527 4.91124 46.6967 6.32854 49.0625 8.85337C50.2736 10.146 51.0524 11.6387 51.377 13.29C51.5775 14.3103 51.4406 15.1434 50.9809 15.6993C50.528 16.2468 49.7534 16.536 48.7397 16.5368C48.62 16.5214 48.5 16.5085 48.3798 16.4978C48.1313 16.4741 47.8964 16.4518 47.6974 16.3876C47.3467 16.2741 46.9992 16.1508 46.6554 16.0177C46.9571 16.3986 47.1767 16.8377 47.3004 17.3075C47.331 17.3175 47.3601 17.3288 47.3908 17.3386C47.6934 17.4363 47.9944 17.465 48.2853 17.4927C48.4024 17.5038 48.5196 17.5147 48.6349 17.5312C48.6685 17.5358 48.7023 17.5361 48.7363 17.5362C50.0596 17.5362 51.1016 17.1216 51.751 16.3365C52.4079 15.5417 52.6177 14.4217 52.3576 13.0974ZM61.4806 34.4556C61.3965 34.3979 61.3055 34.3507 61.2098 34.3152C61.5273 32.9661 61.6942 31.8195 61.7062 30.9007C61.7243 29.5155 61.4488 28.6648 60.8642 28.3003C60.7456 28.2258 60.6146 28.1735 60.4773 28.1459C60.2794 26.7511 59.9026 25.4066 59.3544 24.1421C58.3471 21.8195 57.0931 20.5253 57.0804 20.5124L57.0668 20.499C55.3924 18.9167 54.2042 18.3469 53.534 18.8026C52.799 19.3027 53.1743 20.5534 53.6386 21.7108C55.2807 25.8052 56.3333 31.1946 52.0527 38.4128C52.2005 38.7863 52.2851 39.1819 52.303 39.5832C52.308 39.6978 52.3058 39.8125 52.2965 39.9267C57.5193 31.8539 56.377 25.8542 54.566 21.3389C54.1183 20.2226 54.1033 19.7887 54.1201 19.6476C54.461 19.6907 55.3915 20.2929 56.3707 21.2162C56.4611 21.3125 57.5527 22.4998 58.4376 24.5395C59.0056 25.85 59.3773 27.2543 59.5424 28.7132C59.5506 28.7864 59.5749 28.8569 59.6136 28.9196C59.6523 28.9823 59.7044 29.0357 59.7661 29.0759C59.8279 29.1161 59.8978 29.1421 59.9708 29.1521C60.0438 29.1621 60.1181 29.1559 60.1884 29.1338C60.2712 29.1075 60.3173 29.1368 60.335 29.1477C60.4003 29.1886 60.7254 29.464 60.7067 30.8874C60.6941 31.859 60.4886 33.1284 60.0956 34.6606C60.0482 34.8458 60.1097 35.042 60.2552 35.1657C60.4006 35.2895 60.6034 35.3196 60.7785 35.243C60.7794 35.243 60.8376 35.2264 60.9151 35.2795C61.2346 35.4988 61.4535 36.5658 60.2467 39.1741C59.195 41.4474 57.7914 42.9401 56.7993 43.7916C56.7182 43.8612 56.6615 43.9549 56.6376 44.059C56.6137 44.1631 56.6238 44.2721 56.6663 44.3701C56.7089 44.468 56.7818 44.5498 56.8742 44.6033C56.9667 44.6568 57.0738 44.6793 57.18 44.6674C57.2806 44.656 57.3976 44.671 57.4847 44.7063C57.6234 44.7627 57.6298 44.8275 57.6323 44.852C57.6394 44.9233 57.638 45.5902 55.4182 47.0592C53.3023 48.4595 50.4008 48.7922 48.3397 48.8244H48.3337C48.057 49.223 47.6913 49.563 47.2736 49.8162C47.5069 49.8229 47.7403 49.8265 47.9737 49.8267C48.0991 49.8267 48.2265 49.8257 48.3553 49.8237C50.5499 49.7892 53.6522 49.4261 55.9697 47.8926C57.845 46.6516 58.7141 45.6242 58.6264 44.7525C58.5925 44.4112 58.4154 44.1208 58.1292 43.9241C59.0998 42.9663 60.2497 41.5479 61.1538 39.5937C62.71 36.2296 62.1905 34.9429 61.4806 34.4556ZM24.2359 20.3033C23.7893 20.3033 23.4869 20.0392 23.279 19.8577C23.1851 19.7757 23.0962 19.6981 23.0159 19.6585C22.6358 19.4709 22.1334 19.4673 21.6018 19.4635C21.2783 19.4612 20.9441 19.4589 20.6182 19.4133C19.3844 19.2412 18.4357 18.5595 18.0148 17.5429C17.5661 16.4598 17.7797 15.1763 18.5854 14.1094C18.7089 13.9458 18.8385 13.7959 18.9639 13.651C19.219 13.356 19.4601 13.0772 19.5894 12.7457C19.6201 12.6673 19.6358 12.5768 19.6541 12.4721C19.6929 12.2482 19.7465 11.9414 19.9932 11.6569C20.5422 11.0233 21.1247 11.0861 21.5928 11.1369C21.7037 11.1489 21.8185 11.1613 21.9364 11.1665C22.4814 11.1927 22.9654 10.8948 23.5227 10.5522C24.0819 10.2084 24.7156 9.8187 25.4872 9.7753C26.4421 9.71991 27.1524 10.1054 27.7785 10.4443C28.0746 10.6046 28.356 10.7568 28.6536 10.863C28.9405 10.8534 29.3424 10.9798 29.8421 11.2363C30.3596 11.502 31.5881 12.2466 31.8184 13.4179C32.0798 14.7487 30.8375 15.5539 30.4294 15.8184C29.7523 16.2572 29.0262 16.7496 28.3053 17.3749C27.8542 17.7662 27.3602 18.0384 26.8824 18.302C26.4246 18.5544 25.9923 18.7928 25.6301 19.1168C25.5816 19.1602 25.4839 19.3098 25.4126 19.4191C25.1794 19.7758 24.8894 20.2198 24.4087 20.2903C24.3487 20.2992 24.2912 20.3033 24.2359 20.3033ZM21.1577 12.1051C20.9745 12.1051 20.8848 12.1539 20.7484 12.3113C20.6863 12.3831 20.669 12.4697 20.6386 12.6436C20.6159 12.7744 20.5876 12.9374 20.5205 13.1091C20.3285 13.6008 20.019 13.9585 19.7199 14.3046C19.5999 14.4435 19.4865 14.5745 19.383 14.7117C18.7929 15.4929 18.6267 16.4083 18.9382 17.1606C19.2243 17.8513 19.87 18.2997 20.7564 18.4235C21.017 18.4599 21.3045 18.462 21.6091 18.464C22.2303 18.4684 22.8726 18.473 23.4585 18.7624C23.6556 18.8597 23.8048 18.9901 23.9366 19.105C24.1187 19.264 24.1811 19.307 24.2454 19.3034C24.3326 19.2453 24.4899 19.0045 24.576 18.8726C24.7001 18.6827 24.8173 18.5034 24.964 18.3722C25.4106 17.9725 25.9135 17.6952 26.4002 17.427C26.8523 17.1776 27.2794 16.9422 27.6509 16.6201C28.4179 15.9549 29.1785 15.4387 29.8862 14.98C30.6352 14.4945 30.9289 14.0722 30.8381 13.6106C30.6469 12.6376 29.0719 11.9102 28.7016 11.8619C28.618 11.8788 28.5314 11.8742 28.45 11.8486C28.0253 11.714 27.6582 11.5152 27.3031 11.3231C26.7201 11.0076 26.2153 10.7341 25.5439 10.7729C25.0243 10.8023 24.5493 11.0942 24.0464 11.4035C23.4371 11.7779 22.7477 12.2006 21.8927 12.1649C21.7567 12.1579 21.6209 12.1463 21.4856 12.1304C21.3469 12.1155 21.2423 12.1051 21.1577 12.1051ZM26.5445 52.0081C23.4304 51.7934 20.4135 51.24 17.5359 50.3525C14.2036 49.3246 12.1259 47.0686 11.3604 43.647C10.6481 40.4629 10.8249 37.3345 11.2432 34.3691C10.909 34.3639 10.575 34.3483 10.2418 34.3222C9.83392 37.2823 9.65019 40.5797 10.3851 43.8651C11.2347 47.6622 13.5414 50.1661 17.2414 51.3074C20.5496 52.3277 24.0357 52.9163 27.6385 53.0683C27.1963 52.8067 26.824 52.4416 26.5445 52.0081Z" fill="#353538"/>
<path d="M52.5211 37.0602C51.8683 30.5045 50.3994 24.0084 48.1558 17.7523C46.1448 12.1455 43.1504 7.91198 39.0019 4.81027C33.9886 1.06229 28.4659 1.06329 23.4515 4.81298C19.8089 7.53653 17.0165 11.1712 15.1514 15.6159C13.2965 20.0369 11.9108 24.8958 10.8267 30.7901C10.9708 30.7963 11.115 30.801 11.2596 30.8027C11.4513 30.804 11.6416 30.8341 11.8243 30.8921C12.8928 25.1057 14.2547 20.336 16.073 16.0024C17.8681 11.7239 20.5519 8.22848 24.0499 5.613C26.3649 3.88206 28.7969 3.01651 31.229 3.01651C33.6597 3.01651 36.0905 3.8812 38.4036 5.61043C42.3902 8.59108 45.2725 12.673 47.2152 18.0895C49.4314 24.2687 50.8821 30.6846 51.5269 37.159C51.7566 39.4654 51.5682 41.8211 50.9667 44.1603C50.2091 47.107 48.3728 49.0942 45.3529 50.2354C42.5663 51.2887 39.5646 51.8781 36.0458 52.0467C35.8571 52.4343 35.5877 52.7832 35.2635 53.073C39.2454 52.9552 42.6025 52.3434 45.7062 51.1702C49.0062 49.9229 51.1018 47.6482 51.9346 44.4092C52.5652 41.9563 52.7626 39.4837 52.5211 37.0602Z" fill="#353538"/>
<path d="M24.7076 17.3501C23.6185 17.3501 22.7324 16.3284 22.7324 15.0725C22.7324 13.8165 23.6185 12.7948 24.7076 12.7948C25.7967 12.7948 26.6828 13.8165 26.6828 15.0725C26.6828 16.3282 25.7967 17.3501 24.7076 17.3501ZM24.7076 13.794C24.1694 13.794 23.7317 14.3676 23.7317 15.0724C23.7317 15.7772 24.1694 16.3506 24.7076 16.3506C25.2458 16.3506 25.6835 15.7772 25.6835 15.0724C25.6835 14.3676 25.2458 13.794 24.7076 13.794ZM37.7939 17.3501C36.7046 17.3501 35.8185 16.3284 35.8185 15.0725C35.8185 13.8165 36.7046 12.7948 37.7939 12.7948C38.883 12.7948 39.7691 13.8165 39.7691 15.0725C39.7691 16.3282 38.883 17.3501 37.7939 17.3501ZM37.7939 13.794C37.2557 13.794 36.8178 14.3676 36.8178 15.0724C36.8178 15.7772 37.2557 16.3506 37.7939 16.3506C38.3321 16.3506 38.7697 15.7772 38.7697 15.0724C38.7697 14.3676 38.3321 13.794 37.7939 13.794Z" fill="#353538"/>
<path d="M30.8235 18.7492C31.3929 18.7492 31.8545 18.3661 31.8545 17.8936C31.8545 17.4211 31.3929 17.0381 30.8235 17.0381C30.2541 17.0381 29.7925 17.4211 29.7925 17.8936C29.7925 18.3661 30.2541 18.7492 30.8235 18.7492Z" fill="#353538"/>
<path d="M32.4859 19.2791H32.4782C32.0927 19.2874 31.6069 19.1612 31.2996 18.1403C31.297 18.132 31.2927 18.1249 31.2899 18.1168C31.283 18.0966 31.2748 18.0769 31.2653 18.0578C31.2606 18.0484 31.2552 18.0397 31.2499 18.0307C31.2383 18.0107 31.2254 17.9916 31.2112 17.9733C31.2064 17.9672 31.2012 17.9615 31.1961 17.9556C31.1794 17.9362 31.1612 17.9182 31.1417 17.9016C31.138 17.8985 31.1341 17.8956 31.1303 17.8926C31.1086 17.8753 31.0855 17.8599 31.0612 17.8465L31.0516 17.8417C31.0271 17.8288 31.0016 17.8181 30.9752 17.8097C30.9694 17.8078 30.9634 17.8064 30.9574 17.8047C30.9342 17.798 30.9105 17.7931 30.8866 17.79C30.8732 17.7881 30.8597 17.788 30.846 17.7873C30.8335 17.7867 30.8215 17.7843 30.8086 17.7847C30.8031 17.7849 30.7981 17.7864 30.7925 17.7867C30.7761 17.7877 30.7599 17.7903 30.7435 17.7929C30.7262 17.7952 30.7091 17.7985 30.6921 17.8027C30.6871 17.804 30.682 17.8041 30.677 17.8056C30.6669 17.8086 30.658 17.8138 30.6483 17.8174C30.6317 17.8233 30.6155 17.83 30.5996 17.8377C30.5849 17.845 30.5714 17.8534 30.5577 17.8618C30.5441 17.87 30.531 17.8789 30.5184 17.8884C30.5051 17.8988 30.4923 17.9099 30.4801 17.9216C30.4691 17.9319 30.4584 17.9426 30.4483 17.9537C30.4373 17.9663 30.4273 17.9794 30.4176 17.9929C30.4084 18.0054 30.3997 18.0184 30.3916 18.0317C30.3837 18.0457 30.3763 18.06 30.3696 18.0747C30.3628 18.0891 30.3566 18.1038 30.3511 18.1188C30.3455 18.1345 30.3414 18.1506 30.3374 18.1669C30.3338 18.1817 30.3302 18.1966 30.3281 18.212C30.3257 18.2302 30.3243 18.2485 30.324 18.2668C30.3237 18.2768 30.3215 18.2864 30.3217 18.2965C30.3275 18.5312 30.3414 19.0808 29.0771 19.285C28.9475 19.3074 28.832 19.3801 28.7556 19.4872C28.6793 19.5942 28.6482 19.7271 28.6692 19.8569C28.6901 19.9868 28.7615 20.1031 28.8677 20.1807C28.9739 20.2583 29.1064 20.2909 29.2364 20.2714C30.0636 20.1379 30.5704 19.8474 30.877 19.512C31.3535 20.1192 31.9578 20.2781 32.4575 20.2781L32.4935 20.2779C32.5591 20.2769 32.6239 20.263 32.6841 20.2369C32.7443 20.2109 32.7989 20.1733 32.8446 20.1262C32.8903 20.0791 32.9262 20.0234 32.9504 19.9624C32.9746 19.9014 32.9866 19.8362 32.9855 19.7706C32.9834 19.6395 32.9298 19.5146 32.8363 19.4226C32.7429 19.3307 32.617 19.2791 32.4859 19.2791ZM40.4418 34.981C40.4381 34.7177 40.4361 34.4544 40.4357 34.1911C40.4357 34.0586 40.383 33.9315 40.2893 33.8378C40.1956 33.7441 40.0685 33.6914 39.936 33.6914C39.8035 33.6914 39.6764 33.7441 39.5827 33.8378C39.489 33.9315 39.4364 34.0586 39.4364 34.1911C39.4364 34.4775 39.4395 34.7415 39.4425 34.9929C39.4508 35.6685 39.4576 36.2519 39.3961 36.925C38.9364 41.9397 37.9283 46.1694 36.3135 49.8557C36.2173 50.0752 36.1548 50.2954 36.0941 50.5084C36.0332 50.7225 35.9756 50.9248 35.8914 51.0954L35.8015 51.2788C35.5476 51.7976 35.2851 52.3341 34.9379 52.7445C34.352 53.437 33.8184 53.7859 33.3063 53.8115C32.8238 53.8342 32.2862 53.5737 31.67 53.014L31.755 43.5265C31.7556 43.4609 31.7432 43.3958 31.7186 43.3349C31.6941 43.2741 31.6578 43.2187 31.6118 43.1719C31.5658 43.1251 31.511 43.0878 31.4506 43.0621C31.3902 43.0365 31.3254 43.023 31.2597 43.0224H31.2552C31.1235 43.0225 30.9971 43.0745 30.9036 43.1673C30.81 43.26 30.7569 43.3859 30.7557 43.5176L30.6709 52.9916C29.5629 53.8876 29.0357 53.8359 27.9122 52.8222C26.2651 51.3359 25.4877 49.3217 24.9945 47.7331C23.5515 43.0861 23.213 38.7147 23.0626 34.6829C23.0601 34.6173 23.0448 34.5528 23.0174 34.4932C22.99 34.4336 22.9512 34.3799 22.9031 34.3352C22.855 34.2906 22.7985 34.2559 22.737 34.2331C22.6755 34.2102 22.6101 34.1998 22.5445 34.2022C22.4789 34.2047 22.4145 34.22 22.3548 34.2474C22.2952 34.2747 22.2415 34.3136 22.1969 34.3617C22.1522 34.4098 22.1175 34.4662 22.0947 34.5278C22.0719 34.5893 22.0614 34.6547 22.0638 34.7203C22.2171 38.8209 22.5626 43.2712 24.0402 48.0295C24.5714 49.74 25.4154 51.9151 27.243 53.5642C28.6891 54.8692 29.7164 54.9741 31.1485 53.8867C31.8763 54.5084 32.5657 54.8127 33.2437 54.8127C33.2813 54.8127 33.3186 54.8117 33.3562 54.8098C34.1596 54.77 34.9266 54.3056 35.701 53.3904C36.1284 52.8851 36.4186 52.292 36.6993 51.7184L36.7878 51.5376C36.9121 51.2857 36.9849 51.0296 37.0553 50.782C37.1091 50.593 37.1599 50.4143 37.229 50.2568C38.8873 46.4707 39.9217 42.1397 40.3913 37.0164C40.4575 36.2918 40.4502 35.6843 40.4418 34.981Z" fill="#353538"/>
</svg>
