<svg width="15" height="6" viewBox="0 0 15 6" fill="none" xmlns="http://www.w3.org/2000/svg">
<path d="M8.87514e-05 5.00446C-0.000425281 4.87639 0.0329371 4.74984 0.0977212 4.63412C0.162506 4.51841 0.257069 4.41646 0.374459 4.33577L6.44531 0.195025C6.62636 0.068932 6.85345 -1.94e-08 7.08781 -1.87783e-08C7.32217 -1.81566e-08 7.54927 0.068932 7.73031 0.195025L13.8012 4.48151C14.0078 4.62703 14.1377 4.83613 14.1624 5.06282C14.1871 5.28951 14.1044 5.51522 13.9327 5.6903C13.761 5.86537 13.5142 5.97547 13.2466 5.99637C12.9791 6.01727 12.7127 5.94726 12.5061 5.80175L7.08275 1.96963L1.65946 5.67315C1.51094 5.77799 1.33009 5.84458 1.1383 5.86505C0.946512 5.88552 0.751815 5.85902 0.577251 5.78867C0.402685 5.71832 0.255557 5.60708 0.153273 5.4681C0.0509892 5.32913 -0.00216955 5.16823 8.87514e-05 5.00446Z" fill="#2C8BE7"/>
</svg>
