<svg width="26" height="26" viewBox="0 0 26 26" fill="none" xmlns="http://www.w3.org/2000/svg">
<path d="M0.541492 19.5C0.446636 19.5 0.353452 19.475 0.271261 19.4277C0.18907 19.3803 0.120756 19.3122 0.0731516 19.2302C0.0255476 19.1481 0.000323595 19.055 3.09284e-06 18.9602C-0.000317409 18.8653 0.0242769 18.772 0.0713253 18.6897C2.30624 14.7723 3.34733 11.0197 3.34733 6.87917V3.88917C3.34733 1.74417 5.09258 0 7.23649 0H10.584C11.8168 0 12.9543 0.567667 13.7029 1.55783L14.2012 2.21867C14.4619 2.56799 14.8004 2.85178 15.1898 3.04753C15.5793 3.24329 16.009 3.34562 16.4448 3.34642H17.279C18.5032 3.34642 19.4998 4.34308 19.4998 5.56725V6.20642C19.4998 7.03842 19.021 7.81517 18.28 8.18567L13.8817 10.3848C13.7287 10.4602 13.595 10.5697 13.4911 10.705C13.3873 10.8402 13.3159 10.9976 13.2826 11.1648C13.2546 11.3058 13.1717 11.4298 13.0523 11.5096C12.9328 11.5895 12.7865 11.6186 12.6456 11.5906C12.5046 11.5626 12.3806 11.4797 12.3008 11.3603C12.2209 11.2408 12.1918 11.0945 12.2198 10.9536C12.285 10.6243 12.425 10.3144 12.629 10.0479C12.8329 9.78132 13.0955 9.56524 13.3963 9.41633L17.7947 7.21717C18.1727 7.02867 18.4165 6.63325 18.4165 6.2075V5.56833C18.4165 4.93025 17.9171 4.43083 17.279 4.43083H16.4448C15.225 4.43083 14.0615 3.84692 13.3335 2.86975L12.8373 2.21217C12.576 1.86113 12.236 1.57619 11.8447 1.38017C11.4534 1.18414 11.0216 1.08248 10.584 1.08333H7.23649C6.4926 1.08419 5.77943 1.38008 5.25342 1.90609C4.72741 2.4321 4.43152 3.14528 4.43066 3.88917V6.87917C4.43066 11.2157 3.34408 15.1396 1.01166 19.2259C0.964699 19.3092 0.896389 19.3786 0.813754 19.4267C0.731119 19.4749 0.637143 19.5002 0.541492 19.5Z" fill="#B58111"/>
<path d="M7.23898 10.8333C6.71248 10.8333 6.2239 10.5267 5.9964 10.0511L3.40181 4.66696C3.37094 4.60287 3.35299 4.53333 3.349 4.4623C3.345 4.39128 3.35504 4.32016 3.37853 4.25301C3.42597 4.1174 3.52533 4.00619 3.65477 3.94384C3.78421 3.88149 3.93311 3.87311 4.06872 3.92055C4.20433 3.96799 4.31555 4.06736 4.3779 4.1968L6.97248 9.58205C7.05481 9.7543 7.50765 9.76946 7.53256 9.48238L8.37323 0.565463C8.37846 0.494164 8.39804 0.424656 8.4308 0.36111C8.46355 0.297564 8.50881 0.241289 8.56384 0.195661C8.61888 0.150034 8.68257 0.115993 8.75108 0.0955817C8.8196 0.0751704 8.89153 0.0688091 8.96256 0.0768795C9.10546 0.0903318 9.23719 0.159953 9.32879 0.270452C9.4204 0.380951 9.46441 0.523292 9.45115 0.666213L8.61156 9.58205C8.5814 9.92475 8.42355 10.2436 8.16931 10.4754C7.91506 10.7071 7.583 10.8349 7.23898 10.8333ZM18.9585 26C18.8418 26 18.7282 25.9624 18.6346 25.8927C18.3605 25.688 11.9168 20.8335 11.9168 16.9325C11.9187 16.1132 12.1761 15.315 12.6531 14.649C13.1302 13.983 13.8031 13.4824 14.5781 13.2169C15.3532 12.9515 16.1917 12.9345 16.9769 13.1682C17.7621 13.402 18.4548 13.8749 18.9585 14.521C19.4622 13.8749 20.1549 13.402 20.94 13.1682C21.7252 12.9345 22.5638 12.9515 23.3388 13.2169C24.1139 13.4824 24.7868 13.983 25.2638 14.649C25.7409 15.315 25.9983 16.1132 26.0001 16.9325C26.0001 20.8335 19.5565 25.688 19.2824 25.8927C19.1888 25.9624 19.0752 26 18.9585 26ZM15.8493 14.0833C14.2785 14.0833 13.0001 15.3616 13.0001 16.9325C13.0001 19.565 17.0334 23.2689 18.9585 24.7758C20.8825 23.2678 24.9168 19.5617 24.9168 16.9325C24.9168 15.3616 23.6385 14.0833 22.0676 14.0833C21.513 14.0823 20.9701 14.2437 20.506 14.5474C20.0419 14.8512 19.6768 15.2841 19.4557 15.7928C19.2846 16.1882 18.6335 16.1882 18.4623 15.7928C18.2408 15.2842 17.8754 14.8514 17.4112 14.5477C16.947 14.244 16.4041 14.0825 15.8493 14.0833Z" fill="#B58111"/>
</svg>
