<svg width="34" height="34" viewBox="0 0 34 34" fill="none" xmlns="http://www.w3.org/2000/svg">
<path d="M33.3333 16.6667C33.3333 7.46196 25.8714 4.19617e-05 16.6667 4.19617e-05C7.46192 4.19617e-05 0 7.46196 0 16.6667C0 25.8715 7.46192 33.3334 16.6667 33.3334C25.8714 33.3334 33.3333 25.8715 33.3333 16.6667Z" fill="#F8F8F8"/>
<path d="M10.3684 18.2809H13.4584V25.4809C13.4584 27.1609 14.3684 27.5009 15.4784 26.2409L23.0484 17.6409C23.9784 16.5909 23.5884 15.7209 22.1784 15.7209H19.0884V8.52087C19.0884 6.84087 18.1784 6.50087 17.0684 7.76087L9.49842 16.3609C8.57842 17.4209 8.96842 18.2809 10.3684 18.2809Z" stroke="#202020" stroke-width="1.5" stroke-miterlimit="10" stroke-linecap="round" stroke-linejoin="round"/>
</svg>
