<svg width="168" height="175" viewBox="0 0 168 175" fill="none" xmlns="http://www.w3.org/2000/svg">
<g clip-path="url(#clip0_3923_143)">
<rect width="168" height="175" rx="19" fill="#E8F5FF"/>
<g opacity="0.5" clip-path="url(#clip1_3923_143)">
<path d="M156.222 154.793C156.761 154.157 157.105 153.379 157.214 152.552C157.68 149.641 156.779 146.637 154.919 144.901C154.624 144.592 154.259 144.358 153.855 144.218C153.451 144.079 153.019 144.039 152.597 144.101C152.423 144.136 152.255 144.194 152.097 144.275C151.607 144.547 151.227 144.981 151.023 145.503C150.573 146.55 150.34 147.677 150.338 148.816C150.335 149.955 150.563 151.083 151.008 152.132C151.608 153.537 152.72 154.66 154.119 155.274C154.475 155.431 154.871 155.468 155.25 155.382C155.629 155.295 155.97 155.089 156.222 154.793ZM149.243 158.883C151.074 157.415 150.16 154.524 149.333 153.047C148.426 151.455 146.977 150.243 145.25 149.631C144.344 149.243 143.321 149.229 142.404 149.592L142.387 149.601C142.14 149.735 141.924 149.921 141.754 150.145C141.585 150.37 141.465 150.628 141.403 150.903C140.543 154.087 143.637 157.262 145.927 158.622C146.708 159.086 148.178 159.732 149.243 158.883ZM142.234 160.525C141.615 160.381 140.967 160.436 140.382 160.682C140.137 160.806 139.93 160.993 139.782 161.224C139.032 162.384 139.51 164.067 140.147 165.156C140.872 166.372 141.978 167.315 143.293 167.839C144.724 168.416 146.495 168.376 147.227 166.994C147.823 165.866 147.396 164.438 146.796 163.475C145.964 162.225 144.735 161.291 143.307 160.824C142.958 160.694 142.599 160.594 142.234 160.525ZM166.324 152.285C166.005 151.107 165.027 149.684 163.945 149.343C163.743 149.276 163.53 149.251 163.319 149.27C163.107 149.288 162.902 149.349 162.714 149.449C162.569 149.525 162.432 149.617 162.307 149.723C162.042 149.946 161.801 150.196 161.59 150.471C160.585 151.849 160.131 153.552 160.317 155.247C160.446 156.443 161.047 158.035 162.311 158.584C162.587 158.694 162.883 158.749 163.18 158.744C163.477 158.74 163.77 158.676 164.043 158.557C166.243 157.712 166.863 154.28 166.324 152.285ZM153.269 174.796C154.152 174.501 154.97 174.042 155.683 173.443C155.822 173.338 155.959 173.23 156.099 173.121C156.692 172.628 157.329 172.189 158.001 171.811L158.035 171.794C159.469 171.171 161.015 170.85 162.578 170.849C162.905 170.828 163.231 170.805 163.557 170.777C164.979 170.655 166.789 170.205 167.344 168.76C168.076 166.858 166.308 164.902 165.189 163.905C163.61 162.557 161.791 161.518 159.827 160.845C158.7 160.43 157.535 160.125 156.349 159.935L156.077 159.89C155.029 159.716 153.841 159.516 152.931 160.142C152.048 160.865 151.404 161.837 151.082 162.932C150.226 165.232 149.702 167.642 149.527 170.09L149.523 170.16C149.442 170.956 149.466 171.759 149.593 172.549C149.708 173.283 150.086 173.95 150.657 174.426C151.035 174.684 151.467 174.851 151.92 174.915C152.373 174.98 152.834 174.939 153.269 174.796Z" fill="#4F9ED6"/>
</g>
<g opacity="0.3" filter="url(#filter0_f_3923_143)">
<circle cx="15" cy="17" r="17" fill="#70BBFC"/>
</g>
<g opacity="0.3" filter="url(#filter1_f_3923_143)">
<circle cx="165" cy="47" r="17" fill="#70BBFC"/>
</g>
<g opacity="0.3" filter="url(#filter2_f_3923_143)">
<circle cx="18" cy="160" r="23" fill="#70BBFC"/>
</g>
</g>
<defs>
<filter id="filter0_f_3923_143" x="-31.2" y="-29.2" width="92.4" height="92.4" filterUnits="userSpaceOnUse" color-interpolation-filters="sRGB">
<feFlood flood-opacity="0" result="BackgroundImageFix"/>
<feBlend mode="normal" in="SourceGraphic" in2="BackgroundImageFix" result="shape"/>
<feGaussianBlur stdDeviation="14.6" result="effect1_foregroundBlur_3923_143"/>
</filter>
<filter id="filter1_f_3923_143" x="118.8" y="0.799999" width="92.4" height="92.4" filterUnits="userSpaceOnUse" color-interpolation-filters="sRGB">
<feFlood flood-opacity="0" result="BackgroundImageFix"/>
<feBlend mode="normal" in="SourceGraphic" in2="BackgroundImageFix" result="shape"/>
<feGaussianBlur stdDeviation="14.6" result="effect1_foregroundBlur_3923_143"/>
</filter>
<filter id="filter2_f_3923_143" x="-44.5059" y="97.4941" width="125.012" height="125.012" filterUnits="userSpaceOnUse" color-interpolation-filters="sRGB">
<feFlood flood-opacity="0" result="BackgroundImageFix"/>
<feBlend mode="normal" in="SourceGraphic" in2="BackgroundImageFix" result="shape"/>
<feGaussianBlur stdDeviation="19.7529" result="effect1_foregroundBlur_3923_143"/>
</filter>
<clipPath id="clip0_3923_143">
<rect width="168" height="175" rx="19" fill="white"/>
</clipPath>
<clipPath id="clip1_3923_143">
<rect width="36.9503" height="36.9503" fill="white" transform="translate(129 151.896) rotate(-27.2098)"/>
</clipPath>
</defs>
</svg>
