<svg width="17" height="18" viewBox="0 0 17 18" fill="none" xmlns="http://www.w3.org/2000/svg">
<path d="M13.8329 6.08572C14.523 6.08619 15.1942 5.86747 15.7432 5.46321C16.2921 5.05895 16.6884 4.49155 16.8711 3.84831C17.0538 3.20508 17.0128 2.52164 16.7543 1.90317C16.4958 1.2847 16.0342 0.765448 15.4405 0.42532C14.8468 0.0851925 14.1539 -0.05697 13.4684 0.0207065C12.783 0.0983829 12.1429 0.391594 11.6467 0.855226C11.1506 1.31886 10.8258 1.92722 10.7223 2.58671C10.6188 3.2462 10.7425 3.92028 11.0741 4.50523L5.62824 7.24969C5.22758 6.75197 4.67669 6.38699 4.05187 6.2053C3.42706 6.0236 2.75925 6.03419 2.14094 6.2356C1.52264 6.437 0.984432 6.81926 0.600877 7.32941C0.217323 7.83956 0.00740224 8.45237 0.000192153 9.08295C-0.00701793 9.71353 0.188839 10.3307 0.560635 10.8489C0.932431 11.3671 1.46176 11.7608 2.07532 11.9753C2.68887 12.1899 3.35627 12.2147 3.98509 12.0464C4.6139 11.8781 5.173 11.525 5.58495 11.036L10.9454 13.7296C10.6254 14.4404 10.5972 15.2423 10.8665 15.9725C11.1359 16.7026 11.6825 17.3064 12.3956 17.6613C13.1087 18.0162 13.9348 18.0956 14.7062 17.8834C15.4777 17.6711 16.1367 17.1832 16.5495 16.5186C16.9623 15.8539 17.0981 15.0624 16.9292 14.3046C16.7603 13.5468 16.2994 12.8794 15.64 12.438C14.9807 11.9966 14.1723 11.8142 13.3789 11.9277C12.5854 12.0413 11.8664 12.4424 11.3678 13.0495L6.01677 10.3607C6.19424 9.97967 6.28838 9.56731 6.29328 9.14946C6.29817 8.73162 6.21373 8.3173 6.04523 7.93246L11.566 5.15023C11.8589 5.44604 12.2108 5.68143 12.6004 5.84221C12.99 6.00299 13.4092 6.08582 13.8329 6.08572Z" fill="#673BB8"/>
</svg>
