<svg width="25" height="13" viewBox="0 0 25 13" fill="none" xmlns="http://www.w3.org/2000/svg">
<path d="M6.63791 12.0892C3.41161 12.0885 1.02333 9.86833 0.786393 7.03583C0.541765 4.10521 2.45756 1.48828 5.2589 0.996262C7.12786 0.66825 8.76617 1.20109 10.1172 2.57759C12.2825 4.78272 14.4332 7.00145 16.5964 9.20872C18.0033 10.644 20.1421 10.7757 21.6658 9.53387C22.9316 8.50257 23.4173 6.7515 22.8708 5.18879C22.3228 3.6225 20.8683 2.59478 19.2447 2.62414C18.2382 2.64205 17.3771 3.01804 16.6558 3.72993C16.3105 4.07083 15.9778 4.42534 15.636 4.77054C15.2614 5.14797 14.7358 5.16301 14.401 4.81065C14.0725 4.46402 14.083 3.93118 14.452 3.56664C15.0168 3.00945 15.5438 2.39353 16.1777 1.93303C19.5103 -0.4891 24.1344 1.57995 24.7111 5.7245C25.0382 8.07429 23.8653 10.3954 21.8028 11.4783C19.7248 12.569 17.1919 12.2067 15.5298 10.5301C13.3177 8.29774 11.1356 6.03389 8.93532 3.78937C7.59965 2.42719 5.5902 2.23311 4.0749 3.30523C2.27513 4.57932 1.89701 7.16187 3.25504 8.90578C4.63964 10.6841 7.17958 10.8875 8.79972 9.34265C9.17645 8.98384 9.52942 8.59925 9.89636 8.22898C10.2703 7.85227 10.7959 7.83723 11.1307 8.1896C11.4592 8.53479 11.441 9.06119 11.0811 9.43575C10.726 9.8053 10.3723 10.1756 10.0061 10.5322C8.9479 11.565 7.68212 12.0777 6.63721 12.0892H6.63791Z" fill="#FFA915"/>
</svg>
