<svg width="24" height="24" viewBox="0 0 24 24" fill="none" xmlns="http://www.w3.org/2000/svg">
<mask id="mask0_2360_39" style="mask-type:luminance" maskUnits="userSpaceOnUse" x="0" y="0" width="24" height="24">
<path d="M0 1.90735e-06H24V24H0V1.90735e-06Z" fill="white"/>
</mask>
<g mask="url(#mask0_2360_39)">
<path d="M17.9152 3.7462V2.01825L6.08481 2.0182V3.74611C6.08481 6.47526 7.39881 9.0607 9.66039 10.7205C10.0686 11.0202 10.3125 11.4939 10.3125 12.0003C10.3125 12.5056 10.0701 12.9794 9.66264 13.2783C7.35264 14.9729 6.08472 17.5807 6.08472 20.2539V21.9818L17.9151 21.9819V20.254C17.9151 17.5849 16.6507 14.9757 14.337 13.2783C13.9296 12.9794 13.6874 12.5056 13.6874 12.0004C13.6874 11.4939 13.9315 11.0202 14.3397 10.7205C16.5961 9.06422 17.9152 6.4814 17.9152 3.7462Z" fill="#D8ECFE"/>
<path d="M14.3397 10.7205C16.5961 9.06422 17.9151 6.48136 17.9151 3.7462V2.01825L6.08484 2.0182L15.9804 2.01825V3.7462C15.9804 6.48136 14.6614 9.06422 12.405 10.7205C11.9967 11.0202 11.7527 11.4939 11.7527 12.0004V12.0004C11.7527 12.5056 11.9949 12.9794 12.4023 13.2782C14.716 14.9756 15.9803 17.5848 15.9803 20.254V21.9819L17.9151 21.9819V20.254C17.9151 17.5848 16.6507 14.9756 14.337 13.2782C13.9296 12.9794 13.6874 12.5057 13.6874 12.0004V12.0004C13.6874 11.4939 13.9314 11.0202 14.3397 10.7205Z" fill="#353538" fill-opacity="0.1"/>
<path d="M7.44983 20.5931V20.3633C7.44983 19.2206 8.04083 18.1391 9.09416 17.2723C9.91452 16.5971 10.9447 16.2415 11.9999 16.2415C13.0551 16.2415 14.0854 16.5971 14.9057 17.2723C15.9591 18.1392 16.5501 19.2207 16.5501 20.3633V20.5931H7.44983Z" fill="#2C8BE7"/>
<path d="M5.76631 2.01819H18.2337C18.6861 2.01819 19.0527 1.64511 19.0527 1.18489C19.0527 0.724673 18.6861 0.351595 18.2337 0.351595H5.76631C5.31397 0.351595 4.94727 0.72472 4.94727 1.18499C4.94731 1.64516 5.31402 2.01819 5.76631 2.01819Z" fill="#596C76"/>
<path d="M5.76631 23.6484H18.2337C18.6861 23.6484 19.0527 23.2754 19.0527 22.8152C19.0527 22.3549 18.6861 21.9818 18.2337 21.9818H5.76631C5.31397 21.9818 4.94727 22.355 4.94727 22.8152C4.94731 23.2754 5.31402 23.6484 5.76631 23.6484Z" fill="#596C76"/>
<path d="M7.52905 5.00004C7.75462 6.50258 8.45479 7.88843 9.53019 8.98301C10.1845 9.64897 11.0745 10.0197 12 10.0197C12.9255 10.0197 13.8155 9.64897 14.4698 8.98306C15.5452 7.88858 16.2453 6.50267 16.4709 5.00004H7.52905Z" fill="#2C8BE7"/>
<path d="M18.2338 0.351595H15.842C16.2944 0.351595 16.6611 0.724673 16.6611 1.18489C16.6611 1.64511 16.2944 2.01819 15.842 2.01819H18.2338C18.6861 2.01819 19.0528 1.64511 19.0528 1.18489C19.0528 0.724673 18.6861 0.351595 18.2338 0.351595Z" fill="#465A61"/>
<path d="M18.2338 21.982H15.842C16.2944 21.982 16.6611 22.355 16.6611 22.8152C16.6611 23.2755 16.2944 23.6486 15.842 23.6486H18.2338C18.6861 23.6486 19.0528 23.2755 19.0528 22.8152C19.0528 22.355 18.6861 21.982 18.2338 21.982Z" fill="#465A61"/>
<path d="M15.693 18.0658C15.8828 18.7786 15.9804 19.514 15.9804 20.254V20.5931H16.5501V20.3633C16.5501 19.5476 16.2486 18.7633 15.693 18.0658Z" fill="#2C8BE7"/>
<path d="M15.9133 4.80888C15.7124 6.4015 15.0643 7.9045 14.0483 9.15625C14.1972 9.04698 14.3384 8.92562 14.4699 8.79189C15.5453 7.69741 16.2454 6.3115 16.471 4.80888H15.9133Z" fill="#2C8BE7"/>
<path d="M7.44983 20.7843V20.5545C7.44983 19.4118 8.04083 18.3303 9.09416 17.4634C9.91452 16.7883 10.9447 16.4327 11.9999 16.4327C13.0551 16.4327 14.0854 16.7883 14.9057 17.4635C15.9591 18.3304 16.5501 19.4118 16.5501 20.5545V20.7843H7.44983Z" stroke="black" stroke-width="0.5" stroke-miterlimit="10" stroke-linecap="round" stroke-linejoin="round"/>
<path d="M5.76631 2.01819H18.2337C18.6861 2.01819 19.0527 1.64511 19.0527 1.18489C19.0527 0.724673 18.6861 0.351595 18.2337 0.351595H5.76631C5.31397 0.351595 4.94727 0.72472 4.94727 1.18499C4.94731 1.64516 5.31402 2.01819 5.76631 2.01819Z" stroke="black" stroke-width="0.5" stroke-miterlimit="10" stroke-linecap="round" stroke-linejoin="round"/>
<path d="M5.76631 23.8397H18.2337C18.6861 23.8397 19.0527 23.4666 19.0527 23.0065C19.0527 22.5462 18.6861 22.1731 18.2337 22.1731H5.76631C5.31397 22.1731 4.94727 22.5463 4.94727 23.0065C4.94731 23.4667 5.31402 23.8397 5.76631 23.8397Z" stroke="black" stroke-width="0.5" stroke-miterlimit="10" stroke-linecap="round" stroke-linejoin="round"/>
<mask id="path-15-inside-1_2360_39" fill="white">
<path d="M11.9999 11.91C11.8057 11.91 11.6483 11.7527 11.6483 11.5585V11.0897C11.6483 10.8955 11.8057 10.7382 11.9999 10.7382C12.194 10.7382 12.3514 10.8955 12.3514 11.0897V11.5585C12.3514 11.7527 12.194 11.91 11.9999 11.91ZM11.9999 13.7382C11.8057 13.7382 11.6483 13.5808 11.6483 13.3866V12.9178C11.6483 12.7236 11.8057 12.5663 11.9999 12.5663C12.194 12.5663 12.3514 12.7236 12.3514 12.9178V13.3866C12.3514 13.5808 12.194 13.7382 11.9999 13.7382ZM11.9999 15.5663C11.8057 15.5663 11.6483 15.4089 11.6483 15.2147V14.746C11.6483 14.5518 11.8057 14.3944 11.9999 14.3944C12.194 14.3944 12.3514 14.5518 12.3514 14.746V15.2147C12.3514 15.4089 12.194 15.5663 11.9999 15.5663Z"/>
</mask>
<path d="M11.9999 11.91C11.8057 11.91 11.6483 11.7527 11.6483 11.5585V11.0897C11.6483 10.8955 11.8057 10.7382 11.9999 10.7382C12.194 10.7382 12.3514 10.8955 12.3514 11.0897V11.5585C12.3514 11.7527 12.194 11.91 11.9999 11.91ZM11.9999 13.7382C11.8057 13.7382 11.6483 13.5808 11.6483 13.3866V12.9178C11.6483 12.7236 11.8057 12.5663 11.9999 12.5663C12.194 12.5663 12.3514 12.7236 12.3514 12.9178V13.3866C12.3514 13.5808 12.194 13.7382 11.9999 13.7382ZM11.9999 15.5663C11.8057 15.5663 11.6483 15.4089 11.6483 15.2147V14.746C11.6483 14.5518 11.8057 14.3944 11.9999 14.3944C12.194 14.3944 12.3514 14.5518 12.3514 14.746V15.2147C12.3514 15.4089 12.194 15.5663 11.9999 15.5663Z" fill="black"/>
<path d="M11.9999 12.91C11.2535 12.91 10.6483 12.305 10.6483 11.5585H12.6483C12.6483 11.2003 12.3579 10.91 11.9999 10.91V12.91ZM10.6483 11.5585V11.0897H12.6483V11.5585H10.6483ZM10.6483 11.0897C10.6483 10.3431 11.2535 9.73816 11.9999 9.73816V11.7382C12.3579 11.7382 12.6483 11.4479 12.6483 11.0897H10.6483ZM11.9999 9.73816C12.7462 9.73816 13.3514 10.3431 13.3514 11.0897H11.3514C11.3514 11.4479 11.6418 11.7382 11.9999 11.7382V9.73816ZM13.3514 11.0897V11.5585H11.3514V11.0897H13.3514ZM13.3514 11.5585C13.3514 12.305 12.7462 12.91 11.9999 12.91V10.91C11.6418 10.91 11.3514 11.2003 11.3514 11.5585H13.3514ZM11.9999 14.7382C11.2535 14.7382 10.6483 14.1332 10.6483 13.3866H12.6483C12.6483 13.0284 12.3579 12.7382 11.9999 12.7382V14.7382ZM10.6483 13.3866V12.9178H12.6483V13.3866H10.6483ZM10.6483 12.9178C10.6483 12.1713 11.2535 11.5663 11.9999 11.5663V13.5663C12.3579 13.5663 12.6483 13.276 12.6483 12.9178H10.6483ZM11.9999 11.5663C12.7462 11.5663 13.3514 12.1713 13.3514 12.9178H11.3514C11.3514 13.276 11.6418 13.5663 11.9999 13.5663V11.5663ZM13.3514 12.9178V13.3866H11.3514V12.9178H13.3514ZM13.3514 13.3866C13.3514 14.1332 12.7462 14.7382 11.9999 14.7382V12.7382C11.6418 12.7382 11.3514 13.0284 11.3514 13.3866H13.3514ZM11.9999 16.5663C11.2535 16.5663 10.6483 15.9613 10.6483 15.2147H12.6483C12.6483 14.8566 12.3579 14.5663 11.9999 14.5663V16.5663ZM10.6483 15.2147V14.746H12.6483V15.2147H10.6483ZM10.6483 14.746C10.6483 13.9994 11.2535 13.3944 11.9999 13.3944V15.3944C12.3579 15.3944 12.6483 15.1041 12.6483 14.746H10.6483ZM11.9999 13.3944C12.7462 13.3944 13.3514 13.9994 13.3514 14.746H11.3514C11.3514 15.1041 11.6418 15.3944 11.9999 15.3944V13.3944ZM13.3514 14.746V15.2147H11.3514V14.746H13.3514ZM13.3514 15.2147C13.3514 15.9613 12.7462 16.5663 11.9999 16.5663V14.5663C11.6418 14.5663 11.3514 14.8566 11.3514 15.2147H13.3514Z" fill="black" mask="url(#path-15-inside-1_2360_39)"/>
<path d="M17.9152 3.7462V2.01825L6.08481 2.0182V3.74611C6.08481 6.47526 7.39881 9.0607 9.66039 10.7205C10.0686 11.0202 10.3125 11.4939 10.3125 12.0003C10.3125 12.5056 10.0701 12.9794 9.66264 13.2783C7.35264 14.9729 6.08472 17.5807 6.08472 20.2539V21.9818L17.9151 21.9819V20.254C17.9151 17.5849 16.6507 14.9757 14.337 13.2783C13.9296 12.9794 13.6874 12.5056 13.6874 12.0004C13.6874 11.4939 13.9315 11.0202 14.3397 10.7205C16.5961 9.06422 17.9152 6.4814 17.9152 3.7462Z" stroke="black" stroke-width="0.5" stroke-miterlimit="10" stroke-linecap="round" stroke-linejoin="round"/>
<path d="M7.52905 4.80876C7.75466 6.31129 8.45479 7.69715 9.53019 8.79173C10.1845 9.45768 11.0745 9.82837 12 9.82837C12.9255 9.82837 13.8155 9.45768 14.4698 8.79178C15.5452 7.69729 16.2453 6.31138 16.4709 4.80876H7.52905Z" stroke="black" stroke-width="0.5" stroke-miterlimit="10" stroke-linecap="round" stroke-linejoin="round"/>
</g>
</svg>
