<svg width="40" height="40" viewBox="0 0 40 40" fill="none" xmlns="http://www.w3.org/2000/svg">
<circle cx="20" cy="20" r="20" fill="#F5F5F5"/>
<g clip-path="url(#clip0_2593_16)">
<g clip-path="url(#clip1_2593_16)">
<mask id="mask0_2593_16" style="mask-type:luminance" maskUnits="userSpaceOnUse" x="8" y="8" width="24" height="24">
<path d="M8 8H32V32H8V8Z" fill="white"/>
</mask>
<g mask="url(#mask0_2593_16)">
<path d="M28.5115 12.8227L24.6204 8.9372C24.3075 8.62473 23.8004 8.62473 23.4874 8.9372L8.93809 23.4657C8.62497 23.7783 8.62497 24.2854 8.93809 24.598L12.8291 28.4835C13.142 28.796 13.6493 28.796 13.9621 28.4835L28.5115 13.955C28.8246 13.6424 28.8246 13.1353 28.5115 12.8227Z" stroke="black" stroke-width="1.3" stroke-miterlimit="10" stroke-linecap="round" stroke-linejoin="round"/>
<path d="M27.1263 15.3383L25.4913 13.7057" stroke="black" stroke-width="1.3" stroke-miterlimit="10" stroke-linecap="round" stroke-linejoin="round"/>
<path d="M25.1741 17.2877L23.5392 15.6551" stroke="black" stroke-width="1.3" stroke-miterlimit="10" stroke-linecap="round" stroke-linejoin="round"/>
<path d="M23.2219 19.2371L21.5869 17.6046" stroke="black" stroke-width="1.3" stroke-miterlimit="10" stroke-linecap="round" stroke-linejoin="round"/>
<path d="M21.2696 21.1865L19.6346 19.554" stroke="black" stroke-width="1.3" stroke-miterlimit="10" stroke-linecap="round" stroke-linejoin="round"/>
<path d="M19.3174 23.136L17.6825 21.5034" stroke="black" stroke-width="1.3" stroke-miterlimit="10" stroke-linecap="round" stroke-linejoin="round"/>
<path d="M17.3652 25.0854L15.7302 23.4528" stroke="black" stroke-width="1.3" stroke-miterlimit="10" stroke-linecap="round" stroke-linejoin="round"/>
<path d="M15.4129 27.0348L13.778 25.4022" stroke="black" stroke-width="1.3" stroke-miterlimit="10" stroke-linecap="round" stroke-linejoin="round"/>
<path d="M31.297 18.3005L18.2822 31.2966" stroke="black" stroke-width="1.3" stroke-miterlimit="10" stroke-linejoin="round"/>
<path d="M20.8721 31.2966H18.2822V28.7104" stroke="black" stroke-width="1.3" stroke-miterlimit="10" stroke-linecap="round" stroke-linejoin="round"/>
<path d="M28.7072 18.3005H31.297V20.8866" stroke="black" stroke-width="1.3" stroke-miterlimit="10" stroke-linecap="round" stroke-linejoin="round"/>
</g>
</g>
</g>
<defs>
<clipPath id="clip0_2593_16">
<rect width="24" height="24" fill="white" transform="translate(8 8)"/>
</clipPath>
<clipPath id="clip1_2593_16">
<rect width="24" height="24" fill="white" transform="translate(8 8)"/>
</clipPath>
</defs>
</svg>
