<svg width="12" height="6" viewBox="0 0 12 6" fill="none" xmlns="http://www.w3.org/2000/svg">
<path d="M11.9999 0.995538C12.0004 1.12361 11.9721 1.25016 11.9172 1.36588C11.8624 1.48159 11.7823 1.58354 11.6828 1.66423L6.54046 5.80497C6.3871 5.93107 6.19474 6 5.99622 6C5.79771 6 5.60534 5.93107 5.45199 5.80497L0.309616 1.51849C0.134589 1.37297 0.0245214 1.16387 0.00362644 0.937177C-0.0172685 0.710485 0.0527208 0.484776 0.198197 0.309701C0.343674 0.134626 0.552721 0.024529 0.779351 0.00362822C1.00598 -0.0172725 1.23163 0.0527358 1.40665 0.198252L6.00051 4.03037L10.5944 0.326847C10.7202 0.222013 10.8734 0.155421 11.0358 0.134949C11.1983 0.114477 11.3632 0.140982 11.5111 0.211328C11.6589 0.281675 11.7835 0.392918 11.8702 0.531895C11.9568 0.670871 12.0019 0.831765 11.9999 0.995538Z" fill="#2C8BE7"/>
</svg>
