<svg width="30" height="30" viewBox="0 0 30 30" fill="none" xmlns="http://www.w3.org/2000/svg">
<path d="M15 0.5C23.0081 0.5 29.5 6.99187 29.5 15C29.5 23.0081 23.0081 29.5 15 29.5C6.99187 29.5 0.5 23.0081 0.5 15C0.5 6.99187 6.99187 0.5 15 0.5Z" stroke="#EAEAEA"/>
<path d="M22 17.9167H19.6963C18.7134 17.9167 17.9167 18.7134 17.9167 19.6963V22M22 17.9167C22 18.2865 21.9272 18.6528 21.7856 18.9945C21.6441 19.3362 21.4366 19.6467 21.175 19.9083L19.9083 21.175C19.6467 21.4366 19.3362 21.6441 18.9945 21.7856C18.6528 21.9272 18.2865 22 17.9167 22M22 17.9167V10.9706C22 10.1827 21.687 9.42715 21.13 8.87005C20.5729 8.31298 19.8173 8.00001 19.0294 8H10.9706C10.1827 8.00001 9.42715 8.31298 8.87005 8.87005C8.31298 9.42715 8.00001 10.1827 8 10.9706V19.0294C8.00001 19.8173 8.31298 20.5729 8.87005 21.13C9.42715 21.687 10.1827 22 10.9706 22H17.9167M11.5 18.5H15M11.5 11.5H18.5M11.5 15H18.5" stroke="#FFB618" stroke-width="1.5" stroke-miterlimit="10" stroke-linecap="round" stroke-linejoin="round"/>
</svg>
