<svg width="26" height="27" viewBox="0 0 26 27" fill="none" xmlns="http://www.w3.org/2000/svg">
<path d="M25.2389 13.845C24.8185 13.845 24.4777 14.1858 24.4777 14.6061C24.4777 17.8075 22.0718 20.412 19.1145 20.412C16.9459 20.412 15.0054 18.989 14.1756 16.8719C14.7028 16.6527 15.1671 16.289 15.5051 15.8106L16.8501 13.9065C16.8502 13.9065 19.3314 10.3802 19.4038 10.2506L19.4046 10.2489C20.1145 8.97708 20.0936 7.46017 19.3487 6.19084C18.6068 4.92634 17.2868 4.17139 15.8178 4.17139H10.1822C8.71323 4.17139 7.39326 4.92629 6.65125 6.19079C5.9065 7.45997 5.88559 8.97657 6.59508 10.2483C6.59548 10.2491 6.59579 10.2499 6.59625 10.2507C6.66866 10.3803 9.14977 13.9063 9.14977 13.9063L10.495 15.8106C10.833 16.289 11.2972 16.6527 11.8245 16.8719C10.9947 18.989 9.05417 20.412 6.88558 20.412C3.92819 20.412 1.52228 17.8075 1.52228 14.6061C1.52228 14.1858 1.18149 13.845 0.76114 13.845C0.340788 13.845 0 14.1858 0 14.6061C0 18.6469 3.08881 21.9343 6.88553 21.9343C9.49117 21.9343 11.8354 20.3666 13 17.9792C14.1646 20.3666 16.5089 21.9343 19.1145 21.9343C22.9112 21.9343 26 18.6469 26 14.6061C26 14.1858 25.6592 13.845 25.2389 13.845ZM15.9673 12.5178C15.7236 12.3218 15.5693 12.0215 15.5693 11.6951C15.5693 11.1136 16.0424 10.6405 16.6239 10.6405H17.2934L15.9673 12.5178ZM10.0327 12.5178L8.70658 10.6405H9.37608C9.95759 10.6405 10.4307 11.1136 10.4307 11.6951C10.4307 12.0215 10.2764 12.3218 10.0327 12.5178ZM10.9111 13.7613C11.5476 13.2846 11.953 12.5234 11.953 11.6952C11.953 10.2743 10.797 9.11829 9.37613 9.11829H7.74816C7.49683 8.41378 7.56985 7.63341 7.96427 6.96127C8.43004 6.16755 9.25922 5.69372 10.1823 5.69372H15.8179C16.741 5.69372 17.5702 6.16755 18.0359 6.96127C18.4304 7.63346 18.5033 8.41378 18.252 9.11829H16.624C15.2031 9.11829 14.0472 10.2743 14.0472 11.6952C14.0472 12.5234 14.4525 13.2846 15.0891 13.7613L14.2618 14.9323C13.9684 15.3476 13.5086 15.5858 13.0001 15.5858C12.4916 15.5858 12.0318 15.3476 11.7384 14.9323L10.9111 13.7613Z" fill="#B58111"/>
<path d="M18.2951 17.3723C18.2037 17.0846 17.9537 16.8721 17.6524 16.8372C17.3325 16.8002 17.0169 16.9779 16.8794 17.2682C16.7379 17.5666 16.8095 17.9358 17.0559 18.1573C17.2878 18.3657 17.6306 18.4132 17.9092 18.2729C18.2363 18.1081 18.3999 17.7225 18.2951 17.3723ZM20.3218 17.7423C20.3866 18.0543 20.6405 18.2982 20.9564 18.346C21.2704 18.3935 21.5902 18.232 21.7391 17.9518C21.8885 17.6705 21.8458 17.3193 21.6323 17.0823C21.4191 16.8457 21.0702 16.7697 20.777 16.8907C20.4426 17.0287 20.2558 17.3895 20.3218 17.7423ZM19.8559 15.0255C19.6309 14.8001 19.2799 14.7409 18.9925 14.8759C18.7049 15.0109 18.5288 15.3225 18.56 15.6385C18.5912 15.9553 18.8246 16.2236 19.1325 16.3018C19.4397 16.3798 19.7756 16.2505 19.9504 15.986C20.1498 15.6842 20.1074 15.2834 19.8559 15.0255ZM4.18564 17.7423C4.25038 18.0543 4.5043 18.2982 4.82017 18.346C5.13376 18.3934 5.45466 18.2323 5.60288 17.9518C5.75186 17.6699 5.7099 17.32 5.49612 17.0825C5.28315 16.8459 4.93404 16.7694 4.6408 16.8907C4.30691 17.029 4.11921 17.3893 4.18564 17.7423ZM7.70515 17.8143C7.80237 18.1189 8.07481 18.3361 8.39581 18.3537C8.71437 18.3711 9.01345 18.1765 9.13609 17.8843C9.25869 17.5923 9.17994 17.2413 8.94434 17.0293C8.70788 16.8166 8.35592 16.7724 8.07506 16.9223C7.75741 17.0917 7.6026 17.4703 7.70515 17.8143ZM5.93626 15.7126C6.00106 16.0247 6.25482 16.2685 6.5708 16.3163C6.88484 16.3638 7.20462 16.2023 7.3535 15.9221C7.50299 15.6407 7.46016 15.2896 7.24674 15.0526C7.03357 14.8159 6.68466 14.7401 6.39142 14.861C6.05728 14.9989 5.86989 15.3599 5.93626 15.7126Z" fill="#B58111"/>
</svg>
