<svg width="31" height="31" viewBox="0 0 31 31" fill="none" xmlns="http://www.w3.org/2000/svg">
<rect x="0.645833" y="30.3542" width="29.7083" height="29.7083" rx="8.39584" transform="rotate(-90 0.645833 30.3542)" fill="#FAFAFA"/>
<rect x="0.645833" y="30.3542" width="29.7083" height="29.7083" rx="8.39584" transform="rotate(-90 0.645833 30.3542)" stroke="#FBFBFB" stroke-width="1.29167"/>
<path d="M18.9313 17.5011C18.3258 17.5011 17.7802 17.7626 17.4016 18.1786L13.9959 16.0692C14.0894 15.8302 14.1373 15.5758 14.1372 15.3192C14.1373 15.0625 14.0894 14.8081 13.9959 14.5691L17.4016 12.4596C17.7803 12.8756 18.3258 13.1372 18.9313 13.1372C20.072 13.1372 21 12.2092 21 11.0686C21 9.92788 20.072 9 18.9313 9C17.7907 9 16.8627 9.92798 16.8627 11.0687C16.8627 11.3253 16.9106 11.5797 17.004 11.8187L13.5984 13.9281C13.2197 13.5121 12.6742 13.2505 12.0687 13.2505C10.928 13.2505 10 14.1786 10 15.3192C10 16.4598 10.928 17.3878 12.0687 17.3878C12.6742 17.3878 13.2198 17.1263 13.5984 16.7102L17.0041 18.8196C16.9106 19.0587 16.8627 19.3131 16.8627 19.5698C16.8627 20.7103 17.7907 21.6383 18.9313 21.6383C20.072 21.6383 21 20.7103 21 19.5698C21 18.4291 20.072 17.5011 18.9313 17.5011ZM17.617 11.0687C17.617 10.3439 18.2066 9.75432 18.9313 9.75432C19.656 9.75432 20.2457 10.3439 20.2457 11.0687C20.2457 11.7934 19.6561 12.383 18.9313 12.383C18.2066 12.383 17.617 11.7934 17.617 11.0687ZM12.0687 16.6335C11.3438 16.6335 10.7542 16.0439 10.7542 15.3192C10.7542 14.5945 11.3438 14.0048 12.0687 14.0048C12.7934 14.0048 13.3829 14.5945 13.3829 15.3192C13.3829 16.0439 12.7934 16.6335 12.0687 16.6335ZM17.617 19.5697C17.617 18.845 18.2066 18.2553 18.9313 18.2553C19.656 18.2553 20.2457 18.845 20.2457 19.5697C20.2457 20.2944 19.6561 20.884 18.9313 20.884C18.2066 20.884 17.617 20.2944 17.617 19.5697V19.5697Z" fill="#727272" stroke="#4D4D4D" stroke-width="0.382715"/>
</svg>
