<svg width="10" height="10" viewBox="0 0 10 10" fill="none" xmlns="http://www.w3.org/2000/svg">
<path fill-rule="evenodd" clip-rule="evenodd" d="M4.83332 7.67362C4.52104 7.67362 4.21946 7.63726 3.92964 7.5755L2.6709 8.33213L2.68775 7.09184C1.72284 6.51167 1.09026 5.55237 1.09026 4.46528C1.09026 2.69348 2.76608 1.25695 4.83332 1.25695C6.90056 1.25695 8.57638 2.69348 8.57638 4.46528C8.57638 6.23735 6.90056 7.67362 4.83332 7.67362ZM4.83332 0.722229C2.47092 0.722229 0.555542 2.39832 0.555542 4.46528C0.555542 5.64675 1.1825 6.69882 2.15971 7.3846V9.27778L4.03364 8.1407C4.29298 8.18348 4.55981 8.20834 4.83332 8.20834C7.19572 8.20834 9.1111 6.53252 9.1111 4.46528C9.1111 2.39832 7.19572 0.722229 4.83332 0.722229Z" fill="white" stroke="white" stroke-width="0.305556"/>
</svg>
