<svg width="15" height="17" viewBox="0 0 15 17" fill="none" xmlns="http://www.w3.org/2000/svg">
<path d="M1.69589 13.8088C1.77903 13.8088 1.77903 13.8088 1.86217 13.8088L3.77435 13.4724C4.60574 13.3042 5.35398 12.8837 5.93595 12.295L12.587 5.65112L13.4184 4.72602C13.9172 4.30552 14.1667 3.63272 14.1667 2.95992C14.1667 2.28712 13.9172 1.69842 13.4184 1.19382C12.5039 0.268725 10.9243 0.268725 9.9266 1.19382L9.09522 2.03482L2.44414 8.67871C1.86217 9.26741 1.44647 10.0243 1.2802 10.8653L0.864505 12.7996C0.781367 13.0519 0.864505 13.3883 1.11392 13.5565C1.2802 13.7247 1.44647 13.8088 1.69589 13.8088ZM11.0905 2.45532C11.4231 2.11892 11.9219 2.11892 12.2545 2.45532C12.5039 2.62352 12.5039 2.87582 12.5039 2.95992C12.5039 3.21222 12.4208 3.38042 12.2545 3.54862L12.0051 3.88502L10.8411 2.70762L11.0905 2.45532ZM13.3353 14.818H1.69589C1.19706 14.818 0.864505 15.1544 0.864505 15.659C0.864505 16.1636 1.19706 16.5 1.69589 16.5H13.3353C13.8341 16.5 14.1667 16.1636 14.1667 15.659C14.1667 15.1544 13.8341 14.818 13.3353 14.818Z" fill="white"/>
</svg>
