<svg width="40" height="40" viewBox="0 0 40 40" fill="none" xmlns="http://www.w3.org/2000/svg">
<circle cx="20" cy="20" r="20" fill="#FFE8CE"/>
<g clip-path="url(#clip0_2673_7)">
<path d="M10.0813 30.1582C10.0199 30.1582 9.95841 30.1347 9.91185 30.0881C9.85281 30.0286 9.79473 29.9681 9.73905 29.9057C9.65025 29.8068 9.65889 29.6556 9.75729 29.5668C9.85617 29.4776 10.0074 29.4857 10.0962 29.5851C10.1461 29.6408 10.1979 29.6955 10.2512 29.7488C10.3448 29.8424 10.3448 29.9945 10.2512 30.0881C10.2042 30.1347 10.1427 30.1582 10.0813 30.1582Z" fill="#555555"/>
<path d="M9.15342 29.0763C9.07278 28.9294 8.99934 28.7773 8.9331 28.6213C8.88126 28.4993 8.93838 28.3582 9.0603 28.3069C9.33966 28.1878 9.42174 28.5675 9.5739 28.8449C9.63774 28.9611 9.5955 29.107 9.47934 29.1713C9.36366 29.2342 9.21726 29.1929 9.15342 29.0763ZM8.8659 27.8485C8.7555 27.8485 8.65614 27.7721 8.63166 27.6598C8.59662 27.499 8.56734 27.3339 8.54478 27.1659C8.52702 27.0344 8.61966 26.9139 8.75118 26.8957C8.8827 26.8789 9.00318 26.9705 9.02094 27.1021C9.04158 27.2571 9.06846 27.4093 9.10062 27.5576C9.13326 27.7069 9.01902 27.8485 8.8659 27.8485ZM8.71998 26.4123H8.7195C8.58702 26.4123 8.47998 26.3048 8.47998 26.1718C8.47998 26.0091 8.48526 25.8435 8.49534 25.6765C8.50302 25.5445 8.61678 25.4389 8.74878 25.4509C8.88126 25.459 8.98206 25.5723 8.97438 25.7043C8.96478 25.8627 8.96046 26.0187 8.95998 26.1728C8.95998 26.3053 8.85246 26.4123 8.71998 26.4123ZM8.80302 24.9704C8.67246 24.9493 8.58318 24.8259 8.6043 24.6953C8.62974 24.5355 8.6595 24.3737 8.69358 24.2101C8.71998 24.08 8.84574 23.9931 8.97678 24.0243C9.10638 24.0512 9.1899 24.1779 9.1635 24.308C9.13086 24.464 9.10254 24.6181 9.07806 24.7712C9.0579 24.8969 8.94078 24.9905 8.80302 24.9704ZM9.0939 23.5544C8.9667 23.5179 8.89326 23.3845 8.92974 23.2573C8.97438 23.1017 9.02286 22.9457 9.07422 22.7883C9.11502 22.6621 9.25038 22.5934 9.37662 22.6347C9.50286 22.676 9.5715 22.8113 9.53022 22.9376C9.48078 23.0893 9.43422 23.2405 9.39102 23.3902C9.35358 23.5198 9.21822 23.5909 9.0939 23.5544ZM9.54222 22.1792C9.41934 22.1297 9.35934 21.9901 9.4083 21.8677C9.4683 21.7179 9.5307 21.5672 9.59598 21.4165C9.6483 21.2941 9.7899 21.2379 9.91134 21.2912C10.0333 21.3435 10.0889 21.4851 10.0366 21.6065C9.97326 21.7539 9.9123 21.8998 9.85422 22.0457C9.80526 22.1681 9.6651 22.2286 9.54222 22.1792ZM10.1163 20.8525C9.99774 20.7934 9.94926 20.6494 10.0088 20.5309C10.148 20.2505 10.2814 19.8497 10.5565 19.9971C10.6736 20.059 10.7182 20.2045 10.6563 20.3216C10.5814 20.4632 10.5085 20.6043 10.4384 20.7449C10.3784 20.8649 10.2329 20.9115 10.1163 20.8525ZM10.7941 19.5752C10.6803 19.507 10.6424 19.3601 10.7101 19.2459C10.7921 19.1072 10.8771 18.968 10.9635 18.8297C11.0331 18.7169 11.1819 18.6824 11.2942 18.7534C11.4065 18.8235 11.4406 18.9718 11.3705 19.0837C11.2861 19.219 11.2035 19.3544 11.1229 19.4907C11.0557 19.604 10.9093 19.6429 10.7941 19.5752ZM11.5597 18.3488C11.4507 18.2739 11.4229 18.1241 11.4977 18.0152C11.5889 17.8822 11.6825 17.7488 11.7776 17.6163C11.8549 17.5083 12.0046 17.4838 12.1126 17.5616C12.2206 17.6389 12.2451 17.7891 12.1678 17.8966C12.0747 18.0267 11.983 18.1568 11.8937 18.2869C11.8184 18.3958 11.6686 18.4237 11.5597 18.3488ZM12.4025 17.1733C12.2979 17.0917 12.2797 16.9409 12.3608 16.8363C12.4601 16.7091 12.5609 16.5824 12.6637 16.4557C12.7472 16.3529 12.8984 16.3361 13.0011 16.4201C13.1043 16.5037 13.1201 16.6544 13.0366 16.7576C12.9358 16.8824 12.8365 17.0067 12.739 17.1315C12.6569 17.2371 12.5057 17.2539 12.4025 17.1733ZM13.3141 16.0501C13.2142 15.9627 13.2041 15.811 13.292 15.7117C13.3985 15.5897 13.507 15.4683 13.6169 15.3478C13.7067 15.2504 13.8584 15.2432 13.9558 15.3329C14.0537 15.4227 14.0605 15.5744 13.9707 15.6723C13.8627 15.7899 13.7571 15.9085 13.6525 16.0275C13.5656 16.1278 13.4144 16.1379 13.3141 16.0501ZM14.288 14.9821C14.1934 14.8894 14.192 14.7368 14.2846 14.6427L14.6283 14.2981C14.7229 14.2049 14.875 14.2064 14.9677 14.3009C15.0608 14.3955 15.0593 14.5477 14.9648 14.6403L14.6269 14.9782C14.5352 15.0733 14.383 15.0747 14.288 14.9821ZM15.319 13.9678C15.2297 13.8699 15.2369 13.7177 15.3349 13.6289C15.4553 13.519 15.5758 13.4105 15.6973 13.304C15.7966 13.2171 15.9488 13.2267 16.0361 13.3261C16.1235 13.4254 16.1139 13.5771 16.0145 13.6649C15.8955 13.7696 15.7769 13.8757 15.6589 13.9832C15.5609 14.0725 15.4088 14.0657 15.319 13.9678ZM16.4057 13.0131C16.3222 12.9099 16.3381 12.7592 16.4408 12.6752C16.5675 12.5725 16.6942 12.4712 16.8214 12.3718C16.9256 12.2902 17.0768 12.3094 17.1584 12.4136C17.24 12.5182 17.2213 12.6689 17.1166 12.7505C16.9918 12.848 16.8675 12.9473 16.7432 13.0481C16.6409 13.1317 16.4897 13.1163 16.4057 13.0131ZM17.5453 12.1232C17.468 12.0152 17.4925 11.8654 17.6005 11.7881C17.7329 11.6931 17.8654 11.6 17.9984 11.5083C18.1073 11.432 18.2566 11.4598 18.3325 11.5693C18.4078 11.6782 18.3805 11.828 18.271 11.9029C18.1405 11.9931 18.0104 12.0848 17.8803 12.1779C17.7728 12.2552 17.6225 12.2307 17.5453 12.1232ZM18.7376 11.3053C18.6675 11.1929 18.7011 11.0446 18.8139 10.9741C18.9526 10.8872 19.0918 10.8022 19.2305 10.7201C19.3457 10.6534 19.4917 10.6909 19.5593 10.8051C19.6265 10.9189 19.5891 11.0662 19.4749 11.1339C19.339 11.2141 19.2037 11.2966 19.0683 11.3816C18.9565 11.4512 18.8077 11.4176 18.7376 11.3053ZM19.9803 10.5661C19.9179 10.4489 19.9625 10.3035 20.0797 10.2416C20.2241 10.1648 20.3686 10.0904 20.5126 10.0179C20.6326 9.95742 20.7757 10.0064 20.8347 10.1245C20.8942 10.243 20.8462 10.3875 20.7281 10.4465C20.587 10.5176 20.4459 10.5905 20.3043 10.6654C20.1901 10.7269 20.0432 10.6841 19.9803 10.5661ZM21.2744 9.91998C21.2216 9.79854 21.2773 9.65694 21.3987 9.60414C21.5494 9.53838 21.7001 9.4755 21.8504 9.41598C21.9733 9.36654 22.1129 9.42702 22.1624 9.54942C22.2113 9.67278 22.1513 9.81246 22.0285 9.86142C21.8825 9.91998 21.7366 9.98094 21.5902 10.0448C21.4635 10.0981 21.3257 10.0385 21.2744 9.91998ZM28.8291 9.56526C28.6961 9.49278 28.5589 9.42702 28.4168 9.36798C28.2944 9.31662 28.2368 9.17598 28.2877 9.05358C28.339 8.93118 28.4797 8.87502 28.6016 8.92446C28.759 8.99022 28.9117 9.06318 29.059 9.14334C29.1757 9.20718 29.2184 9.3531 29.155 9.46926C29.0917 9.58542 28.9467 9.62814 28.8291 9.56526ZM22.6165 9.38238C22.5752 9.25662 22.6438 9.12126 22.7696 9.0795C22.9265 9.02862 23.0821 8.98014 23.2371 8.93454C23.3667 8.89758 23.4982 8.97006 23.5352 9.09678C23.5726 9.22398 23.5001 9.35742 23.3729 9.39486C23.2227 9.4395 23.0715 9.48558 22.9193 9.53598C22.7926 9.57678 22.6577 9.50862 22.6165 9.38238ZM24.0056 8.9811C23.9782 8.8515 24.0617 8.7243 24.1913 8.69694C24.3541 8.66286 24.5158 8.63262 24.6761 8.6067C24.8072 8.5827 24.9301 8.67486 24.9512 8.80494C24.9723 8.9355 24.8835 9.05886 24.7525 9.07998C24.5998 9.10494 24.4453 9.13374 24.2893 9.16638C24.1659 9.19518 24.0329 9.11406 24.0056 8.9811ZM27.5398 9.09582C27.391 9.06462 27.2384 9.03822 27.0829 9.01758C26.9513 8.99982 26.8592 8.87934 26.8765 8.74734C26.8942 8.6163 27.0137 8.5227 27.1462 8.54094C27.3142 8.5635 27.4784 8.59134 27.6392 8.6259C27.7693 8.65374 27.8518 8.78094 27.8245 8.91054C27.7981 9.03534 27.6771 9.12318 27.5398 9.09582ZM25.6712 8.97582C25.5454 8.97582 25.4398 8.8779 25.4317 8.75022C25.424 8.61822 25.5248 8.50446 25.6573 8.4963C25.8243 8.48622 25.9894 8.48094 26.1517 8.47998H26.1531C26.2851 8.47998 26.3926 8.58654 26.3931 8.71854C26.3941 8.85102 26.2875 8.95902 26.1545 8.95998C26.0005 8.96094 25.8445 8.96622 25.6861 8.97534C25.6813 8.97582 25.6765 8.97582 25.6712 8.97582Z" fill="#555555"/>
<path d="M29.9187 10.3213C29.8568 10.3213 29.7958 10.2977 29.7483 10.2507C29.695 10.1974 29.6403 10.1461 29.5846 10.0961C29.4857 10.0078 29.4776 9.85615 29.5664 9.75727C29.6552 9.65839 29.8068 9.65071 29.9052 9.73903C29.9676 9.79471 30.0286 9.85231 30.0886 9.91231C30.1822 10.0059 30.1817 10.1581 30.0881 10.2517C30.0411 10.2977 29.9801 10.3213 29.9187 10.3213Z" fill="#555555"/>
<path d="M9.7577 10.4341C9.65882 10.3458 9.6497 10.1941 9.73802 10.0952C9.79418 10.0319 9.85178 9.97091 9.9113 9.91139C10.0049 9.81779 10.1571 9.81779 10.2507 9.91139C10.3443 10.005 10.3443 10.1571 10.2507 10.2507C10.1979 10.3035 10.1465 10.3583 10.0966 10.4139C10.0092 10.5128 9.85754 10.5224 9.7577 10.4341Z" fill="#555555"/>
<path d="M26.1531 31.5201C26.1526 31.5201 26.1521 31.5201 26.1517 31.5201C25.9894 31.5191 25.8243 31.5138 25.6568 31.5037C25.5248 31.4956 25.424 31.3818 25.4317 31.2498C25.4398 31.1173 25.556 31.0185 25.6856 31.0247C25.844 31.0338 26 31.0391 26.1541 31.0401C26.2865 31.041 26.3936 31.149 26.3926 31.2815C26.3921 31.4135 26.2851 31.5201 26.1531 31.5201ZM26.8769 31.2522C26.8592 31.1207 26.9518 31.0002 27.0833 30.982C27.2389 30.9613 27.3915 30.9349 27.5403 30.9037C27.6699 30.8797 27.7976 30.9594 27.8249 31.089C27.8523 31.2181 27.7697 31.3458 27.6397 31.3737C27.4793 31.4077 27.3147 31.4361 27.1467 31.4586C27.0147 31.4759 26.8942 31.3837 26.8769 31.2522ZM24.6757 31.3929C24.5153 31.3669 24.3541 31.3372 24.1909 31.3026C24.0608 31.2753 23.9777 31.1485 24.0051 31.0185C24.032 30.8893 24.1587 30.802 24.2888 30.8327C24.4448 30.8649 24.5989 30.8941 24.752 30.9191C24.883 30.9402 24.9718 31.0636 24.9507 31.1941C24.9291 31.329 24.8005 31.4159 24.6757 31.3929ZM28.2877 30.946C28.2368 30.8236 28.2944 30.6829 28.4168 30.6321C28.5584 30.573 28.6961 30.5073 28.8291 30.4348C28.9453 30.3724 29.0907 30.4141 29.1545 30.5308C29.2179 30.6469 29.1752 30.7929 29.0585 30.8567C28.9112 30.9369 28.7585 31.0098 28.6011 31.0756C28.4734 31.1269 28.3371 31.0645 28.2877 30.946ZM23.2371 31.065C23.0825 31.0194 22.9265 30.9714 22.7696 30.9201C22.6438 30.8783 22.5752 30.7429 22.6165 30.6172C22.6577 30.4909 22.7931 30.4233 22.9193 30.4636C23.0715 30.5135 23.2227 30.5601 23.3729 30.6047C23.5001 30.6421 23.5726 30.7756 23.5352 30.9028C23.4987 31.0276 23.3677 31.1025 23.2371 31.065ZM21.8499 30.5841C21.6997 30.5245 21.5489 30.4617 21.3982 30.3959C21.2768 30.3431 21.2206 30.2015 21.2739 30.0801C21.3267 29.9586 21.4669 29.9034 21.5897 29.9553C21.7366 30.0191 21.8825 30.0801 22.0285 30.1386C22.1513 30.1876 22.2113 30.3273 22.1624 30.4501C22.1134 30.5721 21.9747 30.634 21.8499 30.5841ZM20.5126 29.9821C20.3681 29.9101 20.2241 29.8353 20.0797 29.7585C19.9625 29.6965 19.9179 29.5511 19.9803 29.434C20.0422 29.3173 20.1877 29.2713 20.3048 29.3346C20.4459 29.4095 20.5875 29.4825 20.7286 29.5535C20.8472 29.6125 20.8947 29.757 20.8352 29.8756C20.7742 29.9965 20.6273 30.0407 20.5126 29.9821ZM19.2301 29.2799C19.0909 29.1978 18.9521 29.1124 18.8134 29.026C18.7011 28.9559 18.667 28.8076 18.7371 28.6953C18.8072 28.5834 18.955 28.5484 19.0678 28.6194C19.2032 28.7044 19.3385 28.7869 19.4744 28.8671C19.5886 28.9348 19.6261 29.0817 19.5589 29.1959C19.4931 29.3073 19.3467 29.3481 19.2301 29.2799ZM17.9984 28.4913C17.8654 28.4001 17.7329 28.3065 17.6005 28.2114C17.4925 28.1341 17.468 27.9839 17.5453 27.8764C17.6225 27.7684 17.7723 27.7439 17.8803 27.8217C18.0104 27.9148 18.1405 28.0065 18.271 28.0967C18.38 28.1716 18.4073 28.3213 18.3325 28.4303C18.2566 28.5397 18.1069 28.5671 17.9984 28.4913ZM16.8214 27.6277C16.6942 27.5284 16.5675 27.4271 16.4408 27.3244C16.3381 27.2404 16.3222 27.0897 16.4057 26.9865C16.4893 26.8842 16.64 26.8679 16.7432 26.9514C16.8675 27.0522 16.9918 27.1516 17.1166 27.249C17.2213 27.3306 17.2395 27.4813 17.1584 27.586C17.0758 27.6911 16.9246 27.7079 16.8214 27.6277ZM15.6973 26.6956C15.5763 26.589 15.4553 26.4805 15.3349 26.3706C15.2369 26.2813 15.2297 26.1297 15.319 26.0317C15.4088 25.9333 15.5605 25.9261 15.6584 26.0164C15.7765 26.1244 15.8955 26.23 16.0141 26.3346C16.1139 26.4225 16.123 26.5741 16.0357 26.6735C15.9483 26.7733 15.7966 26.7829 15.6973 26.6956ZM14.6288 25.7015L14.2851 25.3569C14.1925 25.2628 14.1939 25.1101 14.2885 25.0175C14.3825 24.9253 14.5352 24.9253 14.6278 25.0213L14.9657 25.3593C15.0603 25.4519 15.0617 25.6041 14.9686 25.6986C14.8755 25.7932 14.7238 25.7946 14.6288 25.7015ZM13.6169 24.6513C13.507 24.5308 13.3981 24.4093 13.292 24.2874C13.2046 24.1881 13.2147 24.0364 13.3141 23.949C13.4139 23.8612 13.5651 23.8713 13.6529 23.9716C13.7571 24.0906 13.8632 24.2092 13.9712 24.3268C14.0609 24.4247 14.0542 24.5769 13.9563 24.6661C13.8598 24.7549 13.7072 24.7501 13.6169 24.6513ZM12.6637 23.5439C12.5609 23.4172 12.4601 23.2905 12.3608 23.1633C12.2792 23.0586 12.2979 22.9079 12.4025 22.8263C12.5067 22.7447 12.6574 22.7634 12.7395 22.8681C12.8369 22.9933 12.9363 23.1177 13.0371 23.242C13.1206 23.3452 13.1048 23.4959 13.0016 23.5794C12.8998 23.6625 12.7481 23.6476 12.6637 23.5439ZM11.7776 22.3837C11.6825 22.2513 11.5889 22.1178 11.4977 21.9849C11.4229 21.8759 11.4502 21.7261 11.5597 21.6513C11.6691 21.5764 11.8189 21.6042 11.8933 21.7132C11.9825 21.8437 12.0742 21.9738 12.1673 22.1039C12.2446 22.2119 12.2201 22.3617 12.1121 22.4389C12.0051 22.5157 11.8549 22.4913 11.7776 22.3837ZM10.9635 21.1698C10.8766 21.0316 10.7921 20.8924 10.7101 20.7537C10.6424 20.6399 10.6803 20.4925 10.7941 20.4244C10.9093 20.3577 11.0557 20.3951 11.1229 20.5089C11.2035 20.6447 11.2861 20.7801 11.3705 20.9159C11.4411 21.0277 11.4065 21.1761 11.2942 21.2461C11.1824 21.3162 11.0336 21.2821 10.9635 21.1698ZM10.232 19.9031C10.1552 19.7577 10.0808 19.6132 10.0088 19.4687C9.94926 19.3501 9.99774 19.2061 10.1163 19.1471C10.2353 19.0871 10.3793 19.1365 10.4384 19.2551C10.5085 19.3957 10.5809 19.5369 10.6563 19.6785C10.7182 19.7956 10.6736 19.941 10.5565 20.0029C10.4403 20.0644 10.2944 20.0207 10.232 19.9031ZM9.59598 18.5836C9.5307 18.4324 9.4683 18.2817 9.4083 18.1319C9.35886 18.009 9.41886 17.8693 9.54222 17.8204C9.66366 17.7705 9.80478 17.8314 9.85422 17.9538C9.9123 18.0997 9.97326 18.2457 10.0366 18.393C10.0889 18.5145 10.0333 18.6561 9.91134 18.7084C9.7947 18.7602 9.65022 18.7089 9.59598 18.5836ZM9.07422 17.2108C8.9763 16.9117 8.7939 16.5311 9.0939 16.4447C9.2235 16.4073 9.35454 16.4817 9.39102 16.6089C9.43422 16.7591 9.48078 16.9103 9.53022 17.0615C9.5715 17.1877 9.50286 17.3231 9.37662 17.3644C9.24942 17.4057 9.11502 17.3361 9.07422 17.2108ZM8.6931 15.7895C8.6595 15.6258 8.62974 15.4641 8.60382 15.3042C8.5827 15.1737 8.67198 15.0503 8.80254 15.0292C8.93262 15.01 9.05646 15.0973 9.07758 15.2284C9.10206 15.3815 9.13038 15.5361 9.16302 15.6921C9.1899 15.8221 9.10638 15.9489 8.9763 15.9757C8.85486 16.0031 8.72094 15.9239 8.6931 15.7895ZM8.73438 14.5492C8.60814 14.5492 8.50254 14.4508 8.49486 14.3231C8.48526 14.1556 8.48046 13.99 8.47998 13.8277C8.47998 13.6953 8.58702 13.5873 8.7195 13.5873H8.71998C8.85246 13.5873 8.95998 13.6948 8.95998 13.8268C8.96046 13.9809 8.96478 14.1369 8.97438 14.2953C8.98254 14.4273 8.88126 14.541 8.74878 14.5487C8.74398 14.5492 8.73918 14.5492 8.73438 14.5492ZM8.78286 13.1063C8.7723 13.1063 8.76174 13.1058 8.75118 13.1044C8.61966 13.0866 8.5275 12.9661 8.54478 12.8341C8.56734 12.6657 8.59614 12.501 8.63166 12.3402C8.6595 12.2101 8.78814 12.1281 8.91726 12.1569C9.04686 12.1852 9.12894 12.3129 9.10062 12.4425C9.06846 12.5913 9.04158 12.7429 9.02094 12.898C9.00462 13.0185 8.90142 13.1063 8.78286 13.1063ZM9.0603 11.6927C8.9379 11.6413 8.88078 11.5002 8.93262 11.3783C8.99934 11.2223 9.0723 11.0697 9.15342 10.9233C9.21678 10.8076 9.3627 10.7644 9.47934 10.8287C9.5955 10.893 9.63774 11.0389 9.5739 11.1551C9.50094 11.2876 9.4347 11.4253 9.37518 11.566C9.32286 11.6884 9.18126 11.7445 9.0603 11.6927Z" fill="#555555"/>
<path d="M29.5668 30.2428C29.478 30.1439 29.4867 29.9927 29.5851 29.9039C29.6407 29.854 29.6955 29.8026 29.7487 29.7493C29.8423 29.6553 29.9945 29.6557 30.0886 29.7484C30.1822 29.842 30.1827 29.9941 30.0891 30.0877C30.0291 30.1477 29.9681 30.2053 29.9057 30.261C29.8068 30.3498 29.6547 30.3412 29.5668 30.2428Z" fill="#555555"/>
<path d="M20 31.519C26.362 31.519 31.5195 26.3616 31.5195 19.9995C31.5195 13.6374 26.362 8.47998 20 8.47998C13.6379 8.47998 8.48047 13.6374 8.48047 19.9995C8.48047 26.3616 13.6379 31.519 20 31.519Z" fill="#4FB7E4"/>
<path d="M31.3227 22.1322C31.2507 21.9623 31.1706 21.7962 31.0827 21.6335C30.8399 21.5946 30.5922 21.8221 30.6104 22.0674C30.2845 21.8125 30.2706 21.3248 30.3551 20.9197C30.4395 20.5151 30.5922 20.1018 30.4962 19.6995C30.4064 19.3261 30.0887 19.0179 29.7123 18.9402C29.3365 18.8619 28.9223 19.0179 28.6914 19.3247C28.7154 19.293 28.6592 19.1072 28.652 19.0659C28.6347 18.9714 28.6146 18.8778 28.5911 18.7847C28.5455 18.6027 28.4883 18.4232 28.4202 18.2485C28.352 18.0733 28.2733 17.9029 28.1835 17.7378C28.1456 17.6677 28.0962 17.6019 28.0755 17.5247C28.0501 17.4291 28.0535 17.3283 28.0333 17.2314C28.0103 17.121 27.9402 17.0053 27.8288 16.9895C27.6455 16.9631 27.5125 17.216 27.3287 17.1954C27.2432 17.1858 27.1736 17.1143 27.1463 17.0327C27.1184 16.9511 27.1261 16.8618 27.1448 16.7778C27.1736 16.6477 27.2274 16.5234 27.2447 16.3914C27.2619 16.2594 27.2346 16.1101 27.1299 16.0275C27.0498 15.9647 26.9418 15.9531 26.8487 15.9109C26.697 15.8418 26.5866 15.6906 26.4248 15.6503C26.2338 15.6027 26.0293 15.7395 25.9597 15.9239C25.8901 16.1082 25.9352 16.3199 26.0336 16.4903C26.1325 16.6607 26.2799 16.7965 26.4267 16.9271C26.5741 17.0576 26.7253 17.1877 26.8362 17.3499C27.044 17.6552 27.0867 18.0402 27.1232 18.4079C27.1343 18.5183 27.141 18.6431 27.0675 18.7266C26.9763 18.8303 26.8083 18.8178 26.6936 18.8946C26.6063 18.9527 26.5602 19.0549 26.4891 19.1317C26.4181 19.2085 26.2866 19.256 26.2122 19.1816C26.1589 19.1283 26.1642 19.0429 26.1579 18.968C26.1517 18.8931 26.1104 18.8034 26.0351 18.8048C25.9823 18.8058 25.9434 18.8528 25.9122 18.8951C25.8517 18.9776 25.7879 19.0746 25.809 19.1749C25.8282 19.2656 25.9112 19.3271 25.989 19.3784C26.1095 19.4576 26.2323 19.533 26.3571 19.605C26.3351 19.6914 26.4637 19.7499 26.5419 19.7077C26.6202 19.665 26.6557 19.5738 26.6941 19.4931C26.7603 19.3539 26.852 19.2282 26.9437 19.1039C26.9874 19.0443 27.033 18.9829 27.0978 18.9464C27.1621 18.9099 27.2509 18.9056 27.3047 18.9565C27.3896 19.0371 27.3335 19.1816 27.2562 19.269C27.1357 19.4053 26.9787 19.4999 26.829 19.5997C26.6888 19.6933 26.5712 19.8455 26.4133 19.9064C26.3442 19.9333 26.2688 19.94 26.1963 19.9573C25.9727 20.0096 25.7663 20.1771 25.7183 20.4013C25.7888 20.3907 25.8599 20.3802 25.9304 20.3696C25.9424 20.3677 25.9549 20.3663 25.9669 20.3682C26.0111 20.3754 26.0317 20.4325 26.0163 20.4743C26.0005 20.516 25.9607 20.5434 25.9208 20.5626C25.881 20.5818 25.8373 20.5967 25.8032 20.625C25.7677 20.6528 25.7442 20.7008 25.76 20.7421C25.7783 20.7891 25.8397 20.8069 25.8882 20.793C25.9367 20.7791 25.9751 20.7426 26.0111 20.7071C26.1023 20.6178 26.1939 20.528 26.2851 20.4387C26.3202 20.4042 26.3624 20.3672 26.4114 20.373C26.4824 20.3811 26.5107 20.4791 26.4786 20.5429C26.4464 20.6067 26.3792 20.6432 26.3168 20.6783C26.1407 20.7767 25.9741 20.8928 25.821 21.0243C25.7917 21.0493 25.761 21.0776 25.7533 21.1155C25.7413 21.1751 25.7888 21.2279 25.8234 21.2778C25.9122 21.4059 25.9271 21.5696 25.9395 21.7247C25.9477 21.8279 25.9559 21.9325 25.941 22.0347C25.9261 22.1375 25.8853 22.2392 25.8095 22.3103C25.5258 22.5747 24.8965 22.0271 24.6359 21.8802C24.5826 21.8499 24.5202 21.8187 24.4621 21.8394C24.3805 21.8682 24.3647 21.9743 24.3613 22.0607C24.3507 22.3371 24.3272 22.6247 24.1871 22.8632C24.0469 23.1018 23.757 23.2746 23.4925 23.1935C23.3403 23.1469 23.288 23.0749 23.1325 23.0835C22.9693 23.0931 22.209 23.3931 21.932 23.6855C21.6066 24.0301 21.5235 24.5624 21.6637 25.0146C21.8048 25.4677 22.1456 25.8402 22.5493 26.0879C22.8315 26.2607 23.1627 26.3802 23.4906 26.3336C23.6879 26.3058 23.8784 26.2064 24.0109 26.0567C24.1199 25.9338 24.2855 25.6434 24.0176 25.6074C23.9562 25.5992 23.889 25.5992 23.841 25.5599C23.7911 25.5186 23.78 25.448 23.7733 25.3837C23.7632 25.2824 23.7575 25.1739 23.8093 25.0861C23.8611 24.9987 23.9922 24.9517 24.0671 25.0203C24.0522 24.9699 24.0373 24.9176 24.0435 24.8648C24.0493 24.8125 24.081 24.7592 24.1319 24.7448C24.1621 24.7362 24.1952 24.7424 24.2264 24.7376C24.3138 24.7247 24.3661 24.6349 24.3983 24.5528C24.4304 24.4707 24.4621 24.3781 24.5399 24.3363C24.6306 24.2874 24.7535 24.3383 24.8034 24.4285C24.8533 24.5187 24.8403 24.6339 24.7933 24.7256C24.7463 24.8173 24.669 24.8898 24.5893 24.956C24.5101 25.0223 24.4261 25.0842 24.3599 25.1634C24.2984 25.2363 24.2519 25.328 24.2581 25.4231C24.2639 25.5181 24.3354 25.6127 24.4304 25.6208C24.3983 25.8018 24.2567 25.941 24.1741 26.1056C24.0426 26.3691 24.0781 26.7075 24.2615 26.9375C24.2859 26.9682 24.3138 26.9984 24.3239 27.0363C24.3714 27.2087 23.9639 27.4357 23.8266 27.5749C23.7061 27.6968 23.6149 27.8667 23.6471 28.0352C23.6528 28.0655 23.6624 28.0952 23.6595 28.1255C23.6523 28.2095 23.4843 28.2215 23.4176 28.244C22.7149 28.4816 22.2066 28.7883 21.5576 29.1075C21.465 29.1531 21.3579 29.2227 21.3656 29.3255C21.3714 29.3984 21.4386 29.4546 21.5101 29.4714C21.5816 29.4882 21.6555 29.4752 21.728 29.4632C22.521 29.3298 23.3355 29.3235 24.1309 29.444C24.1717 29.4503 24.2139 29.457 24.2495 29.4781C24.285 29.4992 24.3138 29.5376 24.3109 29.5789C24.3071 29.6341 24.2519 29.6922 24.2864 29.7354C24.3171 29.7743 24.393 29.7536 24.4165 29.7973C24.44 29.8405 24.3843 29.8827 24.3383 29.901C24.2749 29.9259 23.5203 30.2096 23.4699 30.2557C23.4378 30.285 23.4167 30.3301 23.4282 30.3719C23.4363 30.4016 23.4594 30.4251 23.4747 30.452C23.5251 30.5427 23.4099 30.5941 23.3514 30.6373C23.2607 30.705 23.1704 30.7722 23.0797 30.8399C22.989 30.9075 22.8987 30.9747 22.808 31.0424C22.7418 31.0919 22.6285 31.2176 22.5493 31.2354C27.0027 30.2303 30.4779 26.6451 31.3227 22.1322ZM29.1311 20.2069C29.1109 20.2506 29.0667 20.3 29.0231 20.2789C29 20.2679 28.9895 20.2405 28.9842 20.216C28.9717 20.1565 28.9755 20.0931 28.9549 20.0355C28.9347 19.9784 28.8771 19.9256 28.8181 19.9419C28.7749 19.9535 28.7322 19.9991 28.6943 19.9755C28.6712 19.9616 28.6679 19.9299 28.6664 19.9035C28.6616 19.7869 28.6568 19.6703 28.6707 19.5536C28.6799 19.4835 28.7101 19.3986 28.7811 19.3914C28.8459 19.3842 28.8925 19.4485 28.9304 19.5023C29.0576 19.6856 29.2251 19.8027 29.4431 19.7466C29.5381 19.7226 29.6082 19.7562 29.6735 19.8325C29.7229 19.8915 29.7594 19.9611 29.8131 20.0163C29.8669 20.0715 29.9466 20.1123 30.0205 20.0903C30.0291 20.1335 30.0354 20.1786 30.0229 20.2203C30.0104 20.2626 29.9763 20.301 29.9331 20.3063C29.8655 20.3149 29.8141 20.2472 29.7839 20.1858C29.7536 20.1243 29.7171 20.0533 29.6499 20.0418C29.6034 20.0346 29.5568 20.0615 29.5271 20.0984C29.4973 20.1354 29.4824 20.181 29.4675 20.2256C29.4306 20.3389 29.3931 20.4522 29.3562 20.5655L29.3029 20.2242C29.2957 20.1771 29.277 20.1181 29.229 20.1133C29.1819 20.1085 29.1517 20.1627 29.1311 20.2069ZM26.8131 22.701C26.7493 22.6914 26.7042 22.629 26.6927 22.5651C26.6807 22.5023 26.696 22.4365 26.7109 22.3741C26.7359 22.2699 26.7603 22.1648 26.7858 22.0602C26.8338 21.8595 26.8074 21.7919 26.708 21.6354C26.613 21.4866 26.5592 21.3263 26.6135 21.1501C26.6427 21.0551 26.7114 20.9615 26.8098 20.9471C26.8712 20.9384 26.9327 20.9624 26.9898 20.9864C27.1309 21.0464 27.2691 21.1107 27.4059 21.1799C27.4765 21.2159 27.5586 21.2826 27.5293 21.356C27.5019 21.4232 27.4103 21.4227 27.3402 21.4419C27.1957 21.4808 27.1112 21.6647 27.1765 21.8C27.2015 21.8519 27.2427 21.8936 27.2715 21.9435C27.3003 21.993 27.3157 22.0578 27.2855 22.1063C27.2499 22.1629 27.1727 22.1715 27.1189 22.2114C27.0354 22.2738 27.0282 22.3938 27.008 22.496C26.9883 22.5987 26.9163 22.7173 26.8131 22.701ZM26.1071 24.2667C26.1431 23.757 26.6543 24.1405 26.8467 23.8679C26.8976 23.7959 26.8981 23.7008 26.9312 23.6197C27.0162 23.4123 27.3695 23.2698 27.5552 23.4181C27.6608 23.5016 27.7016 23.6581 27.6503 23.7824C27.5091 23.7565 27.3685 23.7306 27.2274 23.7047C27.1247 23.6859 27.0954 23.7143 27.081 23.8088C27.069 23.8919 27.0575 23.9744 27.045 24.057C27.0339 24.1371 27.0181 24.225 26.9562 24.2773C26.8938 24.3291 26.7714 24.3061 26.7656 24.2255C26.6216 24.417 26.396 24.5451 26.157 24.5691C26.1282 24.4707 26.0994 24.369 26.1071 24.2667Z" fill="#DBDF2B"/>
<path d="M10.3328 18.3867C9.76688 18.5135 9.37424 19.0285 9.36752 19.6083C9.34592 21.4669 10.3914 23.3418 12.0526 24.2039C12.8552 24.62 13.9299 24.7741 14.5966 24.164C15.3498 23.4747 15.1717 22.2483 15.5869 21.3162C15.7405 20.9725 16.0486 20.6351 16.423 20.6725C16.5858 20.6883 16.7326 20.7738 16.8882 20.8242C17.6744 21.0781 18.5139 20.4109 19.3218 20.5832C19.9597 20.7191 20.3029 21.3258 21.2614 21.2317C21.4328 21.2149 22.9851 20.9 23.2429 20.8112C24.6915 20.3096 24.3973 18.7823 23.781 17.8842C23.4166 17.3547 22.9093 16.6511 22.2685 16.7365C22.2147 16.7437 22.16 16.7567 22.1072 16.7437C21.9896 16.7154 21.9406 16.5776 21.9138 16.4595C21.8547 16.1936 21.8115 15.9181 21.6819 15.6781C21.2984 14.9706 20.2246 15.296 19.375 14.9672C18.6013 14.6687 18.1482 13.9213 17.6475 13.3079C17.4152 13.0232 16.5699 11.8914 16.2003 12.5221C16.0626 12.7573 16.2483 13.0472 16.2536 13.3199C16.2608 13.664 15.9747 13.9467 15.6704 14.1085C15.3661 14.2703 15.0224 14.3595 14.745 14.5635C14.3998 14.817 14.1805 15.2312 13.7965 15.4218C13.4254 15.6061 12.957 15.5504 12.6152 15.7842C12.2686 16.0213 12.1611 16.4759 12.0805 16.8877C11.865 16.8167 11.6139 16.8671 11.443 17.0159C11.2083 17.2199 11.252 17.5117 11.1368 17.7719C11.0216 18.032 10.8094 18.2231 10.543 18.3239C10.4739 18.3503 10.4038 18.3709 10.3328 18.3867Z" fill="#DBDF2B"/>
<path d="M24.9128 12.2384C25.2296 12.4928 25.0568 12.9968 24.8936 13.3664C24.6776 13.8608 24.5144 14.384 24.4088 14.9168C24.3416 15.2768 24.4136 15.3584 24.6872 15.512C24.788 15.5696 25.2248 15.4496 24.932 15.8384C24.8168 15.9872 24.6152 16.0352 24.428 16.0736C24.2408 16.1072 24.0536 16.1456 23.8712 16.1024C23.6888 16.0592 23.516 15.92 23.4968 15.7328C23.4685 15.2528 23.6494 15.5201 23.252 14.7728C22.916 14.1728 22.8008 13.4768 22.556 12.8336C22.4024 12.4352 22.196 12.0464 21.8936 11.7392C21.3416 11.9792 20.6984 11.9408 20.1272 11.7584C19.5512 11.5712 19.0328 11.2544 18.5192 10.9376C18.7717 10.6491 18.3872 10.2641 18.1064 10.4864C18.3416 9.88158 18.1256 9.15198 17.6504 8.71998C18.4088 8.56158 19.1912 8.47998 19.9976 8.47998C21.956 8.47998 23.804 8.96958 25.4168 9.82878C25.3784 9.90078 25.3448 9.97758 25.3256 10.0592C25.2248 10.4528 25.3784 10.856 25.4216 11.2592C25.4648 11.6624 25.3112 12.1616 24.9128 12.2384Z" fill="#DBDF2B"/>
<g opacity="0.1">
<path d="M29.2544 26.8539C27.1616 29.6859 23.792 31.5195 20 31.5195C13.64 31.5195 8.47998 26.3595 8.47998 19.9995C8.47998 16.2027 10.3136 12.8379 13.1456 10.7451C11.72 12.6603 10.88 15.0315 10.88 17.5995C10.88 23.9595 16.04 29.1195 22.4 29.1195C24.968 29.1195 27.3392 28.2795 29.2544 26.8539Z" fill="#555555"/>
</g>
<path d="M29.9024 10.4139C29.8529 10.3578 29.8016 10.304 29.7488 10.2507C29.6552 10.1571 29.6552 10.005 29.7488 9.91139C29.8424 9.81779 29.9945 9.81779 30.0881 9.91139C30.1481 9.97091 30.2057 10.0323 30.2619 10.0952C30.3497 10.1946 30.3406 10.3463 30.2413 10.4341C30.1429 10.5219 29.9912 10.5133 29.9024 10.4139Z" fill="#555555"/>
<path d="M13.8469 31.5201C13.7149 31.5201 13.6074 31.4135 13.6069 31.2815C13.6064 31.149 13.713 31.041 13.8455 31.0401C13.9995 31.0391 14.1555 31.0338 14.3139 31.0247C14.4464 31.0185 14.5602 31.1169 14.5679 31.2498C14.576 31.3818 14.4752 31.4961 14.3427 31.5037C14.1752 31.5138 14.0106 31.5191 13.8479 31.5201C13.8479 31.5201 13.8474 31.5201 13.8469 31.5201ZM12.8855 31.4605C12.8072 31.4605 12.4439 31.3914 12.3608 31.3737C12.2307 31.3458 12.1482 31.2186 12.1755 31.089C12.2029 30.9594 12.3325 30.8802 12.4602 30.9037C12.609 30.9354 12.7616 30.9613 12.9171 30.982C13.0487 30.9997 13.1408 31.1202 13.1235 31.2522C13.1072 31.3727 13.004 31.4605 12.8855 31.4605ZM15.2859 31.3962C15.1703 31.3962 15.068 31.3122 15.0493 31.1946C15.0282 31.0636 15.117 30.9407 15.248 30.9196C15.4007 30.8946 15.5552 30.8658 15.7112 30.8332C15.8403 30.8025 15.968 30.8893 15.9949 31.0189C16.0223 31.149 15.9387 31.2757 15.8091 31.3031C15.7487 31.3156 15.3474 31.3962 15.2859 31.3962ZM11.3984 31.0751C11.241 31.0093 11.0883 30.9364 10.941 30.8562C10.8243 30.7924 10.7816 30.6465 10.845 30.5303C10.9083 30.4137 11.0538 30.3719 11.1704 30.4343C11.3034 30.5068 11.4407 30.5725 11.5827 30.6316C11.7051 30.6825 11.7632 30.8231 11.7119 30.9455C11.6629 31.0645 11.5266 31.1269 11.3984 31.0751ZM16.4648 30.9028C16.4274 30.7756 16.4999 30.6421 16.6271 30.6047C16.7773 30.5601 16.9285 30.514 17.0807 30.4636C17.2088 30.4237 17.3427 30.4919 17.3835 30.6172C17.4248 30.7429 17.3562 30.8783 17.2304 30.9201C17.0735 30.9709 16.9179 31.0194 16.7629 31.065C16.6323 31.1025 16.5013 31.0276 16.4648 30.9028ZM17.8381 30.4501C17.7887 30.3268 17.8487 30.1871 17.972 30.1386C18.1179 30.0801 18.2639 30.0191 18.4107 29.9553C18.5327 29.9034 18.6738 29.9586 18.7266 30.0801C18.7794 30.2015 18.7237 30.3431 18.6023 30.3959C18.4515 30.4617 18.3008 30.5245 18.1506 30.5841C18.0253 30.634 17.8866 30.5721 17.8381 30.4501ZM19.1648 29.8756C19.1053 29.757 19.1533 29.6125 19.2714 29.5535C19.4125 29.4825 19.5536 29.4095 19.6952 29.3346C19.8119 29.2713 19.9568 29.3169 20.0197 29.434C20.0821 29.5511 20.0375 29.6965 19.9203 29.7585C19.7759 29.8353 19.6314 29.9097 19.4874 29.9821C19.3727 30.0407 19.2258 29.9965 19.1648 29.8756ZM20.4411 29.1949C20.3739 29.0812 20.4114 28.9338 20.5256 28.8661C20.6615 28.786 20.7968 28.7034 20.9322 28.6185C21.0445 28.5479 21.1928 28.5825 21.2629 28.6943C21.333 28.8066 21.2994 28.9549 21.1866 29.025C21.0479 29.1119 20.9087 29.1969 20.7699 29.2789C20.6533 29.3481 20.5069 29.3073 20.4411 29.1949ZM21.668 28.4303C21.5927 28.3209 21.62 28.1716 21.729 28.0967C21.8595 28.0065 21.9901 27.9148 22.1202 27.8217C22.2277 27.7439 22.3775 27.7689 22.4552 27.8764C22.5325 27.9844 22.508 28.1341 22.4 28.2114C22.2675 28.3065 22.1351 28.4001 22.0021 28.4913C21.8936 28.5666 21.7434 28.5402 21.668 28.4303ZM22.8416 27.586C22.76 27.4813 22.7787 27.3306 22.8829 27.249C23.0077 27.1516 23.1325 27.0522 23.2563 26.9514C23.3595 26.8679 23.5107 26.8842 23.5938 26.9865C23.6773 27.0897 23.6615 27.2404 23.5587 27.3244C23.432 27.4271 23.3053 27.5284 23.1781 27.6277C23.0754 27.7079 22.9242 27.6911 22.8416 27.586ZM23.9639 26.6735C23.8765 26.5741 23.8861 26.4225 23.9855 26.3346C24.1045 26.23 24.2231 26.1239 24.3411 26.0164C24.4391 25.9266 24.5912 25.9338 24.6805 26.0317C24.7698 26.1297 24.7626 26.2818 24.6647 26.3706C24.5442 26.4805 24.4237 26.589 24.3023 26.6956C24.2034 26.7829 24.0517 26.7733 23.9639 26.6735ZM25.0319 25.6986C24.9387 25.6041 24.9402 25.4519 25.0347 25.3593L25.3727 25.0213C25.4653 24.9253 25.6175 24.9253 25.712 25.0175C25.8066 25.1101 25.808 25.2628 25.7154 25.3569L25.3717 25.7015C25.2762 25.7946 25.1245 25.7932 25.0319 25.6986ZM26.0442 24.6666C25.9463 24.5769 25.9395 24.4252 26.0293 24.3273C26.1373 24.2097 26.2429 24.0911 26.3475 23.9721C26.4344 23.8717 26.5861 23.8621 26.6864 23.9495C26.7863 24.0369 26.7963 24.1885 26.7085 24.2879C26.6019 24.4098 26.4935 24.5313 26.3835 24.6517C26.2928 24.7501 26.1402 24.7549 26.0442 24.6666ZM26.9629 23.242C27.0637 23.1172 27.1631 22.9929 27.2605 22.8681C27.3416 22.7634 27.4923 22.7447 27.5975 22.8263C27.7021 22.9079 27.7203 23.0586 27.6387 23.1633C27.5394 23.2905 27.4386 23.4172 27.3359 23.5439C27.1362 23.7901 26.7627 23.4897 26.9629 23.242ZM27.8874 22.4385C27.7794 22.3612 27.7549 22.2109 27.8322 22.1034C27.9253 21.9733 28.017 21.8433 28.1063 21.7127C28.1816 21.6037 28.3314 21.5759 28.4399 21.6508C28.5493 21.7257 28.5767 21.8754 28.5018 21.9844C28.4106 22.1173 28.317 22.2508 28.2219 22.3833C28.1451 22.4913 27.9949 22.5157 27.8874 22.4385ZM28.7058 21.2461C28.5935 21.1761 28.5594 21.0277 28.6295 20.9159C28.7139 20.7805 28.7965 20.6447 28.8771 20.5089C28.9448 20.3956 29.0922 20.3577 29.2059 20.4244C29.3197 20.4925 29.3576 20.6394 29.2899 20.7537C29.2079 20.8924 29.1229 21.0316 29.0365 21.1698C28.9664 21.2821 28.8176 21.3162 28.7058 21.2461ZM29.5559 20.0303C29.5179 20.0303 29.4795 20.0217 29.444 20.002C29.3269 19.9401 29.2823 19.7946 29.3442 19.6775C29.4191 19.5359 29.492 19.3948 29.5621 19.2541C29.6216 19.1356 29.7656 19.0861 29.8842 19.1461C30.0027 19.2052 30.0512 19.3492 29.9917 19.4677C29.9202 19.6122 29.8453 19.7567 29.7685 19.9021C29.7248 19.9842 29.6418 20.0303 29.5559 20.0303ZM30.0887 18.7089C29.9667 18.6565 29.9111 18.5149 29.9634 18.3935C30.0267 18.2461 30.0877 18.1002 30.1458 17.9543C30.1952 17.8314 30.3359 17.7709 30.4578 17.8209C30.5807 17.8703 30.6407 18.01 30.5917 18.1324C30.5317 18.2821 30.4693 18.4329 30.404 18.5841C30.3503 18.7089 30.2053 18.7602 30.0887 18.7089ZM30.6234 17.3649C30.4971 17.3236 30.4285 17.1882 30.4698 17.062C30.5192 16.9108 30.5658 16.7591 30.609 16.6093C30.6455 16.4826 30.7775 16.4082 30.9061 16.4452C31.0333 16.4817 31.1067 16.6151 31.0703 16.7423C31.0256 16.8978 30.9771 17.0538 30.9258 17.2113C30.885 17.3361 30.7506 17.4057 30.6234 17.3649ZM31.0232 15.9753C30.8936 15.9484 30.8101 15.8217 30.8365 15.6916C30.8687 15.5356 30.897 15.3815 30.9219 15.2279C30.9426 15.0969 31.065 15.0095 31.197 15.0287C31.3275 15.0498 31.4168 15.1732 31.3962 15.3037C31.3707 15.4636 31.341 15.6253 31.3069 15.789C31.2791 15.9234 31.1461 16.0036 31.0232 15.9753ZM31.2656 14.5492C31.2608 14.5492 31.256 14.5492 31.2512 14.5487C31.1187 14.5405 31.0179 14.4273 31.0256 14.2953C31.0352 14.1369 31.04 13.9809 31.04 13.8268C31.04 13.6948 31.1475 13.5873 31.28 13.5873C31.4125 13.5873 31.5205 13.6953 31.52 13.8277C31.52 13.9905 31.5147 14.1561 31.5047 14.3231C31.4975 14.4503 31.3914 14.5492 31.2656 14.5492ZM31.2171 13.1063C31.0986 13.1063 30.9959 13.0185 30.9795 12.898C30.9589 12.7429 30.932 12.5908 30.8999 12.4425C30.8715 12.3133 30.9536 12.1852 31.0832 12.1569C31.2114 12.1276 31.3405 12.2101 31.3688 12.3402C31.4039 12.501 31.4331 12.6661 31.4557 12.8341C31.4735 12.9657 31.3808 13.0861 31.2493 13.1044C31.2383 13.1058 31.2277 13.1063 31.2171 13.1063ZM30.6253 11.566C30.5653 11.4249 30.4991 11.2876 30.4261 11.1551C30.3623 11.0389 30.4045 10.893 30.5207 10.8287C30.6368 10.7644 30.7832 10.8076 30.8466 10.9233C30.9272 11.0701 31.0007 11.2223 31.0669 11.3783C31.1187 11.5002 31.0616 11.6413 30.9397 11.6927C30.8187 11.7445 30.6771 11.6884 30.6253 11.566Z" fill="#555555"/>
<path d="M10.0947 30.2615C10.0318 30.2053 9.97084 30.1477 9.91084 30.0877C9.81724 29.9941 9.81772 29.842 9.9118 29.7484C10.0059 29.6552 10.1576 29.6548 10.2512 29.7493C10.304 29.8026 10.3587 29.854 10.4144 29.9034C10.5132 29.9922 10.5219 30.1434 10.4336 30.2423C10.3443 30.3416 10.1931 30.3493 10.0947 30.2615Z" fill="#555555"/>
<path d="M29.9187 30.1582C29.8573 30.1582 29.7958 30.1347 29.7488 30.0882C29.6552 29.9946 29.6552 29.8424 29.7488 29.7488C29.8016 29.696 29.8534 29.6413 29.9029 29.5856C29.9912 29.4867 30.1433 29.4786 30.2417 29.5664C30.3406 29.6547 30.3493 29.8064 30.2609 29.9053C30.2053 29.9677 30.1477 30.0286 30.0881 30.0882C30.0416 30.1347 29.9801 30.1582 29.9187 30.1582Z" fill="#555555"/>
<path d="M30.5207 29.1709C30.4045 29.1065 30.3623 28.9606 30.4261 28.8445C30.4991 28.712 30.5653 28.5742 30.6253 28.4331C30.6771 28.3112 30.8183 28.2541 30.9402 28.3059C31.0621 28.3573 31.1192 28.4984 31.0674 28.6203C31.0011 28.7763 30.9277 28.9285 30.8471 29.0753C30.7827 29.1929 30.6363 29.2342 30.5207 29.1709ZM31.0827 27.8427C30.9531 27.8144 30.8711 27.6867 30.8994 27.5571C30.9315 27.4083 30.9584 27.2566 30.9791 27.1016C30.9968 26.9705 31.1178 26.8784 31.2488 26.8952C31.3803 26.9129 31.4725 27.0334 31.4552 27.1654C31.4327 27.3339 31.4039 27.4985 31.3683 27.6593C31.3405 27.7885 31.2128 27.871 31.0827 27.8427ZM31.28 26.4123C31.1475 26.4123 31.04 26.3048 31.04 26.1728C31.04 26.0187 31.0352 25.8627 31.0256 25.7043C31.0175 25.5723 31.1187 25.4585 31.2512 25.4509C31.3808 25.4403 31.497 25.544 31.5047 25.6765C31.5147 25.844 31.52 26.0096 31.52 26.1718C31.52 26.3048 31.413 26.4123 31.28 26.4123ZM30.9219 24.7712C30.8725 24.4621 30.7218 24.0862 31.0232 24.0238C31.1528 23.9945 31.28 24.08 31.3069 24.2101C31.3405 24.3737 31.3703 24.5355 31.3962 24.6953C31.4173 24.8259 31.328 24.9493 31.197 24.9704C31.0592 24.9905 30.9426 24.8969 30.9219 24.7712ZM30.609 23.3902C30.5658 23.24 30.5192 23.0888 30.4698 22.9376C30.4285 22.8113 30.4971 22.676 30.6234 22.6347C30.7511 22.5939 30.885 22.6625 30.9258 22.7883C30.9771 22.9453 31.0256 23.1013 31.0703 23.2573C31.1072 23.3849 31.0333 23.5179 30.9061 23.5544C30.7818 23.5909 30.6464 23.5198 30.609 23.3902ZM30.1458 22.0457C30.0877 21.8998 30.0267 21.7539 29.9634 21.6065C29.9111 21.4851 29.9667 21.3435 30.0887 21.2912C30.2091 21.2384 30.3517 21.2945 30.404 21.4165C30.4693 21.5672 30.5317 21.7184 30.5917 21.8677C30.6411 21.9905 30.5811 22.1302 30.4578 22.1792C30.3349 22.2286 30.1947 22.1681 30.1458 22.0457ZM29.5616 20.7449C29.4915 20.6043 29.4191 20.4632 29.3437 20.3216C29.2818 20.2045 29.3264 20.059 29.4435 19.9971C29.5611 19.9342 29.7056 19.9798 29.768 20.0965C29.8448 20.2419 29.9192 20.3864 29.9912 20.5309C30.0507 20.6494 30.0023 20.7934 29.8837 20.8525C29.7671 20.9115 29.6216 20.8649 29.5616 20.7449ZM28.8771 19.4907C28.797 19.3549 28.7139 19.2195 28.6295 19.0837C28.5594 18.9718 28.5935 18.8235 28.7058 18.7534C28.8186 18.6824 28.9664 18.7169 29.0365 18.8297C29.1234 18.968 29.2079 19.1072 29.2899 19.2459C29.3576 19.3597 29.3197 19.507 29.2059 19.5752C29.0907 19.6429 28.9443 19.604 28.8771 19.4907ZM28.1067 18.2869C28.017 18.1568 27.9258 18.0262 27.8327 17.8966C27.7554 17.7886 27.7799 17.6389 27.8879 17.5616C27.9954 17.4838 28.1451 17.5088 28.2229 17.6163C28.3179 17.7488 28.4115 17.8822 28.5027 18.0152C28.5776 18.1246 28.5503 18.2739 28.4408 18.3488C28.3314 18.4237 28.1816 18.3958 28.1067 18.2869ZM27.2605 17.1315C27.1631 17.0062 27.0637 16.8819 26.9629 16.7576C26.8794 16.6544 26.8952 16.5037 26.9984 16.4201C27.1016 16.3361 27.2523 16.3529 27.3359 16.4557C27.4386 16.5824 27.5394 16.7091 27.6387 16.8363C27.7203 16.9409 27.7016 17.0917 27.5975 17.1733C27.4943 17.2539 27.3431 17.2371 27.2605 17.1315ZM26.3475 16.028C26.2434 15.9089 26.1373 15.7904 26.0293 15.6728C25.9395 15.5749 25.9463 15.4232 26.0442 15.3334C26.1416 15.2441 26.2938 15.2509 26.3831 15.3483C26.4935 15.4688 26.6019 15.5902 26.708 15.7121C26.7954 15.8115 26.7853 15.9637 26.6859 16.0505C26.5856 16.1379 26.4344 16.1278 26.3475 16.028ZM25.3727 14.9782L25.0347 14.6403C24.9402 14.5477 24.9387 14.3955 25.0319 14.3009C25.124 14.2064 25.2762 14.2049 25.3712 14.2981L25.7149 14.6427C25.8075 14.7368 25.8061 14.8894 25.7115 14.9821C25.617 15.0747 25.4648 15.0733 25.3727 14.9782ZM24.3416 13.9832C24.2235 13.8752 24.1045 13.7696 23.9859 13.6649C23.8861 13.5771 23.8765 13.4254 23.9643 13.3261C24.0517 13.2267 24.2039 13.2171 24.3032 13.304C24.4242 13.4105 24.5451 13.519 24.6656 13.6289C24.7635 13.7177 24.7707 13.8699 24.6815 13.9678C24.5912 14.0657 24.4391 14.0725 24.3416 13.9832ZM23.2568 13.0486C23.1325 12.9478 23.0082 12.8485 22.8834 12.751C22.7787 12.6694 22.7605 12.5187 22.8421 12.4141C22.9237 12.3099 23.0739 12.2907 23.1791 12.3723C23.3063 12.4717 23.433 12.5729 23.5597 12.6757C23.6624 12.7597 23.6787 12.9104 23.5947 13.0136C23.5103 13.1163 23.3591 13.1317 23.2568 13.0486ZM22.1197 12.1779C21.9896 12.0848 21.8595 11.9931 21.729 11.9029C21.62 11.828 21.5927 11.6782 21.668 11.5693C21.7434 11.4598 21.8922 11.432 22.0021 11.5083C22.1351 11.6 22.2675 11.6931 22.4 11.7881C22.508 11.8654 22.5325 12.0157 22.4552 12.1232C22.3775 12.2307 22.2272 12.2552 22.1197 12.1779ZM20.9317 11.3811C20.7963 11.2961 20.661 11.2136 20.5251 11.1334C20.4109 11.0657 20.3735 10.9189 20.4407 10.8046C20.5083 10.6909 20.6557 10.6534 20.7695 10.7197C20.9087 10.8017 21.0474 10.8872 21.1861 10.9736C21.2984 11.0441 21.3325 11.192 21.2624 11.3048C21.1923 11.4176 21.0435 11.4512 20.9317 11.3811ZM19.6952 10.6654C19.5541 10.5905 19.4125 10.5176 19.2714 10.4465C19.1528 10.3875 19.1053 10.243 19.1648 10.1245C19.2243 10.0059 19.3679 9.95646 19.4869 10.0179C19.6314 10.0899 19.7754 10.1648 19.9199 10.2416C20.037 10.3035 20.0816 10.4489 20.0192 10.5661C19.9568 10.6841 19.8099 10.7269 19.6952 10.6654ZM18.4103 10.0448C18.2634 9.98094 18.1175 9.91998 17.9715 9.86142C17.8487 9.81246 17.7887 9.67278 17.8376 9.54942C17.8871 9.42654 18.0267 9.36606 18.1496 9.41598C18.2999 9.4755 18.4501 9.53838 18.6013 9.60414C18.7227 9.65694 18.7789 9.79854 18.7256 9.91998C18.6743 10.0385 18.5365 10.0981 18.4103 10.0448ZM10.8455 9.46926C10.7821 9.3531 10.8248 9.20718 10.9415 9.14334C11.0888 9.06318 11.241 8.98974 11.3984 8.92446C11.5208 8.87502 11.661 8.93118 11.7123 9.05358C11.7632 9.17598 11.7056 9.31662 11.5832 9.36798C11.4416 9.42702 11.3039 9.49278 11.1709 9.56526C11.0552 9.62766 10.9093 9.58638 10.8455 9.46926ZM17.0807 9.53598C16.9285 9.48606 16.7773 9.4395 16.6271 9.39486C16.4999 9.35742 16.4274 9.22398 16.4648 9.09678C16.5023 8.97006 16.6347 8.8971 16.7629 8.93454C16.9175 8.98014 17.0735 9.02814 17.2304 9.0795C17.3562 9.12126 17.4248 9.25662 17.3835 9.38238C17.3423 9.50862 17.2074 9.57678 17.0807 9.53598ZM15.7107 9.16686C15.5547 9.1347 15.4002 9.10542 15.2475 9.08046C15.1165 9.05934 15.0277 8.93598 15.0488 8.80542C15.0699 8.67534 15.1933 8.58318 15.3239 8.60718C15.4842 8.6331 15.6455 8.66286 15.8087 8.69742C15.9383 8.72478 16.0218 8.8515 15.9944 8.98158C15.9671 9.11406 15.8346 9.19518 15.7107 9.16686ZM12.1755 8.91054C12.1482 8.78094 12.2307 8.65374 12.3608 8.6259C12.5211 8.59182 12.6858 8.5635 12.8538 8.54094C12.9867 8.5227 13.1053 8.61582 13.1235 8.74734C13.1413 8.87934 13.0487 8.99934 12.9171 9.01758C12.7616 9.03822 12.609 9.06462 12.4602 9.09582C12.3229 9.12318 12.2019 9.03534 12.1755 8.91054ZM14.3288 8.97582C14.324 8.97582 14.3192 8.97582 14.3139 8.97534C14.1555 8.96574 13.9995 8.96094 13.8455 8.95998C13.713 8.95902 13.6064 8.85102 13.6069 8.71854C13.6074 8.58654 13.7149 8.47998 13.8469 8.47998H13.8479C14.0106 8.48094 14.1757 8.48622 14.3432 8.4963C14.4752 8.50446 14.576 8.61822 14.5683 8.75022C14.5602 8.8779 14.4546 8.97582 14.3288 8.97582Z" fill="#555555"/>
<path d="M10.0812 10.3213C10.0203 10.3213 9.95885 10.2978 9.91181 10.2517C9.81821 10.1576 9.81773 10.006 9.91085 9.91187C9.97085 9.85187 10.0318 9.79427 10.0947 9.73811C10.1931 9.64979 10.3448 9.65843 10.4336 9.75731C10.5219 9.85619 10.5132 10.0074 10.4144 10.0962C10.3587 10.1456 10.304 10.197 10.2512 10.2503C10.2046 10.2978 10.1427 10.3213 10.0812 10.3213Z" fill="#555555"/>
<path d="M27.3521 11.876C26.0456 11.876 24.9867 12.9344 24.9867 14.2414C24.9867 15.2408 26.3701 17.4843 27.0209 18.4846C27.1769 18.7246 27.5273 18.7246 27.6833 18.4846C28.3342 17.4843 29.7176 15.2408 29.7176 14.2414C29.7176 12.9344 28.6587 11.876 27.3521 11.876ZM27.3521 15.6944C26.5505 15.6944 25.8992 15.043 25.8992 14.2414C25.8992 13.4398 26.5505 12.7909 27.3521 12.7909C28.1537 12.7909 28.8027 13.4398 28.8027 14.2414C28.8027 15.043 28.1533 15.6944 27.3521 15.6944Z" fill="#E46047"/>
<path d="M13.0904 13.7543C12.0848 13.7543 11.2703 14.5688 11.2703 15.5744C11.2703 16.3434 12.3349 18.07 12.8355 18.8399C12.9555 19.0247 13.2253 19.0247 13.3453 18.8399C13.8464 18.07 14.9106 16.3434 14.9106 15.5744C14.9106 14.5693 14.096 13.7543 13.0904 13.7543ZM13.0904 16.6928C12.4736 16.6928 11.9725 16.1917 11.9725 15.5749C11.9725 14.9581 12.4736 14.4589 13.0904 14.4589C13.7072 14.4589 14.2064 14.9581 14.2064 15.5749C14.2064 16.1917 13.7072 16.6928 13.0904 16.6928Z" fill="#E46047"/>
</g>
<defs>
<clipPath id="clip0_2673_7">
<rect width="24" height="24" fill="white" transform="translate(8 8)"/>
</clipPath>
</defs>
</svg>
