<svg width="24" height="24" viewBox="0 0 24 24" fill="none" xmlns="http://www.w3.org/2000/svg">
<path d="M14.0031 10.0566H16.8008C17.009 10.0566 17.1932 9.92149 17.2557 9.72288L18.7721 4.90601" stroke="black" stroke-width="0.5" stroke-miterlimit="10" stroke-linecap="round" stroke-linejoin="round"/>
<path d="M15.4337 13.4904H17.7402C17.9552 13.4904 18.1437 13.6343 18.2003 13.8418L19.0726 17.0403C19.0945 17.1204 19.1368 17.1934 19.1955 17.2521L20.3936 18.4502" stroke="black" stroke-width="0.5" stroke-miterlimit="10" stroke-linecap="round" stroke-linejoin="round"/>
<path d="M17.4367 20.4375V19.1246C17.4367 18.9981 17.3865 18.8768 17.297 18.7874L15.2906 16.781" stroke="black" stroke-width="0.5" stroke-miterlimit="10" stroke-linecap="round" stroke-linejoin="round"/>
<path d="M17.4368 23.3146V22.0781" stroke="black" stroke-width="0.5" stroke-miterlimit="10" stroke-linecap="round" stroke-linejoin="round"/>
<path d="M9.99692 10.0566H7.19919C6.99097 10.0566 6.8068 9.92149 6.74431 9.72288L5.22791 4.90601" stroke="black" stroke-width="0.5" stroke-miterlimit="10" stroke-linecap="round" stroke-linejoin="round"/>
<path d="M8.56624 13.4904H6.2598C6.04474 13.4904 5.8563 13.6343 5.79973 13.8418L4.92738 17.0403C4.90554 17.1204 4.86316 17.1934 4.80452 17.2521L3.60645 18.4502" stroke="black" stroke-width="0.5" stroke-miterlimit="10" stroke-linecap="round" stroke-linejoin="round"/>
<path d="M8.70931 16.7809L6.70292 18.7873C6.61348 18.8767 6.56323 18.998 6.56323 19.1245V23.3145" stroke="black" stroke-width="0.5" stroke-miterlimit="10" stroke-linecap="round" stroke-linejoin="round"/>
<path d="M5.76587 0.351562L7.70265 3.36797C7.97964 3.79931 8.45701 4.06012 8.96963 4.06012H15.0303C15.5429 4.06012 16.0203 3.79931 16.2973 3.36797L18.2341 0.351562" stroke="black" stroke-width="0.5" stroke-miterlimit="10" stroke-linecap="round" stroke-linejoin="round"/>
<path d="M11.6605 5.07342C11.7628 5.01084 11.8802 4.97779 12 4.97779C12.1199 4.97779 12.2372 5.01084 12.3395 5.07337L14.2936 6.26883L13.9182 4.21172C13.8272 3.7125 13.3922 3.34973 12.8847 3.34973H11.1153C10.6079 3.34973 10.1729 3.7125 10.0818 4.21172L9.70642 6.26883L11.6605 5.07342Z" fill="#E9B5C6"/>
<path d="M12.743 4.21164L12.9707 5.45945L14.2936 6.26875L13.9182 4.21164C13.8271 3.71237 13.3921 3.34961 12.8846 3.34961H11.7095C12.217 3.34966 12.6519 3.71237 12.743 4.21164Z" fill="#E9B5C6"/>
<path d="M10.9219 3.3678C10.5007 3.4465 10.1611 3.77725 10.0818 4.21164L9.70642 6.26875L11.6605 5.07334C11.7628 5.01077 11.8802 4.97772 12 4.97772C12.1199 4.97772 12.2373 5.01077 12.3395 5.0733L14.2936 6.26875L13.9182 4.21164C13.8272 3.71237 13.3922 3.34961 12.8847 3.34961H12.5625" stroke="black" stroke-width="0.5" stroke-miterlimit="10" stroke-linecap="round" stroke-linejoin="round"/>
<path d="M9.72156 7.04908C10.2865 7.04908 10.7445 6.59109 10.7445 6.02613C10.7445 5.46117 10.2865 5.00317 9.72156 5.00317C9.1566 5.00317 8.69861 5.46117 8.69861 6.02613C8.69861 6.59109 9.1566 7.04908 9.72156 7.04908Z" fill="#5A464B"/>
<path d="M9.72156 7.04908C10.2865 7.04908 10.7445 6.59109 10.7445 6.02613C10.7445 5.46117 10.2865 5.00317 9.72156 5.00317C9.1566 5.00317 8.69861 5.46117 8.69861 6.02613C8.69861 6.59109 9.1566 7.04908 9.72156 7.04908Z" stroke="black" stroke-width="0.5" stroke-miterlimit="10" stroke-linecap="round" stroke-linejoin="round"/>
<path d="M14.2783 7.04908C14.8433 7.04908 15.3013 6.59109 15.3013 6.02613C15.3013 5.46117 14.8433 5.00317 14.2783 5.00317C13.7134 5.00317 13.2554 5.46117 13.2554 6.02613C13.2554 6.59109 13.7134 7.04908 14.2783 7.04908Z" fill="#554E56"/>
<path d="M14.2783 7.04908C14.8433 7.04908 15.3013 6.59109 15.3013 6.02613C15.3013 5.46117 14.8433 5.00317 14.2783 5.00317C13.7134 5.00317 13.2554 5.46117 13.2554 6.02613C13.2554 6.59109 13.7134 7.04908 14.2783 7.04908Z" fill="#5A464B" stroke="black" stroke-width="0.5" stroke-miterlimit="10" stroke-linecap="round" stroke-linejoin="round"/>
<path d="M14.1664 11.1037H9.83345C9.79543 11.1037 9.75807 11.1002 9.72156 11.0939V12.3074L11.2136 12.509C11.6351 12.5659 11.953 12.9297 11.953 13.3551H12.0467C12.0467 12.9297 12.3646 12.5659 12.7862 12.509L14.2782 12.3074V11.0939C14.2418 11.1002 14.2044 11.1037 14.1664 11.1037Z" fill="#E9B5C6"/>
<path d="M14.1664 11.1037H13.0879V12.4682L14.2783 12.3073V11.0939C14.2418 11.1002 14.2044 11.1037 14.1664 11.1037Z" fill="#E696B0"/>
<path d="M14.1664 11.1037H9.83345C9.79543 11.1037 9.75807 11.1002 9.72156 11.0939V12.3074L11.2136 12.509C11.6351 12.5659 11.953 12.9297 11.953 13.3551H12.0467C12.0467 12.9297 12.3646 12.5659 12.7862 12.509L14.2782 12.3074V11.0939C14.2418 11.1002 14.2044 11.1037 14.1664 11.1037Z" stroke="black" stroke-width="0.5" stroke-miterlimit="10" stroke-linecap="round" stroke-linejoin="round"/>
<path d="M10.9935 23.5885C9.17713 22.803 8.00122 21.0133 8.00122 19.0345V13.058C8.00122 12.5127 8.48202 12.0925 9.02244 12.1655L11.2199 12.4624C11.6667 12.5228 11.9999 12.9041 11.9999 13.3549V22.9271C11.9999 23.4454 11.4692 23.7941 10.9935 23.5885Z" fill="#E9B5C6"/>
<path d="M11.2199 12.4624L10.5769 12.3755C10.7136 12.5341 10.7955 12.7401 10.7955 12.9633V22.5355C10.7955 22.866 10.5795 23.1273 10.2997 23.2201C10.5187 23.3594 10.7502 23.4831 10.9935 23.5884C11.4692 23.7941 11.9999 23.4453 11.9999 22.9271V13.3549C11.9999 12.9041 11.6667 12.5228 11.2199 12.4624Z" fill="#E696B0"/>
<path d="M8.00122 16.4062V19.0344C8.00122 21.0133 9.17713 22.803 10.9935 23.5884C11.4692 23.7941 11.9999 23.4454 11.9999 22.9271V13.3549C11.9999 12.9041 11.6667 12.5228 11.2199 12.4624L9.02244 12.1655C8.48202 12.0925 8.00122 12.5126 8.00122 13.058V14.7656" stroke="black" stroke-width="0.5" stroke-miterlimit="10" stroke-linecap="round" stroke-linejoin="round"/>
<path d="M13.0065 23.5885C14.8228 22.803 15.9987 21.0133 15.9987 19.0345V13.058C15.9987 12.5127 15.5179 12.0925 14.9775 12.1655L12.78 12.4624C12.3333 12.5228 12 12.9041 12 13.3549V22.9271C12 23.4454 12.5308 23.7941 13.0065 23.5885Z" fill="#E9B5C6"/>
<path d="M14.9774 12.1655L14.6855 12.205C14.7659 12.3393 14.8124 12.4968 14.8124 12.6664V18.6429C14.8124 20.5475 13.7228 22.2764 12.0216 23.1038C12.1254 23.5203 12.5872 23.7698 13.0064 23.5885C14.8228 22.8031 15.9987 21.0134 15.9987 19.0345V13.058C15.9987 12.5126 15.5179 12.0925 14.9774 12.1655Z" fill="#E696B0"/>
<path d="M13.0065 23.5885C14.8228 22.803 15.9987 21.0133 15.9987 19.0345V13.058C15.9987 12.5127 15.5179 12.0925 14.9775 12.1655L12.78 12.4624C12.3333 12.5228 12 12.9041 12 13.3549V22.9271C12 23.4454 12.5308 23.7941 13.0065 23.5885Z" stroke="black" stroke-width="0.5" stroke-miterlimit="10" stroke-linecap="round" stroke-linejoin="round"/>
<path d="M11.3884 5.1848L8.83742 6.74541C8.37448 7.02863 8.16654 7.59263 8.33492 8.10858L9.16925 10.6655C9.26365 10.9547 9.53342 11.1505 9.83768 11.1505H14.1623C14.4666 11.1505 14.7364 10.9547 14.8308 10.6655L15.665 8.10858C15.8334 7.59263 15.6255 7.02863 15.1625 6.74541L12.6115 5.1848C12.2361 4.95516 11.7637 4.95516 11.3884 5.1848Z" fill="#E9B5C6"/>
<path d="M15.1626 6.74541L12.6116 5.1848C12.2362 4.95516 11.7638 4.95516 11.3885 5.1848L10.8933 5.48771C10.9427 5.50918 10.991 5.53421 11.0377 5.5628L13.5887 7.12341C14.0517 7.40663 14.2596 7.97063 14.0912 8.48659L13.2569 11.0435C13.2447 11.0808 13.2296 11.1165 13.2118 11.1505H14.1624C14.4667 11.1505 14.7364 10.9547 14.8308 10.6655L15.6651 8.10858C15.8335 7.59263 15.6255 7.02863 15.1626 6.74541Z" fill="#E696B0"/>
<path d="M11.3884 5.1848L8.83742 6.74541C8.37448 7.02863 8.16654 7.59263 8.33492 8.10858L9.16925 10.6655C9.26365 10.9547 9.53342 11.1505 9.83768 11.1505H14.1623C14.4666 11.1505 14.7364 10.9547 14.8308 10.6655L15.665 8.10858C15.8334 7.59263 15.6255 7.02863 15.1625 6.74541L12.6115 5.1848C12.2361 4.95516 11.7637 4.95516 11.3884 5.1848Z" stroke="black" stroke-width="0.5" stroke-miterlimit="10" stroke-linecap="round" stroke-linejoin="round"/>
</svg>
