<svg width="125" height="36" viewBox="0 0 125 36" fill="none" xmlns="http://www.w3.org/2000/svg">
<rect x="0.5" y="0.5" width="124" height="35" rx="8.09259" stroke="url(#paint0_linear_3904_69)"/>
<path d="M16.2725 23.1641C14.0576 23.1641 12.5947 22.1113 12.4717 20.375L12.4648 20.2725H13.9551L13.9688 20.3613C14.1055 21.2705 15.0146 21.8379 16.334 21.8379C17.6533 21.8379 18.4873 21.2432 18.4873 20.3203V20.3135C18.4873 19.5205 17.9473 19.0898 16.6416 18.8027L15.5684 18.5771C13.6338 18.167 12.6973 17.2783 12.6973 15.8154V15.8086C12.7041 14.127 14.1875 12.9717 16.2725 12.9717C18.3301 12.9717 19.7383 14.0928 19.8408 15.7471L19.8477 15.8633H18.3574L18.3506 15.7676C18.2139 14.8516 17.4209 14.2979 16.252 14.2979C15.0283 14.3047 14.249 14.8857 14.249 15.7471V15.7539C14.249 16.4922 14.8096 16.9434 16.04 17.21L17.1201 17.4355C19.1572 17.8662 20.0322 18.6934 20.0322 20.2178V20.2246C20.0322 22.0225 18.6104 23.1641 16.2725 23.1641ZM24.3252 23.1436C22.2266 23.1436 20.9141 21.7012 20.9141 19.3975V19.3906C20.9141 17.1143 22.2539 15.6719 24.3047 15.6719C26.1572 15.6719 27.2783 16.8613 27.4014 18.2148L27.4082 18.2627H26L25.9863 18.208C25.8291 17.5039 25.2822 16.9092 24.3184 16.9092C23.1699 16.9092 22.4248 17.8662 22.4248 19.4043V19.4111C22.4248 20.9834 23.1836 21.9062 24.3252 21.9062C25.2344 21.9062 25.8154 21.3799 25.9932 20.6006L26 20.5459H27.4219L27.415 20.5938C27.2578 22.0361 26.0547 23.1436 24.3252 23.1436ZM30.5801 23.1299C29.1445 23.1299 28.1807 22.248 28.1807 20.9561V20.9424C28.1807 19.6914 29.1514 18.9258 30.8535 18.8232L32.8086 18.707V18.167C32.8086 17.374 32.2959 16.8955 31.3799 16.8955C30.5254 16.8955 29.999 17.2988 29.876 17.873L29.8623 17.9346H28.4678L28.4746 17.8594C28.5771 16.6221 29.6504 15.6719 31.4209 15.6719C33.1777 15.6719 34.292 16.6016 34.292 18.0439V23H32.8086V21.8652H32.7812C32.3643 22.6377 31.5303 23.1299 30.5801 23.1299ZM29.6709 20.9219C29.6709 21.5508 30.1904 21.9473 30.9834 21.9473C32.0225 21.9473 32.8086 21.2432 32.8086 20.3066V19.7461L31.0518 19.8555C30.1631 19.9102 29.6709 20.2998 29.6709 20.9082V20.9219ZM35.7275 23V15.8086H37.2041V16.8955H37.2383C37.6143 16.1641 38.3525 15.6719 39.4395 15.6719C41.0186 15.6719 41.9277 16.6904 41.9277 18.3447V23H40.4443V18.625C40.4443 17.5449 39.9385 16.9365 38.9131 16.9365C37.874 16.9365 37.2041 17.6885 37.2041 18.8096V23H35.7275ZM46.3779 23V13.1357H47.793L52.8652 20.4297H52.9062V13.1357H54.4238V23H53.0156L47.9365 15.6924H47.8955V23H46.3779ZM59.1611 23.1436C57.0967 23.1436 55.75 21.7148 55.75 19.4043V19.3906C55.75 17.0938 57.1104 15.6719 59.1543 15.6719C61.2051 15.6719 62.5723 17.0869 62.5723 19.3906V19.4043C62.5723 21.7217 61.2188 23.1436 59.1611 23.1436ZM59.168 21.9062C60.3232 21.9062 61.0615 20.9902 61.0615 19.4043V19.3906C61.0615 17.8184 60.3096 16.9092 59.1543 16.9092C58.0195 16.9092 57.2607 17.8184 57.2607 19.3906V19.4043C57.2607 20.9971 58.0127 21.9062 59.168 21.9062ZM65.1016 23L63.126 15.8086H64.6025L65.915 21.4688H65.9424L67.4395 15.8086H68.8613L70.3652 21.4688H70.3994L71.7119 15.8086H73.1748L71.2061 23H69.668L68.1572 17.6133H68.123L66.626 23H65.1016Z" fill="url(#paint1_linear_3904_69)"/>
<path opacity="0.5" fill-rule="evenodd" clip-rule="evenodd" d="M104.25 10C104.25 9.58579 104.586 9.25 105 9.25C109.832 9.25 113.75 13.1675 113.75 18C113.75 22.8325 109.832 26.75 105 26.75C104.586 26.75 104.25 26.4142 104.25 26C104.25 25.5858 104.586 25.25 105 25.25C109.004 25.25 112.25 22.0041 112.25 18C112.25 13.9959 109.004 10.75 105 10.75C104.586 10.75 104.25 10.4142 104.25 10Z" fill="url(#paint2_linear_3904_69)"/>
<path fill-rule="evenodd" clip-rule="evenodd" d="M103.47 14.4697C103.177 14.7626 103.177 15.2374 103.47 15.5303L105.189 17.25H97C96.5858 17.25 96.25 17.5858 96.25 18C96.25 18.4142 96.5858 18.75 97 18.75H105.189L103.47 20.4697C103.177 20.7626 103.177 21.2374 103.47 21.5303C103.763 21.8232 104.237 21.8232 104.53 21.5303L107.53 18.5303C107.823 18.2374 107.823 17.7626 107.53 17.4697L104.53 14.4697C104.237 14.1768 103.763 14.1768 103.47 14.4697Z" fill="url(#paint3_linear_3904_69)"/>
<defs>
<linearGradient id="paint0_linear_3904_69" x1="-9.31323e-07" y1="18" x2="125" y2="18" gradientUnits="userSpaceOnUse">
<stop offset="0.0134415" stop-color="#EC7303"/>
<stop offset="0.469735" stop-color="#F58C0B"/>
<stop offset="1" stop-color="#FFA915"/>
</linearGradient>
<linearGradient id="paint1_linear_3904_69" x1="12" y1="18" x2="74" y2="18" gradientUnits="userSpaceOnUse">
<stop offset="0.0134415" stop-color="#EC7303"/>
<stop offset="0.469735" stop-color="#F58C0B"/>
<stop offset="1" stop-color="#FFA915"/>
</linearGradient>
<linearGradient id="paint2_linear_3904_69" x1="104.25" y1="18" x2="113.75" y2="18" gradientUnits="userSpaceOnUse">
<stop offset="0.0134415" stop-color="#EC7303"/>
<stop offset="0.469735" stop-color="#F58C0B"/>
<stop offset="1" stop-color="#FFA915"/>
</linearGradient>
<linearGradient id="paint3_linear_3904_69" x1="96.25" y1="18" x2="107.75" y2="18" gradientUnits="userSpaceOnUse">
<stop offset="0.0134415" stop-color="#EC7303"/>
<stop offset="0.469735" stop-color="#F58C0B"/>
<stop offset="1" stop-color="#FFA915"/>
</linearGradient>
</defs>
</svg>
