<svg width="22" height="22" viewBox="0 0 22 22" fill="none" xmlns="http://www.w3.org/2000/svg">
<g clip-path="url(#clip0_1944_181)">
<path d="M3.69566 20.5869C4.95631 20.5869 5.97827 19.565 5.97827 18.3043C5.97827 17.0437 4.95631 16.0217 3.69566 16.0217C2.43501 16.0217 1.41306 17.0437 1.41306 18.3043C1.41306 19.565 2.43501 20.5869 3.69566 20.5869Z" fill="#FFB618"/>
<path d="M1.80345 0.5C1.51379 0.5 1.22414 0.644828 0.934483 0.789655C0.644828 1.07931 0.5 1.51379 0.5 1.80345C0.5 2.52759 1.07931 3.1069 1.65862 3.1069C10.7828 3.97586 17.8793 11.2172 18.8931 20.3414C18.8931 21.0655 19.4724 21.5 20.1966 21.5C20.631 21.5 20.9207 21.3552 21.2103 21.0655C21.5 20.7759 21.6448 20.3414 21.5 20.0517C20.4862 9.76897 12.231 1.51379 1.94828 0.5H1.80345C1.94828 0.5 1.80345 0.5 1.80345 0.5Z" fill="#FFB618"/>
<path d="M2.67241 7.88604C2.38275 7.88604 2.0931 8.03087 1.94827 8.17569C1.51379 8.46535 1.36896 8.89983 1.36896 9.18949C1.36896 9.91362 1.80344 10.3481 2.52758 10.4929C7.01723 11.2171 10.6379 14.8378 11.3621 19.3274C11.5069 20.0516 12.0862 20.486 12.6655 20.486C13.1 20.486 13.3896 20.3412 13.6793 20.0516C13.969 19.7619 13.969 19.4722 13.969 19.0378C13.1 13.2447 8.46551 8.755 2.67241 7.74121C2.81723 7.88604 2.67241 7.88604 2.67241 7.88604Z" fill="#FFB618"/>
</g>
<defs>
<clipPath id="clip0_1944_181">
<rect width="21" height="21" fill="white" transform="translate(0.5 0.5)"/>
</clipPath>
</defs>
</svg>
