<svg width="21" height="20" viewBox="0 0 21 20" fill="none" xmlns="http://www.w3.org/2000/svg">
<path d="M11.9046 8.94727H11.6172V11.0447H11.93C12.3951 11.0367 12.7256 10.6064 12.7256 9.99873C12.7259 9.49022 12.51 8.94727 11.9046 8.94727ZM8.22461 10.3756H8.80747L8.51588 9.56681L8.22461 10.3756Z" fill="#FFA915"/>
<path d="M12.6249 5.89701C10.3633 4.59129 7.46032 5.36886 6.15428 7.63078C5.84168 8.1688 5.63891 8.76348 5.5577 9.3804C5.47649 9.99732 5.51846 10.6242 5.68117 11.2248C5.84061 11.8263 6.11776 12.3902 6.49657 12.8838C6.87538 13.3775 7.34833 13.7911 7.88805 14.1008C8.6053 14.5163 9.41957 14.7349 10.2485 14.7345C11.8866 14.7345 13.482 13.8848 14.3587 12.3674C15.6648 10.1058 14.8869 7.20273 12.6249 5.89701ZM9.87125 11.9544C9.75503 11.9963 9.62693 11.9904 9.5151 11.9379C9.40327 11.8854 9.31686 11.7906 9.27487 11.6744L9.14292 11.3078H7.88902L7.75706 11.6744C7.71225 11.7867 7.62559 11.8771 7.51537 11.9267C7.40515 11.9762 7.27999 11.981 7.16629 11.9401C7.0526 11.8991 6.95926 11.8156 6.90597 11.7071C6.85268 11.5986 6.84361 11.4737 6.88068 11.3587L7.94051 8.41737C8.03996 8.16794 8.26364 8.01635 8.51629 8.01635C8.63905 8.01602 8.75907 8.05266 8.86073 8.12148C8.96239 8.19031 9.04098 8.28814 9.08627 8.40224L10.1519 11.3587C10.2388 11.6004 10.1133 11.8675 9.87125 11.9544ZM11.9388 11.9766H11.1519C11.0907 11.9766 11.0301 11.9646 10.9736 11.9412C10.9171 11.9178 10.8658 11.8835 10.8226 11.8402C10.7793 11.797 10.745 11.7456 10.7216 11.6891C10.6982 11.6326 10.6862 11.5721 10.6862 11.5109V8.48173C10.6862 8.22458 10.8947 8.01603 11.1519 8.01603H11.905C12.9371 8.01603 13.6577 8.83158 13.6577 9.99923C13.6574 11.1093 12.9188 11.9596 11.9388 11.9766Z" fill="#FFA915"/>
<path d="M10.2551 0C4.74098 0 0.255127 4.48586 0.255127 10C0.255127 15.5141 4.74098 20 10.2551 20C15.7693 20 20.2551 15.5141 20.2551 10C20.2551 4.48586 15.7693 0 10.2551 0ZM10.2551 18.3908C8.30768 18.3926 6.42077 17.714 4.92057 16.4723L6.72129 14.6716C6.28998 14.3483 5.90567 13.9667 5.57938 13.5377L3.78285 15.3342C2.54091 13.8343 1.86227 11.9474 1.86434 10C1.86434 5.37318 5.6283 1.60922 10.2551 1.60922C12.2795 1.60922 14.1385 2.32983 15.5897 3.52773L13.7903 5.32715C14.2214 5.65045 14.6055 6.03216 14.9315 6.46133L16.7274 4.66544C17.9693 6.16557 18.6479 8.05252 18.6459 10C18.6459 14.6268 14.882 18.3908 10.2551 18.3908Z" fill="#FFA915"/>
</svg>
