<svg width="21" height="20" viewBox="0 0 21 20" fill="none" xmlns="http://www.w3.org/2000/svg">
<path d="M3.98074 14.3645C3.12894 14.4052 2.183 14.3065 1.39547 13.6258C0.80346 13.1144 0.423272 12.4843 0.328225 11.6995C0.241326 10.979 0.221411 10.2539 0.326415 9.53699C0.507457 8.30862 1.21623 7.48126 2.374 7.07482C2.70078 6.95986 2.82298 6.80326 2.85647 6.49277C3.17872 3.5418 5.5386 0.948377 8.50949 0.223305C12.7432 -0.808632 17.0818 2.12515 17.6367 6.45838C17.6774 6.77973 17.7888 6.95443 18.1355 7.07935C19.3231 7.50661 20.0455 8.35931 20.1812 9.63837C20.27 10.4775 20.3225 11.3275 20.0762 12.1494C19.7648 13.1895 19.066 13.8766 18.0323 14.2015C17.7508 14.2902 17.5996 14.4007 17.5272 14.722C16.7577 18.1138 13.3152 20.4447 9.90895 19.907C9.78222 19.8871 9.66001 19.8763 9.65549 19.7151C9.64915 19.4436 9.58669 19.1512 9.66635 18.9059C9.79851 18.4985 10.1289 18.8181 10.3425 18.8326C13.4429 19.0462 15.638 17.0538 16.3567 14.8098C16.4681 14.4622 16.4301 14.3436 16.0318 14.3554C15.2678 14.3789 15.2669 14.3572 15.2669 13.6113C15.2669 11.5149 15.2741 9.41841 15.2596 7.32194C15.2578 6.98521 15.3212 6.85033 15.6968 6.8621C16.5296 6.88835 16.5305 6.86572 16.3269 6.04832C15.5674 3.00229 12.7721 0.997258 9.66273 1.26701C6.87831 1.50961 4.50757 3.74366 4.07035 6.53079C4.03234 6.7752 4.07035 6.87477 4.35278 6.8802C5.23807 6.89831 5.23807 6.91098 5.23807 7.81709C5.23807 9.83842 5.22631 11.8588 5.24803 13.8802C5.25256 14.2848 5.14122 14.4242 4.74564 14.3699C4.53835 14.3409 4.32381 14.3645 3.98074 14.3645ZM4.03867 10.673C4.03867 9.93528 4.04048 9.19663 4.03686 8.45889C4.03596 8.31948 4.08122 8.17194 3.84496 8.12758C2.69715 7.91486 1.90238 8.41363 1.59371 9.54061C1.45883 10.033 1.52038 10.5291 1.51948 11.0224C1.51495 12.478 2.29886 13.2004 3.74448 13.1234C3.99522 13.1098 4.0441 13.0148 4.04139 12.7966C4.03324 12.0897 4.03867 11.3818 4.03867 10.673ZM16.4654 10.5816C16.4654 11.3193 16.4636 12.058 16.4672 12.7957C16.4681 12.9379 16.4319 13.0818 16.6663 13.1225C17.8168 13.3217 18.6017 12.8211 18.9094 11.6941C19.0398 11.2161 18.9846 10.7364 18.9855 10.2575C18.9891 8.77933 18.2532 8.08051 16.7967 8.12577C16.545 8.13392 16.4554 8.19909 16.4608 8.45889C16.4753 9.16585 16.4654 9.87373 16.4654 10.5816Z" fill="#FFA915"/>
</svg>
