<svg width="344" height="123" viewBox="0 0 344 123" fill="none" xmlns="http://www.w3.org/2000/svg">
<g clip-path="url(#clip0_3904_56)">
<rect width="344" height="123" rx="19" fill="#FFF4DF"/>
<g opacity="0.3" filter="url(#filter0_f_3904_56)">
<circle cx="19" cy="20" r="23" fill="#FFD589"/>
</g>
<g opacity="0.3" filter="url(#filter1_f_3904_56)">
<circle cx="127" cy="122" r="29" fill="#FFD589"/>
</g>
<g opacity="0.3" filter="url(#filter2_f_3904_56)">
<circle cx="344" cy="35" r="23" fill="#FFD589"/>
</g>
<g opacity="0.4" clip-path="url(#clip1_3904_56)">
<rect width="47.2294" height="47.2294" transform="translate(294.729 101.596) rotate(-27.2098)" fill="#FFF7E8"/>
<path d="M329.524 105.298C330.213 104.485 330.653 103.491 330.793 102.434C331.388 98.7122 330.236 94.8732 327.859 92.6541C327.482 92.2589 327.015 91.9597 326.499 91.7818C325.982 91.6038 325.431 91.5523 324.89 91.6314C324.668 91.6762 324.453 91.751 324.251 91.8536C323.625 92.2015 323.139 92.7569 322.878 93.4241C322.304 94.7622 322.006 96.2025 322.003 97.6586C322 99.1146 322.291 100.556 322.859 101.897C323.626 103.692 325.048 105.128 326.836 105.913C327.291 106.113 327.798 106.161 328.282 106.05C328.766 105.94 329.201 105.676 329.524 105.298ZM320.603 110.526C322.944 108.65 321.775 104.954 320.718 103.066C319.559 101.032 317.707 99.4824 315.5 98.7005C314.342 98.2037 313.034 98.1856 311.863 98.6502L311.841 98.6614C311.525 98.833 311.249 99.0702 311.032 99.3573C310.815 99.6444 310.662 99.9746 310.583 100.326C309.484 104.396 313.439 108.454 316.365 110.193C317.364 110.785 319.242 111.611 320.603 110.526ZM311.644 112.624C310.854 112.44 310.025 112.511 309.277 112.825C308.964 112.983 308.7 113.223 308.51 113.517C307.553 115.001 308.163 117.152 308.977 118.544C309.903 120.098 311.317 121.304 312.998 121.974C314.827 122.71 317.092 122.659 318.026 120.893C318.788 119.451 318.243 117.627 317.476 116.396C316.412 114.798 314.841 113.604 313.017 113.006C312.571 112.841 312.112 112.713 311.644 112.624ZM342.436 102.092C342.028 100.586 340.779 98.7675 339.395 98.3319C339.137 98.2467 338.865 98.2148 338.595 98.2381C338.325 98.2613 338.062 98.3392 337.822 98.467C337.636 98.5642 337.462 98.6818 337.302 98.8176C336.963 99.1023 336.655 99.4228 336.385 99.7734C335.101 101.535 334.521 103.712 334.758 105.878C334.924 107.407 335.691 109.442 337.307 110.143C337.66 110.285 338.037 110.354 338.417 110.349C338.797 110.343 339.172 110.261 339.52 110.109C342.333 109.029 343.126 104.642 342.436 102.092ZM325.75 130.866C326.878 130.488 327.924 129.901 328.835 129.136C329.013 129.001 329.188 128.863 329.367 128.725C330.125 128.094 330.939 127.534 331.798 127.05L331.841 127.028C333.674 126.232 335.651 125.821 337.649 125.821C338.066 125.794 338.483 125.765 338.899 125.728C340.717 125.572 343.031 124.998 343.74 123.151C344.676 120.719 342.415 118.219 340.985 116.945C338.967 115.221 336.642 113.894 334.132 113.034C332.691 112.503 331.203 112.113 329.687 111.87L329.338 111.813C328 111.591 326.481 111.335 325.317 112.135C324.189 113.059 323.366 114.302 322.954 115.701C321.86 118.641 321.19 121.722 320.967 124.85L320.961 124.94C320.858 125.958 320.888 126.984 321.051 127.993C321.198 128.932 321.681 129.785 322.41 130.393C322.894 130.722 323.446 130.936 324.025 131.018C324.604 131.1 325.194 131.048 325.75 130.866Z" fill="#FFD17A"/>
</g>
</g>
<defs>
<filter id="filter0_f_3904_56" x="-33.2" y="-32.2" width="104.4" height="104.4" filterUnits="userSpaceOnUse" color-interpolation-filters="sRGB">
<feFlood flood-opacity="0" result="BackgroundImageFix"/>
<feBlend mode="normal" in="SourceGraphic" in2="BackgroundImageFix" result="shape"/>
<feGaussianBlur stdDeviation="14.6" result="effect1_foregroundBlur_3904_56"/>
</filter>
<filter id="filter1_f_3904_56" x="68.8" y="63.8" width="116.4" height="116.4" filterUnits="userSpaceOnUse" color-interpolation-filters="sRGB">
<feFlood flood-opacity="0" result="BackgroundImageFix"/>
<feBlend mode="normal" in="SourceGraphic" in2="BackgroundImageFix" result="shape"/>
<feGaussianBlur stdDeviation="14.6" result="effect1_foregroundBlur_3904_56"/>
</filter>
<filter id="filter2_f_3904_56" x="291.8" y="-17.2" width="104.4" height="104.4" filterUnits="userSpaceOnUse" color-interpolation-filters="sRGB">
<feFlood flood-opacity="0" result="BackgroundImageFix"/>
<feBlend mode="normal" in="SourceGraphic" in2="BackgroundImageFix" result="shape"/>
<feGaussianBlur stdDeviation="14.6" result="effect1_foregroundBlur_3904_56"/>
</filter>
<clipPath id="clip0_3904_56">
<rect width="344" height="123" rx="19" fill="white"/>
</clipPath>
<clipPath id="clip1_3904_56">
<rect width="47.2294" height="47.2294" fill="white" transform="translate(294.729 101.596) rotate(-27.2098)"/>
</clipPath>
</defs>
</svg>
