<svg width="22" height="22" viewBox="0 0 22 22" fill="none" xmlns="http://www.w3.org/2000/svg">
<path d="M21.5625 2.875C21.5625 1.53438 20.4656 0.4375 19.125 0.4375H15.0625C14.6156 0.4375 14.25 0.803125 14.25 1.25C14.25 1.69687 14.6156 2.0625 15.0625 2.0625H18.7919L15.3062 5.54812C15.2309 5.62329 15.1712 5.71258 15.1304 5.81087C15.0896 5.90916 15.0686 6.01453 15.0686 6.12094C15.0686 6.22735 15.0896 6.33272 15.1304 6.43101C15.1712 6.5293 15.2309 6.61858 15.3062 6.69375C15.4606 6.85625 15.6637 6.9375 15.875 6.9375C16.0863 6.9375 16.2894 6.85625 16.4519 6.70188L19.9375 3.20812V6.9375C19.9375 7.38438 20.3031 7.75 20.75 7.75C21.1969 7.75 21.5625 7.38438 21.5625 6.9375V2.875ZM14.25 20.75C14.25 21.1969 14.6156 21.5625 15.0625 21.5625H19.125C20.4656 21.5625 21.5625 20.4656 21.5625 19.125V15.0625C21.5625 14.6156 21.1969 14.25 20.75 14.25C20.3031 14.25 19.9375 14.6156 19.9375 15.0625V18.7919L16.4519 15.3062C16.3767 15.231 16.2873 15.1714 16.1891 15.1306C16.0908 15.0899 15.9854 15.069 15.8791 15.069C15.7727 15.069 15.6673 15.0899 15.5691 15.1306C15.4708 15.1714 15.3815 15.231 15.3062 15.3062C15.231 15.3815 15.1714 15.4708 15.1306 15.5691C15.0899 15.6673 15.069 15.7727 15.069 15.8791C15.069 15.9854 15.0899 16.0908 15.1306 16.1891C15.1714 16.2873 15.231 16.3767 15.3062 16.4519L18.7919 19.9375H15.0625C14.6156 19.9375 14.25 20.3031 14.25 20.75ZM0.4375 19.125C0.4375 20.4656 1.53438 21.5625 2.875 21.5625H6.9375C7.38438 21.5625 7.75 21.1969 7.75 20.75C7.75 20.3031 7.38438 19.9375 6.9375 19.9375H3.20812L6.69375 16.4519C6.76897 16.3767 6.82864 16.2873 6.86935 16.1891C6.91006 16.0908 6.93102 15.9854 6.93102 15.8791C6.93102 15.7727 6.91006 15.6673 6.86935 15.5691C6.82864 15.4708 6.76897 15.3815 6.69375 15.3062C6.61853 15.231 6.52922 15.1714 6.43094 15.1306C6.33266 15.0899 6.22732 15.069 6.12094 15.069C6.01456 15.069 5.90922 15.0899 5.81093 15.1306C5.71265 15.1714 5.62335 15.231 5.54812 15.3062L2.0625 18.7919V15.0625C2.0625 14.6156 1.69687 14.25 1.25 14.25C0.803125 14.25 0.4375 14.6156 0.4375 15.0625V19.125ZM0.4375 6.9375C0.4375 7.38438 0.803125 7.75 1.25 7.75C1.69687 7.75 2.0625 7.38438 2.0625 6.9375V3.20812L5.54812 6.69375C5.71063 6.85625 5.91375 6.9375 6.125 6.9375C6.33625 6.9375 6.53937 6.85625 6.70188 6.70188C6.7772 6.62671 6.83695 6.53742 6.87773 6.43913C6.9185 6.34084 6.93949 6.23547 6.93949 6.12906C6.93949 6.02265 6.9185 5.91728 6.87773 5.81899C6.83695 5.7207 6.7772 5.63142 6.70188 5.55625L3.20812 2.0625H6.9375C7.38438 2.0625 7.75 1.69687 7.75 1.25C7.75 0.803125 7.38438 0.4375 6.9375 0.4375H2.875C1.53438 0.4375 0.4375 1.53438 0.4375 2.875V6.9375Z" fill="#B58111"/>
</svg>
