<svg width="38" height="38" viewBox="0 0 38 38" fill="none" xmlns="http://www.w3.org/2000/svg">
<circle cx="19" cy="19" r="19" fill="white" fill-opacity="0.58"/>
<path d="M12.2882 23.9948L12.274 24.009C12.0816 23.5886 11.9605 23.1113 11.9106 22.584C11.9605 23.1041 12.0958 23.5744 12.2882 23.9948ZM16.8625 17.8459C17.3122 17.8459 17.7436 17.6672 18.0616 17.3492C18.3796 17.0312 18.5583 16.5998 18.5583 16.1501C18.5583 15.7004 18.3796 15.269 18.0616 14.951C17.7436 14.633 17.3122 14.4543 16.8625 14.4543C16.4128 14.4543 15.9814 14.633 15.6634 14.951C15.3454 15.269 15.1667 15.7004 15.1667 16.1501C15.1667 16.5998 15.3454 17.0312 15.6634 17.3492C15.9814 17.6672 16.4128 17.8459 16.8625 17.8459Z" fill="white"/>
<path d="M21.9854 11.875H16.0146C13.4211 11.875 11.875 13.4211 11.875 16.0146V21.9854C11.875 22.762 12.0104 23.4389 12.274 24.0089C12.8868 25.3627 14.1978 26.1251 16.0146 26.1251H21.9854C24.5789 26.1251 26.1251 24.5789 26.1251 21.9854V16.0146C26.1251 13.4211 24.5789 11.875 21.9854 11.875ZM24.9637 19.3563C24.4079 18.8789 23.5102 18.8789 22.9544 19.3563L19.9904 21.8999C19.4347 22.3773 18.5369 22.3773 17.9812 21.8999L17.7389 21.7004C17.233 21.2587 16.4279 21.2159 15.8579 21.6007L13.1931 23.389C13.0364 22.99 12.9438 22.5269 12.9438 21.9854V16.0146C12.9438 14.0054 14.0054 12.9438 16.0146 12.9438H21.9854C23.9947 12.9438 25.0563 14.0054 25.0563 16.0146V19.4347L24.9637 19.3563Z" fill="white"/>
</svg>
