<svg width="40" height="40" viewBox="0 0 40 40" fill="none" xmlns="http://www.w3.org/2000/svg">
<circle cx="20" cy="20" r="20" fill="#F5F5F5"/>
<path fill-rule="evenodd" clip-rule="evenodd" d="M13.5 12.75C13.3619 12.75 13.25 12.8619 13.25 13V29C13.25 29.1381 13.3619 29.25 13.5 29.25H26.5C26.6381 29.25 26.75 29.1381 26.75 29V13C26.75 12.8619 26.6381 12.75 26.5 12.75H13.5ZM11.75 13C11.75 12.0335 12.5335 11.25 13.5 11.25H26.5C27.4665 11.25 28.25 12.0335 28.25 13V29C28.25 29.9665 27.4665 30.75 26.5 30.75H13.5C12.5335 30.75 11.75 29.9665 11.75 29V13Z" fill="black"/>
<path fill-rule="evenodd" clip-rule="evenodd" d="M17 9.25C17.4142 9.25 17.75 9.58579 17.75 10V13C17.75 13.4142 17.4142 13.75 17 13.75C16.5858 13.75 16.25 13.4142 16.25 13V10C16.25 9.58579 16.5858 9.25 17 9.25Z" fill="black"/>
<path fill-rule="evenodd" clip-rule="evenodd" d="M23 9.25C23.4142 9.25 23.75 9.58579 23.75 10V13C23.75 13.4142 23.4142 13.75 23 13.75C22.5858 13.75 22.25 13.4142 22.25 13V10C22.25 9.58579 22.5858 9.25 23 9.25Z" fill="black"/>
<path fill-rule="evenodd" clip-rule="evenodd" d="M15.25 17.5C15.25 17.0858 15.5858 16.75 16 16.75H24C24.4142 16.75 24.75 17.0858 24.75 17.5C24.75 17.9142 24.4142 18.25 24 18.25H16C15.5858 18.25 15.25 17.9142 15.25 17.5Z" fill="black"/>
<path fill-rule="evenodd" clip-rule="evenodd" d="M15.25 21.5C15.25 21.0858 15.5858 20.75 16 20.75H22C22.4142 20.75 22.75 21.0858 22.75 21.5C22.75 21.9142 22.4142 22.25 22 22.25H16C15.5858 22.25 15.25 21.9142 15.25 21.5Z" fill="black"/>
<path fill-rule="evenodd" clip-rule="evenodd" d="M15.25 25.5C15.25 25.0858 15.5858 24.75 16 24.75H20C20.4142 24.75 20.75 25.0858 20.75 25.5C20.75 25.9142 20.4142 26.25 20 26.25H16C15.5858 26.25 15.25 25.9142 15.25 25.5Z" fill="black"/>
</svg>
