<svg width="30" height="30" viewBox="0 0 30 30" fill="none" xmlns="http://www.w3.org/2000/svg">
<path d="M15 0.5C23.0081 0.5 29.5 6.99187 29.5 15C29.5 23.0081 23.0081 29.5 15 29.5C6.99187 29.5 0.5 23.0081 0.5 15C0.5 6.99187 6.99187 0.5 15 0.5Z" stroke="#EAEAEA"/>
<path d="M18.75 16.4711V7.46875C18.75 7.20987 18.5401 7 18.2812 7H8.90625C8.64737 7 8.4375 7.20987 8.4375 7.46875V20.6562C8.4375 20.9151 8.64737 21.125 8.90625 21.125H15.317C15.8446 22.2326 16.9749 23 18.2812 23C20.0905 23 21.5625 21.528 21.5625 19.7188C21.5625 18.0686 20.338 16.6993 18.75 16.4711ZM9.375 20.1875V7.9375H17.8125V16.4711C16.2245 16.6993 15 18.0686 15 19.7188C15 19.8779 15.0116 20.0343 15.0336 20.1875H9.375ZM18.2812 22.0625C16.9889 22.0625 15.9375 21.0111 15.9375 19.7188C15.9375 18.4264 16.9889 17.375 18.2812 17.375C19.5736 17.375 20.625 18.4264 20.625 19.7188C20.625 21.0111 19.5736 22.0625 18.2812 22.0625Z" fill="#FFB618"/>
<path d="M18.8873 18.6842L17.8125 19.759L17.4408 19.3873C17.2578 19.2043 16.961 19.2043 16.7779 19.3873C16.5949 19.5704 16.5949 19.8672 16.7779 20.0502L17.481 20.7534C17.5726 20.8449 17.6925 20.8907 17.8125 20.8907C17.9324 20.8907 18.0524 20.8449 18.1439 20.7534L19.5502 19.3471C19.7332 19.164 19.7332 18.8673 19.5502 18.6842C19.3672 18.5011 19.0704 18.5011 18.8873 18.6842Z" fill="#FFB618"/>
<path d="M10.7812 10.8125C11.0401 10.8125 11.25 10.6026 11.25 10.3438C11.25 10.0849 11.0401 9.875 10.7812 9.875C10.5224 9.875 10.3125 10.0849 10.3125 10.3438C10.3125 10.6026 10.5224 10.8125 10.7812 10.8125Z" fill="#FFB618"/>
<path d="M10.7812 12.6875C11.0401 12.6875 11.25 12.4776 11.25 12.2188C11.25 11.9599 11.0401 11.75 10.7812 11.75C10.5224 11.75 10.3125 11.9599 10.3125 12.2188C10.3125 12.4776 10.5224 12.6875 10.7812 12.6875Z" fill="#FFB618"/>
<path d="M10.7812 14.5625C11.0401 14.5625 11.25 14.3526 11.25 14.0938C11.25 13.8349 11.0401 13.625 10.7812 13.625C10.5224 13.625 10.3125 13.8349 10.3125 14.0938C10.3125 14.3526 10.5224 14.5625 10.7812 14.5625Z" fill="#FFB618"/>
<path d="M10.7812 16.4375C11.0401 16.4375 11.25 16.2276 11.25 15.9688C11.25 15.7099 11.0401 15.5 10.7812 15.5C10.5224 15.5 10.3125 15.7099 10.3125 15.9688C10.3125 16.2276 10.5224 16.4375 10.7812 16.4375Z" fill="#FFB618"/>
<path d="M12.6562 10.8125H16.4062C16.6651 10.8125 16.875 10.6026 16.875 10.3438C16.875 10.0849 16.6651 9.875 16.4062 9.875H12.6562C12.3974 9.875 12.1875 10.0849 12.1875 10.3438C12.1875 10.6026 12.3974 10.8125 12.6562 10.8125ZM12.6562 12.6875H16.4062C16.6651 12.6875 16.875 12.4776 16.875 12.2188C16.875 11.9599 16.6651 11.75 16.4062 11.75H12.6562C12.3974 11.75 12.1875 11.9599 12.1875 12.2188C12.1875 12.4776 12.3974 12.6875 12.6562 12.6875ZM12.6562 14.5625H16.4062C16.6651 14.5625 16.875 14.3526 16.875 14.0938C16.875 13.8349 16.6651 13.625 16.4062 13.625H12.6562C12.3974 13.625 12.1875 13.8349 12.1875 14.0938C12.1875 14.3526 12.3974 14.5625 12.6562 14.5625ZM14.5312 15.5H12.6562C12.3974 15.5 12.1875 15.7099 12.1875 15.9688C12.1875 16.2276 12.3974 16.4375 12.6562 16.4375H14.5312C14.7901 16.4375 15 16.2276 15 15.9688C15 15.7099 14.7901 15.5 14.5312 15.5Z" fill="#FFB618"/>
</svg>
