<svg width="36" height="36" viewBox="0 0 36 36" fill="none" xmlns="http://www.w3.org/2000/svg">
<path d="M35.5 18C35.5 27.665 27.665 35.5 18 35.5C8.33502 35.5 0.5 27.665 0.5 18C0.5 8.33502 8.33502 0.5 18 0.5C27.665 0.5 35.5 8.33502 35.5 18Z" fill="#EAEAEA" stroke="white"/>
<path d="M20.2559 23.8145C20.5679 24.0873 21.0417 24.0554 21.3144 23.7437C21.5869 23.4317 21.555 22.9579 21.2433 22.6852L15.8886 18.0001L21.2435 13.3148C21.5556 13.042 21.5872 12.5683 21.3147 12.2566C21.042 11.9445 20.5682 11.9127 20.2562 12.1854L14.2563 17.4354C14.1758 17.5059 14.1113 17.5927 14.0671 17.6901C14.0229 17.7875 14 17.8932 14 18.0001C14 18.1071 14.0229 18.2128 14.0671 18.3102C14.1113 18.4076 14.1758 18.4944 14.2563 18.5649L20.2559 23.8145Z" fill="#727272"/>
</svg>
