<svg width="65" height="68" viewBox="0 0 65 68" fill="none" xmlns="http://www.w3.org/2000/svg">
<circle cx="32.5" cy="32.5" r="32.5" fill="#BEB2FF" fill-opacity="0.5"/>
<path d="M34.7421 5.35153H30.9384V31.3525H34.7421V5.35153Z" fill="#A899FF"/>
<path d="M20.1301 31.3525C19.82 31.3525 19.5058 31.2726 19.2189 31.1045L11.8869 26.8091C11.5396 26.6056 11.1265 26.5626 10.746 26.688L5.43111 29.0992C4.52264 29.5113 3.45229 29.109 3.04008 28.2007C2.62799 27.2922 3.0303 26.2217 3.93865 25.8095L9.32375 23.3666C9.36259 23.3489 9.40208 23.3327 9.44207 23.3178C10.8556 22.7937 12.4123 22.9302 13.7129 23.6923L21.0448 27.9876C21.9056 28.4919 22.1945 29.5984 21.6902 30.459C21.3541 31.0329 20.7503 31.3525 20.1301 31.3525Z" fill="#A899FF"/>
<path d="M2.75809 41.2833C2.3069 41.2833 1.8552 41.1154 1.50468 40.7774C0.786636 40.0851 0.765689 38.9417 1.45796 38.2235L5.15382 34.3902C6.21058 33.3037 7.67537 32.7584 9.17671 32.8872L17.643 33.6148C18.6368 33.7003 19.3732 34.5753 19.2878 35.5692C19.2023 36.563 18.3272 37.2989 17.3336 37.214L8.86746 36.4861C8.44978 36.4507 8.0415 36.6022 7.74887 36.9031L4.0586 40.7308C3.70415 41.0984 3.2315 41.2833 2.75809 41.2833Z" fill="#A899FF"/>
<path d="M6.00468 57.0419C5.81108 57.0419 5.6143 57.0106 5.42095 56.9445C4.47693 56.6222 3.97293 55.5956 4.29526 54.6516L6.17975 49.1318C6.59705 47.7049 7.61458 46.5474 8.97894 45.951L16.7646 42.5467C17.6785 42.1472 18.7434 42.5641 19.1431 43.4782C19.5427 44.392 19.1257 45.457 18.2117 45.8567L10.4261 49.2609C10.0414 49.4289 9.75589 49.757 9.64252 50.1613C9.63338 50.1934 9.62361 50.2252 9.61269 50.2569L7.71373 55.8188C7.45753 56.5694 6.75586 57.0419 6.00468 57.0419Z" fill="#A899FF"/>
<path d="M15.49 65.6486C15.4673 65.6486 15.4446 65.6482 15.4217 65.6473C14.425 65.6102 13.6469 64.7722 13.6839 63.7754L13.9002 57.9553C13.9463 56.4598 14.6585 55.069 15.854 54.1507L22.5927 48.9743C23.384 48.3666 24.5177 48.5153 25.1254 49.3063C25.733 50.0973 25.5843 51.2313 24.7933 51.839L18.0545 57.0154C17.7218 57.2711 17.5233 57.6584 17.5104 58.078L17.2938 63.9094C17.2576 64.8834 16.4565 65.6486 15.49 65.6486Z" fill="#A899FF"/>
<path d="M44.8698 31.3525C45.18 31.3525 45.4942 31.2726 45.7811 31.1045L53.113 26.8091C53.4604 26.6056 53.8735 26.5626 54.2539 26.688L59.5688 29.0992C60.4773 29.5113 61.5477 29.109 61.9599 28.2007C62.372 27.2922 61.9697 26.2217 61.0613 25.8095L55.6762 23.3666C55.6374 23.3489 55.5979 23.3327 55.5579 23.3178C54.1444 22.7937 52.5877 22.9302 51.2871 23.6923L43.9551 27.9876C43.0944 28.4919 42.8054 29.5984 43.3097 30.459C43.6459 31.0329 44.2497 31.3525 44.8698 31.3525Z" fill="#A899FF"/>
<path d="M62.2419 41.2833C62.6931 41.2833 63.1448 41.1154 63.4953 40.7774C64.2133 40.0851 64.2343 38.9417 63.542 38.2235L59.8461 34.3902C58.7894 33.3037 57.3246 32.7584 55.8232 32.8872L47.357 33.6148C46.3632 33.7003 45.6267 34.5753 45.7122 35.5692C45.7976 36.563 46.6727 37.2989 47.6664 37.214L56.1325 36.4861C56.5503 36.4507 56.9585 36.6022 57.2511 36.9031L60.9414 40.7308C61.2958 41.0984 61.7685 41.2833 62.2419 41.2833Z" fill="#A899FF"/>
<path d="M58.9953 57.0419C59.1889 57.0419 59.3857 57.0106 59.579 56.9445C60.5231 56.6222 61.0271 55.5956 60.7047 54.6516L58.8202 49.1318C58.4029 47.7049 57.3854 46.5474 56.0211 45.951L48.2354 42.5467C47.3215 42.1472 46.2566 42.5641 45.8569 43.4782C45.4573 44.392 45.8743 45.457 46.7883 45.8567L54.5739 49.2609C54.9586 49.4289 55.2441 49.757 55.3575 50.1613C55.3666 50.1934 55.3764 50.2252 55.3873 50.2569L57.2863 55.8188C57.5425 56.5694 58.2441 57.0419 58.9953 57.0419Z" fill="#A899FF"/>
<path d="M49.5099 65.6486C49.5327 65.6486 49.5554 65.6482 49.5782 65.6473C50.575 65.6102 51.3531 64.7722 51.3161 63.7754L51.0998 57.9553C51.0537 56.4598 50.3415 55.069 49.146 54.1507L42.4073 48.9743C41.616 48.3666 40.4823 48.5153 39.8746 49.3063C39.267 50.0973 39.4157 51.2313 40.2067 51.839L46.9455 57.0154C47.2782 57.2711 47.4767 57.6584 47.4896 58.078L47.7062 63.9094C47.7424 64.8834 48.5435 65.6486 49.5099 65.6486Z" fill="#A899FF"/>
<path d="M30.9384 31.3524H34.7421V19.5919H30.9384V31.3524Z" fill="#BEB2FF"/>
<path d="M34.9685 23.4005H30.7121C21.4351 23.4005 13.9147 30.921 13.9147 40.1979C13.9147 49.4749 21.4351 56.9954 30.7121 56.9954H34.9685C44.2454 56.9954 51.7659 49.4749 51.7659 40.1979C51.7659 30.921 44.2454 23.4005 34.9685 23.4005Z" fill="#A899FF"/>
<path d="M17.7233 40.1979C17.7233 30.921 25.2437 23.4005 34.5207 23.4005H30.7121C21.4351 23.4005 13.9147 30.921 13.9147 40.1979C13.9147 49.4749 21.4351 56.9954 30.7121 56.9954H34.5207C25.2437 56.9954 17.7233 49.4749 17.7233 40.1979Z" fill="#BEB2FF"/>
<path d="M23.7792 41.8947V43.9871" stroke="#353538" stroke-width="2" stroke-miterlimit="10" stroke-linecap="round" stroke-linejoin="round"/>
<path d="M22.3755 41.4668L25.2521 42.4406" stroke="#353538" stroke-width="2" stroke-miterlimit="10" stroke-linecap="round" stroke-linejoin="round"/>
<path d="M41.1754 41.9266V44.0189" stroke="#353538" stroke-width="2" stroke-miterlimit="10" stroke-linecap="round" stroke-linejoin="round"/>
<path d="M42.5335 41.4668L39.6569 42.4406" stroke="#353538" stroke-width="2" stroke-miterlimit="10" stroke-linecap="round" stroke-linejoin="round"/>
<path d="M34.5897 43.6768C34.0859 44.253 33.3166 44.6215 32.4546 44.6215C31.5925 44.6215 30.8232 44.253 30.3195 43.6768" stroke="#353538" stroke-width="2" stroke-miterlimit="10" stroke-linecap="round" stroke-linejoin="round"/>
<path d="M30.9384 13.6291V23.4005H34.7421V5.35146H30.9384V9.8357" stroke="#353538" stroke-miterlimit="10" stroke-linecap="round" stroke-linejoin="round"/>
<path d="M61.0614 25.8096L55.6763 23.3665C55.6374 23.349 55.598 23.3327 55.558 23.3179C54.1445 22.7938 52.5878 22.9303 51.2871 23.6924L45.4783 27.0953C46.4509 27.8765 47.3346 28.7634 48.112 29.739L53.1131 26.8092C53.4603 26.6057 53.8734 26.5626 54.254 26.6879L59.5689 29.0993C60.4774 29.5114 61.5477 29.1091 61.96 28.2006C62.372 27.2922 61.9697 26.2218 61.0614 25.8096Z" stroke="#353538" stroke-miterlimit="10" stroke-linecap="round" stroke-linejoin="round"/>
<path d="M63.5421 38.2236L59.8463 34.3901C58.7896 33.3038 57.3247 32.7585 55.8233 32.8872L50.3151 33.3607C50.8136 34.478 51.1937 35.6596 51.4394 36.8897L56.1327 36.4863C56.5504 36.4509 56.9585 36.6023 57.2513 36.9032L60.9414 40.7308C61.2959 41.0985 61.7686 41.2834 62.2419 41.2834C62.6931 41.2834 63.1449 41.1154 63.4953 40.7775C64.2135 40.0851 64.2343 38.9417 63.5421 38.2236Z" stroke="#353538" stroke-miterlimit="10" stroke-linecap="round" stroke-linejoin="round"/>
<path d="M60.7048 54.6517L58.8203 49.1319C58.403 47.7048 57.3854 46.5475 56.021 45.9511L51.3535 43.9102C51.0836 45.1062 50.686 46.2538 50.1759 47.3381L54.5739 49.261C54.9586 49.429 55.2441 49.7572 55.3575 50.1614C55.3666 50.1935 55.3764 50.2254 55.3872 50.257L57.2862 55.8189C57.5425 56.5695 58.2442 57.042 58.9953 57.042C59.1889 57.042 59.3856 57.0108 59.5791 56.9446C60.5231 56.6223 61.0271 55.5957 60.7048 54.6517Z" stroke="#353538" stroke-miterlimit="10" stroke-linecap="round" stroke-linejoin="round"/>
<path d="M49.1459 54.1507L46.6692 52.2481C45.7762 53.1154 44.7876 53.8847 43.72 54.5377L46.9455 57.0154C47.2782 57.2711 47.4766 57.6583 47.4896 58.078L47.7062 63.9094C47.7424 64.8834 48.5433 65.6486 49.5099 65.6486C49.5325 65.6486 49.5552 65.6482 49.5781 65.6473C50.5749 65.6102 51.353 64.7722 51.316 63.7754L51.0998 57.9552C51.0537 56.4598 50.3415 55.069 49.1459 54.1507Z" stroke="#353538" stroke-miterlimit="10" stroke-linecap="round" stroke-linejoin="round"/>
<path d="M18.715 51.953L15.8541 54.1507C14.6586 55.0689 13.9464 56.4598 13.9003 57.9552L13.684 63.7752C13.6471 64.7721 14.4252 65.6101 15.4219 65.6472C15.4447 65.6481 15.4674 65.6484 15.4902 65.6484C16.4567 65.6484 17.2577 64.8834 17.2939 63.9093L17.5105 58.0778C17.5234 57.6583 17.7219 57.2709 18.0546 57.0152L21.587 54.3019C20.544 53.6257 19.5812 52.837 18.715 51.953Z" stroke="#353538" stroke-miterlimit="10" stroke-linecap="round" stroke-linejoin="round"/>
<path d="M14.2681 43.6384L8.97908 45.951C7.61471 46.5474 6.59718 47.7048 6.17989 49.1319L4.29539 54.6516C3.97306 55.5957 4.47694 56.6222 5.42096 56.9446C5.61444 57.0106 5.81122 57.042 6.00482 57.042C6.756 57.042 7.45767 56.5695 7.71399 55.8189L9.61283 50.2569C9.62374 50.2252 9.63352 50.1934 9.64253 50.1613C9.7559 49.7572 10.0415 49.429 10.4262 49.2609L15.3898 47.0906C14.8971 45.9972 14.5184 44.8413 14.2681 43.6384Z" stroke="#353538" stroke-miterlimit="10" stroke-linecap="round" stroke-linejoin="round"/>
<path d="M15.3408 33.4171L9.17676 32.8872C7.67541 32.7585 6.2105 33.3037 5.15374 34.3902L1.45801 38.2236C0.765736 38.9417 0.786555 40.0851 1.50473 40.7775C1.85512 41.1154 2.30695 41.2833 2.75814 41.2833C3.23142 41.2833 3.70419 41.0985 4.05864 40.7308L7.74879 36.9031C8.04142 36.6023 8.4497 36.4507 8.86737 36.4863L14.2301 36.9472C14.4715 35.7171 14.8469 34.5351 15.3408 33.4171Z" stroke="#353538" stroke-miterlimit="10" stroke-linecap="round" stroke-linejoin="round"/>
<path d="M19.9189 27.328L13.7129 23.6923C12.4123 22.9302 10.8556 22.7938 9.44212 23.3178C9.40213 23.3327 9.36264 23.3489 9.3238 23.3664L3.9387 25.8095C3.03035 26.2217 2.62804 27.2922 3.04 28.2007C3.45222 29.109 4.52268 29.5114 5.43116 29.0993L10.7461 26.6879C11.1267 26.5626 11.5398 26.6058 11.887 26.8092L17.3554 30.0127C18.1088 29.026 18.9691 28.1255 19.9189 27.328Z" stroke="#353538" stroke-miterlimit="10" stroke-linecap="round" stroke-linejoin="round"/>
<path d="M34.9685 23.4005H30.7121C21.4351 23.4005 13.9147 30.921 13.9147 40.1979C13.9147 49.4749 21.4351 56.9954 30.7121 56.9954H34.9685C44.2454 56.9954 51.7659 49.4749 51.7659 40.1979C51.7659 30.921 44.2454 23.4005 34.9685 23.4005Z" stroke="#353538" stroke-miterlimit="10" stroke-linecap="round" stroke-linejoin="round"/>
</svg>
