<svg width="24" height="24" viewBox="0 0 24 24" fill="none" xmlns="http://www.w3.org/2000/svg">
<g clip-path="url(#clip0_2414_76)">
<path fill-rule="evenodd" clip-rule="evenodd" d="M11.9069 19.0262C13.6517 19.0262 15.2592 17.0006 15.2592 15.3302L15.2583 14.134L18.0744 16.2446L19.0023 19.0632L19.0172 22.7918C19.0181 23.0251 19.2082 23.2133 19.4415 23.2123C19.6748 23.2118 19.8629 23.0212 19.862 22.7885L19.8471 19.0224C19.8514 18.9686 19.8452 18.9124 19.8269 18.8577L18.8367 15.8553C18.8108 15.7756 18.7608 15.7036 18.6888 15.6494L14.4101 12.4425C14.3741 12.4156 14.3434 12.3926 14.3021 12.3739V12.3009L17.7173 12.2942L20.7999 14.6577L23.2061 17.7638C23.3482 17.9486 23.6141 17.9822 23.7989 17.8401C23.9837 17.6976 24.0173 17.4317 23.8752 17.2468L21.4426 14.1076L21.3567 14.0198L18.1172 11.5368C18.0461 11.4825 17.9578 11.4499 17.8613 11.4499L14.3021 11.4566V11.3424L18.5069 9.93021L23.5556 10.2024C23.7884 10.2144 23.9876 10.0348 23.9996 9.80205C24.0111 9.56925 23.8316 9.37005 23.5988 9.35805L18.4714 9.08157C18.42 9.07869 18.3672 9.08541 18.3159 9.10269L14.1341 10.5072L14.0842 10.4097L19.3224 7.13421C19.4031 7.08429 19.4669 7.00749 19.4996 6.91101L21.3864 1.34541C21.4613 1.12413 21.3428 0.883648 21.1215 0.809248C20.9007 0.734848 20.6602 0.852928 20.5853 1.07421L18.7469 6.49677L13.5212 9.76365C13.3704 9.64845 13.2015 9.55053 13.0196 9.47181V8.84349C13.0196 8.60925 12.8295 8.41965 12.5952 8.41965C12.361 8.41965 12.1714 8.60925 12.1714 8.84349V9.27021C12.0562 9.26253 11.9415 9.26253 11.8263 9.27021V8.84349C11.8263 8.60925 11.6367 8.41965 11.4024 8.41965C11.1682 8.41965 10.9781 8.60925 10.9781 8.84349V9.47229C10.7957 9.55101 10.6277 9.64941 10.4765 9.76413L5.25076 6.49677L3.41428 1.07469C3.3394 0.853408 3.09892 0.734848 2.87812 0.809728C2.65636 0.884128 2.53828 1.12461 2.61316 1.34589L4.50004 6.91149C4.53268 7.00797 4.597 7.08477 4.67717 7.13469L9.9154 10.4102L9.86548 10.5076L5.68372 9.10317C5.63236 9.08589 5.57957 9.07869 5.5282 9.08205L0.401325 9.35901C0.168525 9.37101 -0.0109952 9.56973 0.000524844 9.80301C0.0125248 10.0363 0.211245 10.2153 0.444525 10.2033L5.49364 9.93117L9.69844 11.3433V11.4576L6.13924 11.4508C6.04276 11.4508 5.95444 11.483 5.8834 11.5377L2.64388 14.0208L2.55748 14.1086L0.124845 17.2478C-0.0172352 17.4326 0.0163649 17.698 0.201165 17.8411C0.385485 17.9832 0.651405 17.9496 0.793965 17.7648L3.2002 14.6587L6.28276 12.2952L9.69796 12.3019V12.3748C9.65621 12.3936 9.62548 12.4166 9.59044 12.4435L5.31124 15.6504C5.23972 15.7046 5.1898 15.7766 5.1634 15.8563L4.17316 18.8587C4.15492 18.9134 4.14917 18.9696 4.15301 19.0233L4.13812 22.7894C4.13717 23.0227 4.32532 23.2128 4.5586 23.2132C4.7914 23.2137 4.98196 23.0256 4.98292 22.7928L4.9978 19.0641L5.92564 16.2456L8.74181 14.1345L8.74084 15.3312C8.74084 16.9046 10.2125 19.0262 11.9069 19.0262ZM12 12.8116C12.7224 12.8112 13.3594 12.767 13.9306 13.2408C14.2272 13.4875 14.4116 13.823 14.4116 14.1868V15.3307C14.4116 16.5422 13.1818 18.179 11.9069 18.179C10.6992 18.179 9.589 16.44 9.589 15.3307V14.1868C9.589 13.8235 9.77332 13.4875 10.07 13.2408C10.6426 12.7608 11.2868 12.8112 12 12.8116ZM12.7872 14.1796H11.2128C11.1586 14.1796 11.1178 14.2171 11.1264 14.2728L11.3309 15.4132L10.9949 16.7121C10.98 16.7683 11.0256 16.8091 11.0794 16.8091H12.9202C12.974 16.8091 13.0196 16.7683 13.0047 16.7121L12.6682 15.4132L12.8727 14.2728C12.8823 14.2161 12.8405 14.1796 12.7872 14.1796ZM13.057 10.4731C13.3023 10.6771 13.4549 10.954 13.4549 11.2531V12.0672L13.4084 12.0552C12.9562 11.9318 12.4632 11.964 12.0005 11.964C11.5128 11.964 11.0717 11.9342 10.5927 12.0552L10.5461 12.0672V11.2531C10.5461 10.954 10.6992 10.6771 10.944 10.4731C11.2109 10.2508 11.5848 10.1131 12.001 10.1131C12.4162 10.1126 12.7901 10.2508 13.057 10.4731Z" fill="black"/>
</g>
<defs>
<clipPath id="clip0_2414_76">
<rect width="24" height="24" fill="white"/>
</clipPath>
</defs>
</svg>
