<svg width="24" height="24" viewBox="0 0 24 24" fill="none" xmlns="http://www.w3.org/2000/svg">
<path d="M0.916656 7.55119C1.03806 5.10152 1.40125 3.5742 2.48774 2.48771C3.57423 1.40122 5.10155 1.03803 7.55122 0.916626M23.0833 7.55119C22.9619 5.10152 22.5987 3.5742 21.5122 2.48771C20.4257 1.40122 18.8984 1.03803 16.4488 0.916626M16.4488 23.0833C18.8984 22.9619 20.4257 22.5987 21.5122 21.5122C22.5987 20.4257 22.9619 18.8984 23.0833 16.4487M7.55121 23.0833C5.10155 22.9619 3.57423 22.5987 2.48774 21.5122C1.40125 20.4257 1.03806 18.8984 0.916656 16.4487" stroke="white" stroke-width="1.75" stroke-linecap="round" stroke-linejoin="round"/>
<path d="M0.916504 12H23.0832" stroke="white" stroke-width="1.75" stroke-linecap="round"/>
<path d="M5 12C5 8.13401 8.13401 5 12 5C12 6.933 13.567 8.5 15.5 8.5C16.2881 8.5 17.0154 8.2395 17.6005 7.79992C18.4793 8.96986 19 10.4241 19 12M18.0635 15.5C16.8532 17.5923 14.591 19 12 19C9.40901 19 7.14681 17.5923 5.93648 15.5" stroke="white" stroke-width="1.75" stroke-linecap="round" stroke-linejoin="round"/>
</svg>
