<svg width="40" height="40" viewBox="0 0 40 40" fill="none" xmlns="http://www.w3.org/2000/svg">
<circle cx="20" cy="20" r="20" fill="#F5F5F5"/>
<path d="M30.3915 10.3216C30.3569 10.2866 30.3157 10.2587 30.2703 10.2396C30.2249 10.2205 30.1762 10.2105 30.1269 10.2102C30.0776 10.2099 30.0288 10.2194 29.9832 10.238C29.9376 10.2566 29.8961 10.2841 29.8611 10.3187C29.8611 10.3187 28.5571 11.6087 26.7376 13.4088C22.1625 13.4091 14.455 13.4086 9.8676 13.4088C9.76943 13.4108 9.67594 13.4512 9.60722 13.5213C9.53849 13.5915 9.5 13.6858 9.5 13.7839C9.5 13.8821 9.5385 13.9764 9.60723 14.0466C9.67596 14.1167 9.76945 14.1571 9.86763 14.1591H11.8452C12.3113 14.635 14.2616 16.7899 13.8174 18.9671L11.6187 19.9048C11.5292 19.9451 11.459 20.0189 11.4233 20.1104C11.3875 20.2019 11.3891 20.3037 11.4276 20.394C11.4661 20.4844 11.5385 20.556 11.6292 20.5936C11.72 20.6311 11.8218 20.6316 11.9129 20.5949L14.196 19.6212C14.6869 19.7078 16.9741 20.25 17.288 22.7574C16.1607 23.8727 15.4305 24.595 15.4305 24.595C15.3625 24.6655 15.3247 24.7599 15.3253 24.8579C15.3259 24.9559 15.3648 25.0498 15.4337 25.1194C15.5026 25.1891 15.596 25.2291 15.694 25.2308C15.792 25.2324 15.8868 25.1957 15.958 25.1284L17.8398 23.2668C18.4434 23.2811 20.8234 23.4672 21.5446 25.389L20.5565 27.6946C20.5173 27.7861 20.516 27.8893 20.553 27.9817C20.5899 28.0741 20.662 28.148 20.7534 28.1872C20.8449 28.2264 20.9481 28.2277 21.0405 28.1908C21.1329 28.1538 21.2068 28.0817 21.246 27.9903C21.246 27.9903 21.6357 27.081 22.2157 25.7277C23.0325 25.5957 23.8699 25.6924 24.6351 26.0071C25.4004 26.3218 26.0635 26.8422 26.5512 27.5107V29.4212C26.5528 29.5196 26.5931 29.6134 26.6633 29.6824C26.7334 29.7514 26.8279 29.79 26.9263 29.79C27.0247 29.79 27.1192 29.7513 27.1893 29.6824C27.2595 29.6134 27.2998 29.5196 27.3014 29.4212V13.9063L30.3886 10.8521C30.4593 10.7821 30.4993 10.687 30.4999 10.5875C30.5004 10.488 30.4615 10.3924 30.3915 10.3216ZM23.1525 18.0109L25.8506 15.3416C25.5197 16.1138 24.9921 17.3449 24.3949 18.7383C24.05 18.3933 23.6222 18.1428 23.1525 18.0109ZM24.0631 19.5125C23.8021 20.1216 23.5336 20.7479 23.2659 21.3728C22.612 20.763 21.7882 20.3664 20.9038 20.2356L22.5135 18.643C22.8182 18.6719 23.1134 18.7641 23.3803 18.9139C23.6471 19.0636 23.8797 19.2676 24.0631 19.5125ZM22.6482 17.4545C22.5133 17.0202 22.2652 16.6296 21.9293 16.323L25.2035 14.9265C24.385 15.7362 23.5172 16.5948 22.6482 17.4545ZM25.0905 14.1591L21.5864 15.6536C21.5698 15.134 21.4409 14.6241 21.2085 14.1591L25.0905 14.1591ZM21.9977 18.098C21.4263 18.6633 20.8626 19.221 20.3167 19.7611C20.0164 18.9237 19.4672 18.1983 18.7428 17.682L21.1491 16.6557C21.3952 16.8111 21.6007 17.023 21.7483 17.2739C21.8959 17.5248 21.9814 17.8074 21.9977 18.098ZM20.3428 14.1591C20.7061 14.6922 20.8778 15.3328 20.83 15.9762L18.4703 16.9826C18.4891 16.4559 18.3947 15.9313 18.1935 15.4443C17.9923 14.9572 17.689 14.5189 17.304 14.1591H20.3428ZM12.8579 14.1591H16.1496C16.5393 14.4317 18.1148 15.6613 17.6439 17.335L14.6225 18.6237C14.7669 16.7552 13.6092 15.0507 12.8579 14.1591ZM15.2648 19.1653L17.9281 18.0295C18.3544 18.3004 19.5629 19.1738 19.6778 20.3932C19.053 21.0113 18.4662 21.5918 17.9375 22.1149C17.7673 21.4421 17.4347 20.8213 16.9687 20.3071C16.5027 19.7928 15.9176 19.4008 15.2648 19.1653ZM21.9343 24.4798C21.0873 23.1156 19.5266 22.6949 18.5448 22.5693L20.2172 20.9148C20.664 20.9345 22.09 21.0832 22.9404 22.1323C22.5877 22.9552 22.2453 23.754 21.9343 24.4798ZM26.5512 26.3628C26.0218 25.8584 25.3922 25.4712 24.7033 25.2263C24.0144 24.9813 23.2816 24.8842 22.5527 24.9413C22.8774 24.1837 23.2404 23.3366 23.6187 22.454C24.3943 22.4782 25.8966 22.6843 26.5512 23.4219V26.3628ZM26.5512 22.4554C25.7457 22.0142 24.8498 21.7633 23.9323 21.7221C24.198 21.1023 24.4664 20.4759 24.7305 19.8596C25.3716 19.8702 25.999 20.0471 26.5512 20.373V22.4554ZM26.5512 19.5186C26.0742 19.3046 25.5642 19.1732 25.0432 19.13C25.6175 17.7899 26.1504 16.5465 26.5512 15.6114V19.5186Z" fill="black" stroke="black" stroke-width="0.5"/>
</svg>
