<svg width="168" height="175" viewBox="0 0 168 175" fill="none" xmlns="http://www.w3.org/2000/svg">
<g clip-path="url(#clip0_3923_60)">
<rect width="168" height="175" rx="19" fill="#FFF7E8"/>
<g opacity="0.5" clip-path="url(#clip1_3923_60)">
<rect width="36.9503" height="36.9503" transform="translate(129 151.896) rotate(-27.2098)" fill="#FFF7E8"/>
<path d="M156.222 154.792C156.761 154.156 157.105 153.378 157.214 152.551C157.68 149.64 156.779 146.636 154.919 144.9C154.624 144.591 154.259 144.357 153.855 144.217C153.451 144.078 153.019 144.038 152.597 144.1C152.423 144.135 152.255 144.193 152.097 144.274C151.607 144.546 151.227 144.98 151.023 145.502C150.573 146.549 150.34 147.676 150.338 148.815C150.335 149.954 150.563 151.082 151.008 152.131C151.608 153.536 152.72 154.659 154.119 155.273C154.475 155.43 154.871 155.467 155.25 155.381C155.629 155.294 155.97 155.088 156.222 154.792ZM149.243 158.882C151.074 157.414 150.16 154.523 149.333 153.046C148.426 151.454 146.977 150.242 145.25 149.63C144.344 149.242 143.321 149.228 142.404 149.591L142.387 149.6C142.14 149.734 141.924 149.92 141.754 150.144C141.585 150.369 141.465 150.627 141.403 150.902C140.543 154.086 143.637 157.261 145.927 158.621C146.708 159.085 148.178 159.731 149.243 158.882ZM142.234 160.524C141.615 160.38 140.967 160.435 140.382 160.681C140.137 160.805 139.93 160.992 139.782 161.223C139.032 162.383 139.51 164.066 140.147 165.155C140.872 166.371 141.978 167.314 143.293 167.838C144.724 168.415 146.495 168.375 147.227 166.993C147.823 165.865 147.396 164.437 146.796 163.474C145.964 162.224 144.735 161.29 143.307 160.823C142.958 160.693 142.599 160.593 142.234 160.524ZM166.324 152.284C166.005 151.106 165.027 149.683 163.945 149.342C163.743 149.275 163.53 149.25 163.319 149.269C163.107 149.287 162.902 149.348 162.714 149.448C162.569 149.524 162.432 149.616 162.307 149.722C162.042 149.945 161.801 150.195 161.59 150.47C160.585 151.848 160.131 153.551 160.317 155.246C160.446 156.442 161.047 158.034 162.311 158.583C162.587 158.693 162.883 158.748 163.18 158.743C163.477 158.739 163.77 158.675 164.043 158.556C166.243 157.711 166.863 154.279 166.324 152.284ZM153.269 174.795C154.152 174.5 154.97 174.041 155.683 173.442C155.822 173.337 155.959 173.229 156.099 173.12C156.692 172.627 157.329 172.188 158.001 171.81L158.035 171.793C159.469 171.17 161.015 170.849 162.578 170.848C162.905 170.827 163.231 170.804 163.557 170.776C164.979 170.654 166.789 170.204 167.344 168.759C168.076 166.857 166.308 164.901 165.189 163.904C163.61 162.556 161.791 161.518 159.827 160.844C158.7 160.429 157.535 160.124 156.349 159.934L156.077 159.889C155.029 159.715 153.841 159.515 152.931 160.141C152.048 160.864 151.404 161.836 151.082 162.931C150.226 165.231 149.702 167.641 149.527 170.089L149.523 170.159C149.442 170.955 149.466 171.758 149.593 172.548C149.708 173.282 150.086 173.949 150.657 174.425C151.035 174.683 151.467 174.85 151.92 174.915C152.373 174.979 152.834 174.938 153.269 174.795Z" fill="#FFD17A"/>
</g>
<g opacity="0.4" filter="url(#filter0_f_3923_60)">
<circle cx="15" cy="17" r="17" fill="#FFD589"/>
</g>
<g opacity="0.4" filter="url(#filter1_f_3923_60)">
<circle cx="165" cy="47" r="17" fill="#FFD589"/>
</g>
<g opacity="0.4" filter="url(#filter2_f_3923_60)">
<circle cx="18" cy="160" r="23" fill="#FFD589"/>
</g>
</g>
<defs>
<filter id="filter0_f_3923_60" x="-31.2" y="-29.2" width="92.4" height="92.4" filterUnits="userSpaceOnUse" color-interpolation-filters="sRGB">
<feFlood flood-opacity="0" result="BackgroundImageFix"/>
<feBlend mode="normal" in="SourceGraphic" in2="BackgroundImageFix" result="shape"/>
<feGaussianBlur stdDeviation="14.6" result="effect1_foregroundBlur_3923_60"/>
</filter>
<filter id="filter1_f_3923_60" x="118.8" y="0.799999" width="92.4" height="92.4" filterUnits="userSpaceOnUse" color-interpolation-filters="sRGB">
<feFlood flood-opacity="0" result="BackgroundImageFix"/>
<feBlend mode="normal" in="SourceGraphic" in2="BackgroundImageFix" result="shape"/>
<feGaussianBlur stdDeviation="14.6" result="effect1_foregroundBlur_3923_60"/>
</filter>
<filter id="filter2_f_3923_60" x="-44.5059" y="97.4941" width="125.012" height="125.012" filterUnits="userSpaceOnUse" color-interpolation-filters="sRGB">
<feFlood flood-opacity="0" result="BackgroundImageFix"/>
<feBlend mode="normal" in="SourceGraphic" in2="BackgroundImageFix" result="shape"/>
<feGaussianBlur stdDeviation="19.7529" result="effect1_foregroundBlur_3923_60"/>
</filter>
<clipPath id="clip0_3923_60">
<rect width="168" height="175" rx="19" fill="white"/>
</clipPath>
<clipPath id="clip1_3923_60">
<rect width="36.9503" height="36.9503" fill="white" transform="translate(129 151.896) rotate(-27.2098)"/>
</clipPath>
</defs>
</svg>
