<svg width="40" height="40" viewBox="0 0 40 40" fill="none" xmlns="http://www.w3.org/2000/svg">
<circle cx="20" cy="20" r="20" fill="#F5F5F5"/>
<path d="M30.5937 20.8243V18.594C30.5937 18.2057 30.2788 17.8909 29.8905 17.8909C28.438 17.8909 27.0838 18.0134 25.8043 18.2637C25.0585 17.5435 24.1493 17.0209 23.1646 16.7353C24.2383 15.8317 24.9218 14.4788 24.9218 12.969C24.9218 10.2292 22.7138 8.00024 19.9999 8.00024C17.286 8.00024 15.0781 10.2292 15.0781 12.969C15.0781 14.4788 15.7616 15.8317 16.8353 16.7353C15.8507 17.0209 14.9414 17.5435 14.1956 18.2637C12.9161 18.0134 11.5619 17.8908 10.1094 17.8908C9.72106 17.8908 9.40625 18.2056 9.40625 18.5939V20.8242C8.58786 21.1145 8 21.896 8 22.8127V24.2189C8 25.1356 8.58786 25.9171 9.40625 26.2073V28.4377C9.40625 28.826 9.72106 29.1408 10.1094 29.1408C13.7857 29.1408 16.8046 30.0119 19.61 31.8821C19.8451 32.0387 20.1547 32.0391 20.39 31.8821C23.1954 30.0119 26.2142 29.1408 29.8906 29.1408C30.2789 29.1408 30.5938 28.826 30.5938 28.4377V26.2073C31.4121 25.9171 32 25.1356 32 24.2189V22.8127C31.9999 21.8961 31.412 21.1145 30.5937 20.8243ZM16.4843 12.969C16.4843 11.0046 18.0614 9.40649 19.9999 9.40649C21.9384 9.40649 23.5155 11.0046 23.5155 12.969C23.5155 14.9075 21.9384 16.4846 19.9999 16.4846C18.0614 16.4846 16.4843 14.9075 16.4843 12.969ZM10.1093 24.9221C9.72162 24.9221 9.4062 24.6067 9.4062 24.219V22.8127C9.4062 22.425 9.72162 22.1096 10.1093 22.1096C10.497 22.1096 10.8124 22.425 10.8124 22.8127V24.219C10.8124 24.6067 10.497 24.9221 10.1093 24.9221ZM19.2968 30.0354C16.7443 28.5757 14.0053 27.8379 10.8124 27.7447V26.2074C11.6308 25.9171 12.2187 25.1356 12.2187 24.219V22.8127C12.2187 21.8961 11.6308 21.1145 10.8124 20.8243V19.307C14.1162 19.4019 16.7718 20.1798 19.2968 21.7875V30.0354ZM19.9999 20.5692C18.7022 19.7504 17.3513 19.1269 15.9093 18.6888C16.7016 18.1738 17.6344 17.8909 18.5937 17.8909H21.4062C22.3655 17.8909 23.2982 18.1738 24.0906 18.6888C22.6486 19.1269 21.2977 19.7504 19.9999 20.5692ZM29.1874 27.7447C25.9946 27.8379 23.2555 28.5759 20.7031 30.0355V21.788C23.2281 20.1803 25.8835 19.4018 29.1874 19.307V20.8243C28.369 21.1145 27.7812 21.8961 27.7812 22.8127V24.219C27.7812 25.1356 28.369 25.9171 29.1874 26.2074V27.7447ZM30.5937 24.219C30.5937 24.6067 30.2782 24.9221 29.8905 24.9221C29.5028 24.9221 29.1874 24.6067 29.1874 24.219V22.8127C29.1874 22.425 29.5028 22.1096 29.8905 22.1096C30.2782 22.1096 30.5937 22.425 30.5937 22.8127V24.219Z" fill="black"/>
</svg>
