<svg width="28" height="28" viewBox="0 0 28 28" fill="none" xmlns="http://www.w3.org/2000/svg">
<path d="M23.4723 9.42193C23.9043 8.73852 24.0552 7.91455 23.8934 7.12242C23.8043 6.69493 23.6278 6.29046 23.375 5.93441C23.1222 5.57836 22.7985 5.2784 22.4243 5.05337L20.4165 3.84338C19.3594 3.2073 18.019 3.25262 17.0181 3.94534L16.7954 4.08488C15.7811 3.91826 14.7145 4.0998 13.7932 4.67703C12.8954 5.23964 12.2352 6.11211 11.9378 7.12906L11.7493 7.24787C11.2808 7.5021 10.8847 7.87142 10.5984 8.32105C10.3121 8.77068 10.1449 9.2858 10.1127 9.81789C9.93641 9.55445 9.69753 9.33884 9.41745 9.19037C9.13738 9.04189 8.82486 8.96518 8.50787 8.96711C7.5568 8.96711 6.77482 9.63331 6.6024 10.5515C6.11249 10.6303 5.66679 10.9082 5.35483 11.3371C4.99396 11.8328 4.8804 12.4354 5.04315 12.9917C5.2222 13.5949 5.64497 14.0679 6.20257 14.2892C6.69497 14.484 7.24511 14.4641 7.74331 14.2359L7.88727 14.3801C7.14177 15.4495 5.60849 18.03 6.04673 20.6448C6.13294 21.162 6.27358 21.6091 6.44407 22.0073C5.89807 22.2551 4.99728 22.466 3.53115 22.3676C3.42808 22.3562 3.32393 22.3755 3.23179 22.423C3.13966 22.4706 3.06365 22.5444 3.01333 22.6351C2.91026 22.8202 2.92767 23.0468 3.06638 23.2231C3.80995 24.1062 5.08211 24.7428 6.51232 24.7428C7.15199 24.7428 7.82289 24.6066 8.49213 24.317C9.0898 24.6536 9.57142 24.7597 9.61977 24.7691L13.2169 24.7771C13.6852 24.7766 14.1341 24.5903 14.4653 24.2592C14.7964 23.9281 14.9828 23.4792 14.9833 23.0109C14.9826 22.5423 14.797 22.0929 14.4669 21.7603C14.1343 21.4303 13.6851 21.2448 13.2166 21.2438H12.6758C12.6136 21.2437 12.5538 21.2193 12.5092 21.1759L11.0757 19.7423C10.998 19.6647 10.8926 19.621 10.7828 19.621C10.6729 19.621 10.5676 19.6647 10.4899 19.7423C10.4122 19.82 10.3686 19.9254 10.3686 20.0352C10.3686 20.1451 10.4122 20.2504 10.4899 20.3281L11.9229 21.7611C12.123 21.9603 12.3938 22.0722 12.6761 22.0725H13.2169C13.4653 22.0725 13.7076 22.1723 13.8811 22.3461C14.0122 22.4774 14.1014 22.6447 14.1375 22.8267C14.1735 23.0088 14.1548 23.1974 14.0838 23.3688C14.0127 23.5403 13.8924 23.6868 13.7381 23.7899C13.5838 23.893 13.4024 23.9481 13.2169 23.9481H9.74771C9.43132 23.871 7.32248 23.2549 6.86462 20.5077C6.49132 18.2803 7.77343 16.0212 8.48273 14.9759C10.8404 17.3349 13.2001 19.6919 15.5617 22.0471C15.3951 22.414 15.3511 22.81 15.4307 23.227C15.5954 24.1032 16.4218 24.7768 17.3207 24.7768L17.3613 24.7763C17.8083 24.7678 18.2388 24.6062 18.5809 24.3185C18.923 24.0307 19.1561 23.6343 19.2411 23.1955C19.5042 23.1411 19.755 23.0383 19.9805 22.8923L20.862 24.0675C21.0277 24.2873 21.2421 24.4658 21.4884 24.5889C21.7347 24.712 22.0061 24.7764 22.2814 24.7771C22.5778 24.7777 22.8695 24.7037 23.1298 24.5621C23.3902 24.4205 23.6108 24.2158 23.7713 23.9667C23.9328 23.7181 24.0292 23.433 24.0518 23.1375C24.0743 22.8419 24.0222 22.5455 23.9003 22.2753L23.3333 21.0128C23.1824 20.6758 23.1153 20.3073 23.1377 19.9388L23.3472 16.5556L23.2905 16.552C23.7783 16.1691 24.1836 15.6915 24.4823 15.148C24.7809 14.6045 24.9666 14.0063 25.0283 13.3893C25.1026 12.6876 25.0148 11.9783 24.7717 11.3159C24.5286 10.6535 24.1366 10.0558 23.626 9.56893L23.4723 9.42193ZM7.67534 23.7365C6.37941 24.1219 5.12798 23.8302 4.27499 23.2184C5.47862 23.212 6.28878 22.9926 6.82622 22.7437C7.06159 23.1126 7.3474 23.4467 7.67534 23.7365ZM19.9894 4.55324L21.9968 5.76323C22.5641 6.1042 22.9493 6.64633 23.0816 7.2896C23.1902 7.81625 23.0998 8.35866 22.8517 8.82674L19.0952 5.2222C18.7457 4.88638 18.3423 4.61167 17.9018 4.40955C18.5746 4.12826 19.3513 4.16943 19.9894 4.55324ZM11.762 8.24731C11.7504 8.72615 11.8185 9.2036 11.9635 9.66011L13.5487 14.6578C13.0138 14.6769 12.481 14.5197 12.0505 14.1875C11.7953 13.9926 11.5838 13.7464 11.4295 13.4647C11.2751 13.1831 11.1815 12.8723 11.1544 12.5523L10.9444 10.2169C10.8773 9.45951 11.1879 8.73418 11.762 8.24731ZM19.0742 22.3817C18.8186 22.3624 18.6321 22.4428 18.5318 22.611C18.4365 22.7539 18.4329 22.9017 18.429 23.0302C18.3818 23.2847 18.2481 23.515 18.0506 23.6822C17.853 23.8495 17.6038 23.9433 17.345 23.9479C16.7708 23.9722 16.326 23.5044 16.245 23.0728C16.1886 22.7777 16.2293 22.5257 16.3743 22.2786C16.5078 22.0493 16.4832 21.8153 16.2911 21.6047C13.5868 18.9077 10.8852 16.208 8.18624 13.5056C8.09561 13.415 7.84886 13.2251 7.51286 13.423C7.18736 13.6117 6.83064 13.6451 6.50818 13.5186C6.18406 13.3895 5.94587 13.1188 5.83811 12.7568C5.74969 12.4553 5.8196 12.1066 6.0249 11.8245C6.2349 11.5363 6.54023 11.3664 6.86435 11.3578C7.00131 11.3543 7.13204 11.2998 7.23097 11.205C7.3299 11.1102 7.38992 10.9819 7.3993 10.8452C7.44185 10.2368 7.90827 9.79523 8.50815 9.79523C8.90964 9.79523 9.26857 9.99915 9.46835 10.3407C9.6684 10.6828 9.67061 11.0964 9.46421 11.4645C9.29842 11.7963 9.43657 12.0262 9.57031 12.1497L10.3744 12.9485C10.5192 13.7037 10.927 14.3683 11.5446 14.8441C11.9315 15.1396 12.3818 15.3412 12.8599 15.4332L17.6421 20.2215C17.7808 20.3591 18.0134 20.4881 18.334 20.3176C18.7879 20.0797 19.1786 20.1046 19.5652 20.3975C19.9515 20.6862 20.0891 21.0714 19.9733 21.5417C19.8598 22.0084 19.5586 22.285 19.0742 22.3817ZM23.1443 22.6152C23.2103 22.7589 23.2386 22.917 23.2266 23.0747C23.2145 23.2323 23.1624 23.3843 23.0753 23.5163C22.9906 23.6499 22.8733 23.7597 22.7344 23.8353C22.5955 23.9109 22.4396 23.9499 22.2814 23.9484C22.1346 23.9481 21.99 23.9137 21.8587 23.8481C21.7275 23.7825 21.6132 23.6873 21.5248 23.5701L20.5605 22.2844C20.659 22.1139 20.7324 21.9301 20.7785 21.7387C20.975 20.9382 20.7199 20.2259 20.0634 19.7354C19.4674 19.2834 18.7957 19.2046 18.103 19.5099L17.3928 18.799C17.691 18.8581 17.9913 18.8907 18.2914 18.8907C19.1474 18.8907 19.9952 18.6506 20.7465 18.1803L22.4839 17.0916L22.311 19.8882C22.28 20.3884 22.3723 20.8948 22.5776 21.3524L23.1443 22.6152ZM24.2037 13.3044C24.1463 13.8812 23.9571 14.437 23.6509 14.929C23.3446 15.421 22.9294 15.8361 22.4372 16.1422L21.7191 16.5923L19.8343 13.5656C20.0649 13.3345 20.2272 13.0442 20.3033 12.7268C20.3795 12.4093 20.3664 12.077 20.2657 11.7665L20.2115 11.5998C20.1574 11.432 20.0656 11.2788 19.943 11.1521C19.8204 11.0253 19.6704 10.9284 19.5044 10.8687C19.3388 10.8077 19.1614 10.7856 18.9859 10.8042C18.8104 10.8227 18.6415 10.8814 18.4923 10.9757L17.4036 11.6582C17.2538 11.7513 17.1274 11.8777 17.0341 12.0274C16.9408 12.1772 16.8832 12.3464 16.8656 12.5219C16.8468 12.6972 16.8685 12.8744 16.929 13.04C16.9895 13.2056 17.0872 13.355 17.2146 13.4769L17.3414 13.5987C17.6723 13.9182 18.1144 14.0967 18.5743 14.0966C18.7635 14.0953 18.9511 14.0638 19.1303 14.0032L21.0164 17.0325L20.306 17.4776C19.8143 17.7882 19.2576 17.9811 18.6792 18.0413C18.1008 18.1016 17.5163 18.0275 16.9712 17.825C16.4246 17.6263 15.9312 17.3042 15.5293 16.8839C15.1274 16.4636 14.8278 15.9563 14.6537 15.4014L12.7532 9.40977C12.518 8.6689 12.5358 7.87088 12.8038 7.14124C13.0718 6.4116 13.5747 5.79173 14.2334 5.37915C14.7911 5.02891 15.4362 4.84302 16.0947 4.84282C16.3251 4.84282 16.5545 4.86824 16.7808 4.91355C16.7885 4.91549 16.7954 4.91853 16.8032 4.91991C17.4494 5.05172 18.0452 5.36373 18.5216 5.81987L23.052 10.1666C23.4714 10.5666 23.7933 11.0575 23.993 11.6015C24.1926 12.1455 24.2648 12.7282 24.2037 13.3044ZM19.0717 13.1248L19.0712 13.1254C18.8923 13.2359 18.6817 13.2838 18.4726 13.2614C18.2636 13.2391 18.0679 13.1477 17.9164 13.0019L17.7896 12.8795C17.7532 12.8447 17.7253 12.8021 17.708 12.7549C17.6907 12.7076 17.6845 12.657 17.6899 12.607C17.7004 12.5045 17.7565 12.415 17.8435 12.3605L18.9322 11.678C18.9749 11.6513 19.0231 11.6346 19.0732 11.6292C19.1234 11.6239 19.1741 11.6301 19.2214 11.6473C19.2688 11.6645 19.3116 11.6923 19.3466 11.7286C19.3817 11.7648 19.4079 11.8086 19.4235 11.8565L19.4779 12.0232C19.5436 12.2246 19.5401 12.4422 19.4677 12.6414C19.3954 12.8405 19.2585 13.0097 19.0789 13.1221C19.0767 13.1235 19.0742 13.1235 19.0717 13.1248Z" fill="#B58111"/>
<path d="M16.3352 9.96514C16.1535 9.67605 15.8645 9.4708 15.5317 9.39435C15.1989 9.3179 14.8493 9.3765 14.5596 9.5573C14.3985 9.65855 14.2618 9.79419 14.1593 9.9545C14.0567 10.1148 13.991 10.2958 13.9666 10.4845C13.9423 10.6733 13.96 10.8651 14.0186 11.0461C14.0771 11.2272 14.175 11.3931 14.3051 11.5319C14.3419 11.572 14.3862 11.6046 14.4355 11.6276C14.4849 11.6506 14.5382 11.6637 14.5926 11.666C14.647 11.6684 14.7013 11.66 14.7525 11.6413C14.8036 11.6227 14.8506 11.5941 14.8907 11.5573C14.9716 11.483 15.0197 11.3797 15.0245 11.2699C15.0292 11.1602 14.9903 11.053 14.9161 10.972C14.8678 10.923 14.8312 10.8638 14.8089 10.7988C14.7865 10.7337 14.7791 10.6645 14.787 10.5962C14.795 10.5278 14.8181 10.4622 14.8548 10.404C14.8915 10.3458 14.9408 10.2966 14.999 10.26C15.0571 10.2235 15.1227 10.2005 15.1909 10.1927C15.2591 10.1849 15.3282 10.1925 15.393 10.2149C15.4579 10.2373 15.517 10.2739 15.5658 10.3221C15.6147 10.3704 15.6521 10.4289 15.6754 10.4935C15.6951 10.5442 15.7246 10.5906 15.7622 10.6299C15.7999 10.6693 15.8449 10.7008 15.8948 10.7226C15.9447 10.7445 15.9984 10.7562 16.0528 10.7573C16.1072 10.7583 16.1613 10.7486 16.212 10.7286C16.2627 10.7089 16.309 10.6793 16.3483 10.6417C16.3876 10.6041 16.419 10.559 16.4409 10.5092C16.4627 10.4594 16.4746 10.4058 16.4757 10.3514C16.4768 10.297 16.4672 10.2429 16.4474 10.1923C16.4174 10.1132 16.3798 10.0371 16.3352 9.96514ZM19.5927 7.92427C19.4111 7.63506 19.1221 7.42971 18.7892 7.35326C18.4564 7.2768 18.1068 7.33548 17.8171 7.51643C17.656 7.6177 17.5193 7.75336 17.4168 7.91368C17.3143 8.074 17.2486 8.25502 17.2243 8.44375C17.2 8.63247 17.2177 8.82424 17.2763 9.0053C17.3348 9.18635 17.4327 9.35221 17.5629 9.49098C17.5996 9.53115 17.6439 9.56367 17.6932 9.58669C17.7425 9.60971 17.7959 9.62278 17.8503 9.62514C17.9046 9.6275 17.9589 9.61911 18.01 9.60045C18.0612 9.58179 18.1081 9.55323 18.1481 9.5164C18.3167 9.36222 18.3283 9.1 18.1736 8.93117C18.1253 8.88215 18.0886 8.82292 18.0663 8.75785C18.044 8.69279 18.0365 8.62353 18.0445 8.5552C18.0525 8.48687 18.0757 8.4212 18.1124 8.36303C18.1491 8.30486 18.1985 8.25567 18.2567 8.2191C18.315 8.18255 18.3806 8.15954 18.4489 8.15176C18.5172 8.14398 18.5864 8.15163 18.6513 8.17414C18.7163 8.19666 18.7753 8.23346 18.8242 8.28185C18.873 8.33023 18.9103 8.38896 18.9334 8.45369C18.9767 8.55182 19.0562 8.62939 19.1554 8.67014C19.2545 8.71089 19.3656 8.71165 19.4654 8.67226C19.5651 8.63287 19.6457 8.5564 19.6902 8.45888C19.7348 8.36135 19.7399 8.25037 19.7044 8.14919C19.6744 8.07084 19.637 7.99553 19.5927 7.92427ZM5.03364 4.95581C4.66559 5.00278 4.34865 5.15697 4.09057 5.41505C3.92225 5.58119 3.79058 5.78074 3.70401 6.00083C3.61745 6.22093 3.57792 6.45671 3.58795 6.69301C3.60702 7.16606 3.81812 7.62751 4.18176 7.99059C4.55616 8.365 5.03612 8.56781 5.69155 8.62888C5.77444 8.63634 5.8858 8.64021 6.02755 8.64021C6.48264 8.64021 7.25025 8.59986 8.38646 8.51614C8.56905 8.50348 8.74088 8.42515 8.8702 8.29562C8.99952 8.1661 9.07758 7.99414 9.08996 7.81154C9.19883 6.3186 9.23447 5.46312 9.20214 5.11773C9.1408 4.46176 8.93798 3.98207 8.56413 3.60821C8.2005 3.24458 7.73988 3.03431 7.26682 3.01469C6.78548 2.98982 6.3326 3.17329 5.98859 3.51703L5.98803 3.51758C5.73078 3.77539 5.57632 4.09204 5.52907 4.4601C5.50985 4.6239 5.51198 4.78951 5.53543 4.95277C5.36858 4.9349 5.20025 4.93592 5.03364 4.95581ZM6.48623 5.92264C6.48623 5.92264 6.33149 4.72232 6.35167 4.56482C6.37081 4.38988 6.44954 4.22686 6.57465 4.1031C6.75288 3.9246 6.98471 3.82623 7.23284 3.84253C7.49755 3.85331 7.76226 3.97848 7.97834 4.19428C8.21431 4.42998 8.33368 4.72951 8.37734 5.19565C8.40414 5.48109 8.36711 6.32164 8.26764 7.6941C6.56471 7.81872 5.96869 7.82452 5.76864 7.80352C5.30332 7.76042 5.0038 7.64105 4.76755 7.4048C4.55174 7.18899 4.42657 6.92401 4.4158 6.65985C4.40612 6.41338 4.49869 6.17906 4.67664 6.00111C4.8003 5.87607 4.96325 5.79742 5.13809 5.7784C5.18976 5.77205 5.24281 5.76928 5.2942 5.76928C5.4249 5.76901 6.48623 5.92264 6.48623 5.92264Z" fill="#B58111"/>
</svg>
