<svg width="84" height="28" viewBox="0 0 84 28" fill="none" xmlns="http://www.w3.org/2000/svg">
<rect x="0.268519" y="0.268519" width="83.463" height="27.463" rx="8.32407" stroke="url(#paint0_linear_3923_76)" stroke-width="0.537037"/>
<path d="M15.6621 17.6406C13.7637 17.6406 12.5098 16.7383 12.4043 15.25L12.3984 15.1621H13.6758L13.6875 15.2383C13.8047 16.0176 14.584 16.5039 15.7148 16.5039C16.8457 16.5039 17.5605 15.9941 17.5605 15.2031V15.1973C17.5605 14.5176 17.0977 14.1484 15.9785 13.9023L15.0586 13.709C13.4004 13.3574 12.5977 12.5957 12.5977 11.3418V11.3359C12.6035 9.89453 13.875 8.9043 15.6621 8.9043C17.4258 8.9043 18.6328 9.86523 18.7207 11.2832L18.7266 11.3828H17.4492L17.4434 11.3008C17.3262 10.5156 16.6465 10.041 15.6445 10.041C14.5957 10.0469 13.9277 10.5449 13.9277 11.2832V11.2891C13.9277 11.9219 14.4082 12.3086 15.4629 12.5371L16.3887 12.7305C18.1348 13.0996 18.8848 13.8086 18.8848 15.1152V15.1211C18.8848 16.6621 17.666 17.6406 15.6621 17.6406ZM22.5645 17.623C20.7656 17.623 19.6406 16.3867 19.6406 14.4121V14.4062C19.6406 12.4551 20.7891 11.2188 22.5469 11.2188C24.1348 11.2188 25.0957 12.2383 25.2012 13.3984L25.207 13.4395H24L23.9883 13.3926C23.8535 12.7891 23.3848 12.2793 22.5586 12.2793C21.5742 12.2793 20.9355 13.0996 20.9355 14.418V14.4238C20.9355 15.7715 21.5859 16.5625 22.5645 16.5625C23.3438 16.5625 23.8418 16.1113 23.9941 15.4434L24 15.3965H25.2188L25.2129 15.4375C25.0781 16.6738 24.0469 17.623 22.5645 17.623ZM27.9258 17.6113C26.6953 17.6113 25.8691 16.8555 25.8691 15.748V15.7363C25.8691 14.6641 26.7012 14.0078 28.1602 13.9199L29.8359 13.8203V13.3574C29.8359 12.6777 29.3965 12.2676 28.6113 12.2676C27.8789 12.2676 27.4277 12.6133 27.3223 13.1055L27.3105 13.1582H26.1152L26.1211 13.0938C26.209 12.0332 27.1289 11.2188 28.6465 11.2188C30.1523 11.2188 31.1074 12.0156 31.1074 13.252V17.5H29.8359V16.5273H29.8125C29.4551 17.1895 28.7402 17.6113 27.9258 17.6113ZM27.1465 15.7188C27.1465 16.2578 27.5918 16.5977 28.2715 16.5977C29.1621 16.5977 29.8359 15.9941 29.8359 15.1914V14.7109L28.3301 14.8047C27.5684 14.8516 27.1465 15.1855 27.1465 15.707V15.7188ZM32.3379 17.5V11.3359H33.6035V12.2676H33.6328C33.9551 11.6406 34.5879 11.2188 35.5195 11.2188C36.873 11.2188 37.6523 12.0918 37.6523 13.5098V17.5H36.3809V13.75C36.3809 12.8242 35.9473 12.3027 35.0684 12.3027C34.1777 12.3027 33.6035 12.9473 33.6035 13.9082V17.5H32.3379ZM40.8398 17.5L43.916 9.04492H45.334L48.4043 17.5H47.0273L46.2539 15.2148H42.9961L42.2168 17.5H40.8398ZM44.6133 10.4453L43.3477 14.1602H45.8965L44.6367 10.4453H44.6133ZM51.7266 19.6738C50.1445 19.6738 49.1426 18.9414 48.9551 17.998L48.9492 17.9453H50.2031L50.2266 17.9922C50.3965 18.3848 50.9297 18.6543 51.7207 18.6543C52.7285 18.6543 53.2852 18.1152 53.2852 17.2539V16.4102H53.2559C52.9043 17.0781 52.2012 17.5059 51.3164 17.5059C49.7695 17.5059 48.75 16.293 48.75 14.3711V14.3652C48.75 12.4316 49.7812 11.2188 51.3457 11.2188C52.2129 11.2188 52.8926 11.6875 53.2559 12.3848H53.2852V11.3359H54.5566V17.3301C54.5566 18.7363 53.4668 19.6738 51.7266 19.6738ZM51.6738 16.4746C52.6406 16.4746 53.2852 15.6602 53.2852 14.3887V14.3828C53.2852 13.1172 52.6348 12.3027 51.6738 12.3027C50.6719 12.3027 50.0449 13.1113 50.0449 14.3828V14.3887C50.0449 15.6777 50.6719 16.4746 51.6738 16.4746ZM57.6211 17.6113C56.3906 17.6113 55.5645 16.8555 55.5645 15.748V15.7363C55.5645 14.6641 56.3965 14.0078 57.8555 13.9199L59.5312 13.8203V13.3574C59.5312 12.6777 59.0918 12.2676 58.3066 12.2676C57.5742 12.2676 57.123 12.6133 57.0176 13.1055L57.0059 13.1582H55.8105L55.8164 13.0938C55.9043 12.0332 56.8242 11.2188 58.3418 11.2188C59.8477 11.2188 60.8027 12.0156 60.8027 13.252V17.5H59.5312V16.5273H59.5078C59.1504 17.1895 58.4355 17.6113 57.6211 17.6113ZM56.8418 15.7188C56.8418 16.2578 57.2871 16.5977 57.9668 16.5977C58.8574 16.5977 59.5312 15.9941 59.5312 15.1914V14.7109L58.0254 14.8047C57.2637 14.8516 56.8418 15.1855 56.8418 15.707V15.7188ZM62.7188 10.3867C62.3086 10.3867 61.9805 10.0586 61.9805 9.66016C61.9805 9.25586 62.3086 8.92773 62.7188 8.92773C63.1348 8.92773 63.457 9.25586 63.457 9.66016C63.457 10.0586 63.1348 10.3867 62.7188 10.3867ZM62.0859 17.5V11.3359H63.3516V17.5H62.0859ZM64.6582 17.5V11.3359H65.9238V12.2676H65.9531C66.2754 11.6406 66.9082 11.2188 67.8398 11.2188C69.1934 11.2188 69.9727 12.0918 69.9727 13.5098V17.5H68.7012V13.75C68.7012 12.8242 68.2676 12.3027 67.3887 12.3027C66.498 12.3027 65.9238 12.9473 65.9238 13.9082V17.5H64.6582Z" fill="url(#paint1_linear_3923_76)"/>
<defs>
<linearGradient id="paint0_linear_3923_76" x1="-6.25849e-07" y1="14" x2="84" y2="14" gradientUnits="userSpaceOnUse">
<stop offset="0.0134415" stop-color="#EC7303"/>
<stop offset="0.469735" stop-color="#F58C0B"/>
<stop offset="1" stop-color="#FFA915"/>
</linearGradient>
<linearGradient id="paint1_linear_3923_76" x1="12" y1="13.5" x2="71" y2="13.5" gradientUnits="userSpaceOnUse">
<stop offset="0.0134415" stop-color="#EC7303"/>
<stop offset="0.469735" stop-color="#F58C0B"/>
<stop offset="1" stop-color="#FFA915"/>
</linearGradient>
</defs>
</svg>
