<svg width="85" height="28" viewBox="0 0 85 28" fill="none" xmlns="http://www.w3.org/2000/svg">
<rect x="1" y="0.5" width="83" height="27" rx="8.09259" stroke="#2973A8"/>
<path d="M21.1055 18H19.6699L16.6523 9.54492H18.0762L20.3789 16.5234H20.4141L22.7227 9.54492H24.123L21.1055 18ZM24.7969 18V11.8359H26.0625V18H24.7969ZM25.4297 10.9336C25.0254 10.9336 24.6973 10.6113 24.6973 10.2129C24.6973 9.80859 25.0254 9.48633 25.4297 9.48633C25.8398 9.48633 26.168 9.80859 26.168 10.2129C26.168 10.6113 25.8398 10.9336 25.4297 10.9336ZM29.9355 12.7441C29.0508 12.7441 28.4297 13.418 28.3652 14.3496H31.4473C31.418 13.4062 30.8203 12.7441 29.9355 12.7441ZM31.4414 16.1895H32.6426C32.4668 17.3145 31.4004 18.1172 29.9883 18.1172C28.1777 18.1172 27.082 16.8926 27.082 14.9473C27.082 13.0137 28.1953 11.7246 29.9355 11.7246C31.6465 11.7246 32.7129 12.9316 32.7129 14.8008V15.2344H28.3594V15.3105C28.3594 16.3828 29.0039 17.0918 30.0176 17.0918C30.7383 17.0918 31.2715 16.7285 31.4414 16.1895ZM41.8301 11.8359L40.1426 18H38.8242L37.5293 13.3828H37.5L36.2168 18H34.9102L33.2168 11.8359H34.4824L35.6074 16.6875H35.6309L36.9141 11.8359H38.1328L39.4219 16.6875H39.4512L40.5762 11.8359H41.8301ZM46.4707 18H45.1934V9.54492H46.3828L50.7656 15.7793H50.8125V9.54492H52.0898V18H50.9062L46.5234 11.7715H46.4707V18ZM56.1504 18.1172C54.3867 18.1172 53.2266 16.9043 53.2266 14.918C53.2266 12.9375 54.3926 11.7246 56.1504 11.7246C57.9082 11.7246 59.0742 12.9375 59.0742 14.918C59.0742 16.9043 57.9141 18.1172 56.1504 18.1172ZM56.1504 17.0742C57.1465 17.0742 57.7852 16.2891 57.7852 14.918C57.7852 13.5527 57.1406 12.7676 56.1504 12.7676C55.1602 12.7676 54.5156 13.5527 54.5156 14.918C54.5156 16.2891 55.1602 17.0742 56.1504 17.0742ZM68.1621 11.8359L66.4746 18H65.1562L63.8613 13.3828H63.832L62.5488 18H61.2422L59.5488 11.8359H60.8145L61.9395 16.6875H61.9629L63.2461 11.8359H64.4648L65.7539 16.6875H65.7832L66.9082 11.8359H68.1621Z" fill="#2973A8"/>
</svg>
