<svg width="40" height="40" viewBox="0 0 40 40" fill="none" xmlns="http://www.w3.org/2000/svg">
<circle cx="20" cy="20" r="20" fill="#F5F5F5"/>
<path d="M24.8588 29.7089C24.6895 29.7089 24.5166 29.6874 24.3454 29.6426L10.4919 25.9328C9.4232 25.638 8.78625 24.5326 9.06577 23.4647L10.5887 17.6247C10.6818 17.2663 11.0483 17.0486 11.4084 17.1446C11.7668 17.2377 11.9827 17.605 11.8887 17.9643L10.3656 23.8052C10.2716 24.1653 10.4857 24.537 10.8441 24.6356L24.6895 28.3436C25.0451 28.4376 25.4124 28.2262 25.5056 27.8723L25.9785 25.9641C26.0682 25.604 26.4319 25.3854 26.7919 25.4733C27.1522 25.5629 27.3716 25.9265 27.2829 26.2866L26.8082 28.2038C26.5689 29.1113 25.752 29.7089 24.8588 29.7089Z" fill="black"/>
<path d="M28.4843 24.3338H14.5986C13.4869 24.3338 12.5829 23.4298 12.5829 22.3181V12.0157C12.5829 10.904 13.4869 10 14.5986 10H28.4843C29.596 10 30.5 10.904 30.5 12.0157V22.3181C30.5 23.4298 29.596 24.3338 28.4843 24.3338ZM14.5986 11.3438C14.2277 11.3438 13.9267 11.6448 13.9267 12.0157V22.3181C13.9267 22.689 14.2277 22.99 14.5986 22.99H28.4843C28.8552 22.99 29.1562 22.689 29.1562 22.3181V12.0157C29.1562 11.6448 28.8552 11.3438 28.4843 11.3438H14.5986Z" fill="black"/>
<path d="M17.0623 16.2711C16.0741 16.2711 15.2705 15.4675 15.2705 14.4793C15.2705 13.4912 16.0741 12.6876 17.0623 12.6876C18.0504 12.6876 18.8539 13.4912 18.8539 14.4793C18.8539 15.4675 18.0504 16.2711 17.0623 16.2711ZM17.0623 14.0313C16.8149 14.0313 16.6143 14.2321 16.6143 14.4793C16.6143 14.7265 16.8149 14.9273 17.0623 14.9273C17.3095 14.9273 17.5101 14.7265 17.5101 14.4793C17.5101 14.2321 17.3095 14.0313 17.0623 14.0313Z" fill="black"/>
<path d="M13.2726 23.4199C13.1007 23.4199 12.9287 23.3545 12.7979 23.2229C12.5355 22.9605 12.5355 22.5348 12.7979 22.2723L16.8471 18.2231C17.46 17.6103 18.457 17.6103 19.0688 18.2231L20.152 19.3062L23.4791 15.3125C23.7765 14.9558 24.2128 14.7498 24.6761 14.7472C25.1741 14.7195 25.5773 14.946 25.8773 15.2982L30.3369 20.5012C30.5787 20.7825 30.5456 21.2072 30.2643 21.449C29.9821 21.691 29.5584 21.6578 29.3165 21.3765L24.8552 16.1717C24.796 16.1008 24.7235 16.1044 24.6831 16.0918C24.6447 16.0918 24.5703 16.1034 24.5112 16.1733L20.7128 20.7333C20.5917 20.8783 20.4154 20.9663 20.2273 20.9743C20.0355 20.985 19.8546 20.9115 19.7219 20.7781L18.1184 19.1745C18.0046 19.0607 17.9106 19.0607 17.7967 19.1745L13.7475 23.2229C13.6166 23.3545 13.4447 23.4199 13.2726 23.4199Z" fill="black"/>
</svg>
